<?xml version="1.0" encoding="UTF-8" standalone="no"?>
<!DOCTYPE svg PUBLIC "-//W3C//DTD SVG 1.1//EN"
 "http://www.w3.org/Graphics/SVG/1.1/DTD/svg11.dtd">
<!-- Generated by graphviz version 2.40.1 (20161225.0304)
 -->
<!-- Title: sys::basic_fildesbuf&lt; Ch, Tr, Fd &gt; Pages: 1 -->
<svg width="118pt" height="173pt"
 viewBox="0.00 0.00 118.00 173.00" xmlns="http://www.w3.org/2000/svg" xmlns:xlink="http://www.w3.org/1999/xlink">
<g id="graph0" class="graph" transform="scale(1 1) rotate(0) translate(4 169)">
<title>sys::basic_fildesbuf&lt; Ch, Tr, Fd &gt;</title>
<!-- Node3 -->
<g id="node1" class="node">
<title>Node3</title>
<polygon fill="#bfbfbf" stroke="#000000" points="3,-.5 3,-30.5 107,-30.5 107,-.5 3,-.5"/>
<text text-anchor="start" x="11" y="-18.5" font-family="Helvetica,sans-Serif" font-size="10.00" fill="#000000">sys::basic_fildesbuf</text>
<text text-anchor="middle" x="55" y="-7.5" font-family="Helvetica,sans-Serif" font-size="10.00" fill="#000000">&lt; Ch, Tr, Fd &gt;</text>
</g>
<!-- Node4 -->
<g id="node2" class="node">
<title>Node4</title>
<g id="a_node2"><a xlink:href="classsys_1_1basic__packetbuf.html" target="_top" xlink:title="Stream buffer that can reads/writes data in packets with arbitrary header. ">
<polygon fill="none" stroke="#000000" points="0,-67.5 0,-97.5 110,-97.5 110,-67.5 0,-67.5"/>
<text text-anchor="start" x="8" y="-85.5" font-family="Helvetica,sans-Serif" font-size="10.00" fill="#000000">sys::basic_packetbuf</text>
<text text-anchor="middle" x="55" y="-74.5" font-family="Helvetica,sans-Serif" font-size="10.00" fill="#000000">&lt; Ch, Tr &gt;</text>
</a>
</g>
</g>
<!-- Node4&#45;&gt;Node3 -->
<g id="edge1" class="edge">
<title>Node4&#45;&gt;Node3</title>
<path fill="none" stroke="#191970" d="M55,-57.0249C55,-48.128 55,-38.4287 55,-30.6432"/>
<polygon fill="#191970" stroke="#191970" points="51.5001,-57.2966 55,-67.2967 58.5001,-57.2967 51.5001,-57.2966"/>
</g>
<!-- Node5 -->
<g id="node3" class="node">
<title>Node5</title>
<g id="a_node3"><a doxygen="/home/igankevich/repos/dev/specs/build/unistdx/build/std.tag.xml:http://en.cppreference.com/w/" xlink:href="http://en.cppreference.com/w/cpp/io/basic_streambuf.html" xlink:title="std::basic_streambuf\l\&lt; Ch, Tr \&gt;">
<polygon fill="none" stroke="#000000" points="1,-134.5 1,-164.5 109,-164.5 109,-134.5 1,-134.5"/>
<text text-anchor="start" x="9" y="-152.5" font-family="Helvetica,sans-Serif" font-size="10.00" fill="#000000">std::basic_streambuf</text>
<text text-anchor="middle" x="55" y="-141.5" font-family="Helvetica,sans-Serif" font-size="10.00" fill="#000000">&lt; Ch, Tr &gt;</text>
</a>
</g>
</g>
<!-- Node5&#45;&gt;Node4 -->
<g id="edge2" class="edge">
<title>Node5&#45;&gt;Node4</title>
<path fill="none" stroke="#191970" d="M55,-124.0249C55,-115.128 55,-105.4287 55,-97.6432"/>
<polygon fill="#191970" stroke="#191970" points="51.5001,-124.2966 55,-134.2967 58.5001,-124.2967 51.5001,-124.2966"/>
</g>
</g>
</svg>
