<?xml version="1.0" encoding="UTF-8" standalone="no"?>
<!DOCTYPE svg PUBLIC "-//W3C//DTD SVG 1.1//EN"
 "http://www.w3.org/Graphics/SVG/1.1/DTD/svg11.dtd">
<!-- Generated by graphviz version 2.40.1 (20161225.0304)
 -->
<!-- Title: sys::pathentry Pages: 1 -->
<svg width="441pt" height="100pt"
 viewBox="0.00 0.00 441.00 99.50" xmlns="http://www.w3.org/2000/svg" xmlns:xlink="http://www.w3.org/1999/xlink">
<g id="graph0" class="graph" transform="scale(1 1) rotate(0) translate(4 95.5)">
<title>sys::pathentry</title>
<polygon fill="#ffffff" stroke="transparent" points="-4,4 -4,-95.5 437,-95.5 437,4 -4,4"/>
<!-- Node3 -->
<g id="node1" class="node">
<title>Node3</title>
<polygon fill="#bfbfbf" stroke="#000000" points="354,-41 354,-60 433,-60 433,-41 354,-41"/>
<text text-anchor="middle" x="393.5" y="-48" font-family="Helvetica,sans-Serif" font-size="10.00" fill="#000000">sys::pathentry</text>
</g>
<!-- Node4 -->
<g id="node2" class="node">
<title>Node4</title>
<g id="a_node2"><a xlink:href="classsys_1_1direntry.html" target="_top" xlink:title="Directory entry. ">
<polygon fill="#ffffff" stroke="#000000" points="178.5,-68 178.5,-87 249.5,-87 249.5,-68 178.5,-68"/>
<text text-anchor="middle" x="214" y="-75" font-family="Helvetica,sans-Serif" font-size="10.00" fill="#000000">sys::direntry</text>
</a>
</g>
</g>
<!-- Node4&#45;&gt;Node3 -->
<g id="edge1" class="edge">
<title>Node4&#45;&gt;Node3</title>
<path fill="none" stroke="#191970" d="M259.8088,-70.6095C288.887,-66.2357 326.1351,-60.6329 353.9257,-56.4527"/>
<polygon fill="#191970" stroke="#191970" points="259.2612,-67.1524 249.8931,-72.101 260.3025,-74.0746 259.2612,-67.1524"/>
</g>
<!-- Node5 -->
<g id="node3" class="node">
<title>Node5</title>
<polygon fill="#ffffff" stroke="#bfbfbf" points="25.5,-72 25.5,-91 90.5,-91 90.5,-72 25.5,-72"/>
<text text-anchor="middle" x="58" y="-79" font-family="Helvetica,sans-Serif" font-size="10.00" fill="#000000">dirent_type</text>
</g>
<!-- Node5&#45;&gt;Node4 -->
<g id="edge2" class="edge">
<title>Node5&#45;&gt;Node4</title>
<path fill="none" stroke="#191970" d="M100.7493,-80.4039C125.1088,-79.7793 155.2772,-79.0057 178.3503,-78.4141"/>
<polygon fill="#191970" stroke="#191970" points="100.6097,-76.9062 90.7027,-80.6615 100.7892,-83.9039 100.6097,-76.9062"/>
</g>
<!-- Node6 -->
<g id="node4" class="node">
<title>Node6</title>
<g id="a_node4"><a xlink:href="classsys_1_1basic__path.html" target="_top" xlink:title="sys::basic_path\&lt; char \&gt;">
<polygon fill="#ffffff" stroke="#000000" points="153,-22 153,-41 275,-41 275,-22 153,-22"/>
<text text-anchor="middle" x="214" y="-29" font-family="Helvetica,sans-Serif" font-size="10.00" fill="#000000">sys::basic_path&lt; char &gt;</text>
</a>
</g>
</g>
<!-- Node6&#45;&gt;Node3 -->
<g id="edge3" class="edge">
<title>Node6&#45;&gt;Node3</title>
<path fill="none" stroke="#9a32cd" stroke-dasharray="5,2" d="M285.4183,-36.4688C302.0442,-37.8707 319.6604,-39.5543 336,-41.5 341.8193,-42.193 347.9533,-43.0339 353.9606,-43.9202"/>
<polygon fill="#9a32cd" stroke="#9a32cd" points="285.4671,-32.9611 275.2146,-35.6324 284.8952,-39.9377 285.4671,-32.9611"/>
<text text-anchor="middle" x="314.5" y="-44.5" font-family="Helvetica,sans-Serif" font-size="10.00" fill="#000000"> _dirname</text>
</g>
<!-- Node7 -->
<g id="node5" class="node">
<title>Node7</title>
<g id="a_node5"><a doxygen="/home/igankevich/repos/dev/specs/build/unistdx/build/std.tag.xml:http://en.cppreference.com/w/" xlink:href="http://en.cppreference.com/w/cpp/string/basic_string.html" xlink:title="std::basic_string\&lt;\l char, std::char_traits\l\&lt; char \&gt;, std::allocator\l\&lt; char \&gt; \&gt;">
<polygon fill="#ffffff" stroke="#000000" points="0,-.5 0,-52.5 116,-52.5 116,-.5 0,-.5"/>
<text text-anchor="start" x="8" y="-40.5" font-family="Helvetica,sans-Serif" font-size="10.00" fill="#000000">std::basic_string&lt;</text>
<text text-anchor="start" x="8" y="-29.5" font-family="Helvetica,sans-Serif" font-size="10.00" fill="#000000"> char, std::char_traits</text>
<text text-anchor="start" x="8" y="-18.5" font-family="Helvetica,sans-Serif" font-size="10.00" fill="#000000">&lt; char &gt;, std::allocator</text>
<text text-anchor="middle" x="58" y="-7.5" font-family="Helvetica,sans-Serif" font-size="10.00" fill="#000000">&lt; char &gt; &gt;</text>
</a>
</g>
</g>
<!-- Node7&#45;&gt;Node6 -->
<g id="edge4" class="edge">
<title>Node7&#45;&gt;Node6</title>
<path fill="none" stroke="#191970" d="M126.0927,-28.6825C135.0427,-28.9693 144.1695,-29.2618 152.9916,-29.5446"/>
<polygon fill="#191970" stroke="#191970" points="126.1957,-25.1841 116.0886,-28.3618 125.9714,-32.1805 126.1957,-25.1841"/>
</g>
</g>
</svg>
