<?xml version="1.0" encoding="UTF-8" standalone="no"?>
<!DOCTYPE svg PUBLIC "-//W3C//DTD SVG 1.1//EN"
 "http://www.w3.org/Graphics/SVG/1.1/DTD/svg11.dtd">
<!-- Generated by graphviz version 2.40.1 (20161225.0304)
 -->
<!-- Title: sys::basic_directory&lt; FilePred, Trans &gt; Pages: 1 -->
<svg width="244pt" height="162pt"
 viewBox="0.00 0.00 243.50 162.00" xmlns="http://www.w3.org/2000/svg" xmlns:xlink="http://www.w3.org/1999/xlink">
<g id="graph0" class="graph" transform="scale(1 1) rotate(0) translate(4 158)">
<title>sys::basic_directory&lt; FilePred, Trans &gt;</title>
<polygon fill="#ffffff" stroke="transparent" points="-4,4 -4,-158 239.5,-158 239.5,4 -4,4"/>
<!-- Node0 -->
<g id="node1" class="node">
<title>Node0</title>
<polygon fill="#bfbfbf" stroke="#000000" points="64.5,-.5 64.5,-30.5 168.5,-30.5 168.5,-.5 64.5,-.5"/>
<text text-anchor="start" x="72.5" y="-18.5" font-family="Helvetica,sans-Serif" font-size="10.00" fill="#000000">sys::basic_directory</text>
<text text-anchor="middle" x="116.5" y="-7.5" font-family="Helvetica,sans-Serif" font-size="10.00" fill="#000000">&lt; FilePred, Trans &gt;</text>
</g>
<!-- Node1 -->
<g id="node2" class="node">
<title>Node1</title>
<g id="a_node2"><a xlink:href="classsys_1_1basic__idirectory.html" target="_top" xlink:title="Directory entry input stream. ">
<polygon fill="#ffffff" stroke="#000000" points="0,-67.5 0,-97.5 107,-97.5 107,-67.5 0,-67.5"/>
<text text-anchor="start" x="8" y="-85.5" font-family="Helvetica,sans-Serif" font-size="10.00" fill="#000000">sys::basic_idirectory</text>
<text text-anchor="middle" x="53.5" y="-74.5" font-family="Helvetica,sans-Serif" font-size="10.00" fill="#000000">&lt; FilePred &gt;</text>
</a>
</g>
</g>
<!-- Node1&#45;&gt;Node0 -->
<g id="edge1" class="edge">
<title>Node1&#45;&gt;Node0</title>
<path fill="none" stroke="#191970" d="M74.727,-59.9253C83.7938,-50.2828 94.1357,-39.2843 102.2609,-30.6432"/>
<polygon fill="#191970" stroke="#191970" points="72.0961,-57.6138 67.7957,-67.2967 77.1958,-62.409 72.0961,-57.6138"/>
</g>
<!-- Node2 -->
<g id="node3" class="node">
<title>Node2</title>
<g id="a_node3"><a xlink:href="classsys_1_1dirstream.html" target="_top" xlink:title="Base class for all directory streams. ">
<polygon fill="#ffffff" stroke="#000000" points="14,-134.5 14,-153.5 93,-153.5 93,-134.5 14,-134.5"/>
<text text-anchor="middle" x="53.5" y="-141.5" font-family="Helvetica,sans-Serif" font-size="10.00" fill="#000000">sys::dirstream</text>
</a>
</g>
</g>
<!-- Node2&#45;&gt;Node1 -->
<g id="edge2" class="edge">
<title>Node2&#45;&gt;Node1</title>
<path fill="none" stroke="#191970" d="M53.5,-124.3693C53.5,-115.681 53.5,-105.6241 53.5,-97.5446"/>
<polygon fill="#191970" stroke="#191970" points="50.0001,-124.3906 53.5,-134.3906 57.0001,-124.3907 50.0001,-124.3906"/>
</g>
<!-- Node3 -->
<g id="node4" class="node">
<title>Node3</title>
<g id="a_node4"><a xlink:href="classsys_1_1basic__odirectory.html" target="_top" xlink:title="Directory entry output stream. ">
<polygon fill="#ffffff" stroke="#000000" points="125.5,-67.5 125.5,-97.5 235.5,-97.5 235.5,-67.5 125.5,-67.5"/>
<text text-anchor="start" x="133.5" y="-85.5" font-family="Helvetica,sans-Serif" font-size="10.00" fill="#000000">sys::basic_odirectory</text>
<text text-anchor="middle" x="180.5" y="-74.5" font-family="Helvetica,sans-Serif" font-size="10.00" fill="#000000">&lt; Trans &gt;</text>
</a>
</g>
</g>
<!-- Node3&#45;&gt;Node0 -->
<g id="edge3" class="edge">
<title>Node3&#45;&gt;Node0</title>
<path fill="none" stroke="#191970" d="M158.9361,-59.9253C149.7254,-50.2828 139.2193,-39.2843 130.9651,-30.6432"/>
<polygon fill="#191970" stroke="#191970" points="156.5392,-62.4831 165.9774,-67.2967 161.601,-57.648 156.5392,-62.4831"/>
</g>
</g>
</svg>
