<?xml version="1.0" encoding="UTF-8" standalone="no"?>
<!DOCTYPE svg PUBLIC "-//W3C//DTD SVG 1.1//EN"
 "http://www.w3.org/Graphics/SVG/1.1/DTD/svg11.dtd">
<!-- Generated by graphviz version 2.40.1 (20161225.0304)
 -->
<!-- Title: sys::basic_idirtree&lt; FilePred, DirPred &gt; Pages: 1 -->
<svg width="118pt" height="162pt"
 viewBox="0.00 0.00 118.00 162.00" xmlns="http://www.w3.org/2000/svg" xmlns:xlink="http://www.w3.org/1999/xlink">
<g id="graph0" class="graph" transform="scale(1 1) rotate(0) translate(4 158)">
<title>sys::basic_idirtree&lt; FilePred, DirPred &gt;</title>
<polygon fill="#ffffff" stroke="transparent" points="-4,4 -4,-158 114,-158 114,4 -4,4"/>
<!-- Node0 -->
<g id="node1" class="node">
<title>Node0</title>
<polygon fill="#bfbfbf" stroke="#000000" points="0,-.5 0,-30.5 110,-30.5 110,-.5 0,-.5"/>
<text text-anchor="start" x="8" y="-18.5" font-family="Helvetica,sans-Serif" font-size="10.00" fill="#000000">sys::basic_idirtree</text>
<text text-anchor="middle" x="55" y="-7.5" font-family="Helvetica,sans-Serif" font-size="10.00" fill="#000000">&lt; FilePred, DirPred &gt;</text>
</g>
<!-- Node1 -->
<g id="node2" class="node">
<title>Node1</title>
<g id="a_node2"><a xlink:href="classsys_1_1basic__idirectory.html" target="_top" xlink:title="Directory entry input stream. ">
<polygon fill="#ffffff" stroke="#000000" points="1.5,-67.5 1.5,-97.5 108.5,-97.5 108.5,-67.5 1.5,-67.5"/>
<text text-anchor="start" x="9.5" y="-85.5" font-family="Helvetica,sans-Serif" font-size="10.00" fill="#000000">sys::basic_idirectory</text>
<text text-anchor="middle" x="55" y="-74.5" font-family="Helvetica,sans-Serif" font-size="10.00" fill="#000000">&lt; FilePred &gt;</text>
</a>
</g>
</g>
<!-- Node1&#45;&gt;Node0 -->
<g id="edge1" class="edge">
<title>Node1&#45;&gt;Node0</title>
<path fill="none" stroke="#191970" d="M55,-57.0249C55,-48.128 55,-38.4287 55,-30.6432"/>
<polygon fill="#191970" stroke="#191970" points="51.5001,-57.2966 55,-67.2967 58.5001,-57.2967 51.5001,-57.2966"/>
</g>
<!-- Node2 -->
<g id="node3" class="node">
<title>Node2</title>
<g id="a_node3"><a xlink:href="classsys_1_1dirstream.html" target="_top" xlink:title="Base class for all directory streams. ">
<polygon fill="#ffffff" stroke="#000000" points="15.5,-134.5 15.5,-153.5 94.5,-153.5 94.5,-134.5 15.5,-134.5"/>
<text text-anchor="middle" x="55" y="-141.5" font-family="Helvetica,sans-Serif" font-size="10.00" fill="#000000">sys::dirstream</text>
</a>
</g>
</g>
<!-- Node2&#45;&gt;Node1 -->
<g id="edge2" class="edge">
<title>Node2&#45;&gt;Node1</title>
<path fill="none" stroke="#191970" d="M55,-124.3693C55,-115.681 55,-105.6241 55,-97.5446"/>
<polygon fill="#191970" stroke="#191970" points="51.5001,-124.3906 55,-134.3906 58.5001,-124.3907 51.5001,-124.3906"/>
</g>
</g>
</svg>
