<?xml version="1.0" encoding="UTF-8" standalone="no"?>
<!DOCTYPE svg PUBLIC "-//W3C//DTD SVG 1.1//EN"
 "http://www.w3.org/Graphics/SVG/1.1/DTD/svg11.dtd">
<!-- Generated by graphviz version 2.40.1 (20161225.0304)
 -->
<!-- Title: sys::fildes Pages: 1 -->
<svg width="178pt" height="84pt"
 viewBox="0.00 0.00 177.50 84.00" xmlns="http://www.w3.org/2000/svg" xmlns:xlink="http://www.w3.org/1999/xlink">
<g id="graph0" class="graph" transform="scale(1 1) rotate(0) translate(4 80)">
<title>sys::fildes</title>
<polygon fill="#ffffff" stroke="transparent" points="-4,4 -4,-80 173.5,-80 173.5,4 -4,4"/>
<!-- Node0 -->
<g id="node1" class="node">
<title>Node0</title>
<polygon fill="#bfbfbf" stroke="#000000" points="57.5,-56.5 57.5,-75.5 119.5,-75.5 119.5,-56.5 57.5,-56.5"/>
<text text-anchor="middle" x="88.5" y="-63.5" font-family="Helvetica,sans-Serif" font-size="10.00" fill="#000000">sys::fildes</text>
</g>
<!-- Node1 -->
<g id="node2" class="node">
<title>Node1</title>
<g id="a_node2"><a xlink:href="classsys_1_1file__mutex.html" target="_top" xlink:title="File&#45;based mutex. ">
<polygon fill="#ffffff" stroke="#000000" points="0,-.5 0,-19.5 83,-19.5 83,-.5 0,-.5"/>
<text text-anchor="middle" x="41.5" y="-7.5" font-family="Helvetica,sans-Serif" font-size="10.00" fill="#000000">sys::file_mutex</text>
</a>
</g>
</g>
<!-- Node0&#45;&gt;Node1 -->
<g id="edge1" class="edge">
<title>Node0&#45;&gt;Node1</title>
<path fill="none" stroke="#191970" d="M73.8128,-48.5004C65.8204,-38.9775 56.2375,-27.5596 49.593,-19.6427"/>
<polygon fill="#191970" stroke="#191970" points="71.2036,-50.8358 80.3132,-56.2455 76.5654,-46.3357 71.2036,-50.8358"/>
</g>
<!-- Node2 -->
<g id="node3" class="node">
<title>Node2</title>
<g id="a_node3"><a xlink:href="classsys_1_1socket.html" target="_top" xlink:title="Socket wrapper. ">
<polygon fill="#ffffff" stroke="#000000" points="101.5,-.5 101.5,-19.5 169.5,-19.5 169.5,-.5 101.5,-.5"/>
<text text-anchor="middle" x="135.5" y="-7.5" font-family="Helvetica,sans-Serif" font-size="10.00" fill="#000000">sys::socket</text>
</a>
</g>
</g>
<!-- Node0&#45;&gt;Node2 -->
<g id="edge2" class="edge">
<title>Node0&#45;&gt;Node2</title>
<path fill="none" stroke="#191970" d="M103.1872,-48.5004C111.1796,-38.9775 120.7625,-27.5596 127.407,-19.6427"/>
<polygon fill="#191970" stroke="#191970" points="100.4346,-46.3357 96.6868,-56.2455 105.7964,-50.8358 100.4346,-46.3357"/>
</g>
</g>
</svg>
