<?xml version="1.0" encoding="UTF-8" standalone="no"?>
<!DOCTYPE svg PUBLIC "-//W3C//DTD SVG 1.1//EN"
 "http://www.w3.org/Graphics/SVG/1.1/DTD/svg11.dtd">
<!-- Generated by graphviz version 2.40.1 (20161225.0304)
 -->
<!-- Title: sys::basic_idirectory&lt; FilePred &gt; Pages: 1 -->
<svg width="226pt" height="162pt"
 viewBox="0.00 0.00 226.00 162.00" xmlns="http://www.w3.org/2000/svg" xmlns:xlink="http://www.w3.org/1999/xlink">
<g id="graph0" class="graph" transform="scale(1 1) rotate(0) translate(4 158)">
<title>sys::basic_idirectory&lt; FilePred &gt;</title>
<!-- Node0 -->
<g id="node1" class="node">
<title>Node0</title>
<polygon fill="#bfbfbf" stroke="#000000" points="57.5,-67.5 57.5,-97.5 164.5,-97.5 164.5,-67.5 57.5,-67.5"/>
<text text-anchor="start" x="65.5" y="-85.5" font-family="Helvetica,sans-Serif" font-size="10.00" fill="#000000">sys::basic_idirectory</text>
<text text-anchor="middle" x="111" y="-74.5" font-family="Helvetica,sans-Serif" font-size="10.00" fill="#000000">&lt; FilePred &gt;</text>
</g>
<!-- Node2 -->
<g id="node3" class="node">
<title>Node2</title>
<g id="a_node3"><a xlink:href="classsys_1_1basic__directory.html" target="_top" xlink:title="Directory entry input/output stream. ">
<polygon fill="none" stroke="#000000" points="0,-.5 0,-30.5 104,-30.5 104,-.5 0,-.5"/>
<text text-anchor="start" x="8" y="-18.5" font-family="Helvetica,sans-Serif" font-size="10.00" fill="#000000">sys::basic_directory</text>
<text text-anchor="middle" x="52" y="-7.5" font-family="Helvetica,sans-Serif" font-size="10.00" fill="#000000">&lt; FilePred &gt;</text>
</a>
</g>
</g>
<!-- Node0&#45;&gt;Node2 -->
<g id="edge2" class="edge">
<title>Node0&#45;&gt;Node2</title>
<path fill="none" stroke="#191970" d="M90.8682,-59.6385C82.4381,-50.0653 72.869,-39.1987 65.335,-30.6432"/>
<polygon fill="#191970" stroke="#191970" points="88.3764,-62.1048 97.612,-67.2967 93.6299,-57.4786 88.3764,-62.1048"/>
</g>
<!-- Node3 -->
<g id="node4" class="node">
<title>Node3</title>
<g id="a_node4"><a xlink:href="classsys_1_1basic__idirtree.html" target="_top" xlink:title="Recursive directory entry input stream. ">
<polygon fill="none" stroke="#000000" points="122,-.5 122,-30.5 218,-30.5 218,-.5 122,-.5"/>
<text text-anchor="start" x="130" y="-18.5" font-family="Helvetica,sans-Serif" font-size="10.00" fill="#000000">sys::basic_idirtree</text>
<text text-anchor="middle" x="170" y="-7.5" font-family="Helvetica,sans-Serif" font-size="10.00" fill="#000000">&lt; FilePred &gt;</text>
</a>
</g>
</g>
<!-- Node0&#45;&gt;Node3 -->
<g id="edge3" class="edge">
<title>Node0&#45;&gt;Node3</title>
<path fill="none" stroke="#191970" d="M131.1318,-59.6385C139.5619,-50.0653 149.131,-39.1987 156.665,-30.6432"/>
<polygon fill="#191970" stroke="#191970" points="128.3701,-57.4786 124.388,-67.2967 133.6236,-62.1048 128.3701,-57.4786"/>
</g>
<!-- Node1 -->
<g id="node2" class="node">
<title>Node1</title>
<g id="a_node2"><a xlink:href="classsys_1_1dirstream.html" target="_top" xlink:title="Base class for all directory streams. ">
<polygon fill="none" stroke="#000000" points="71.5,-134.5 71.5,-153.5 150.5,-153.5 150.5,-134.5 71.5,-134.5"/>
<text text-anchor="middle" x="111" y="-141.5" font-family="Helvetica,sans-Serif" font-size="10.00" fill="#000000">sys::dirstream</text>
</a>
</g>
</g>
<!-- Node1&#45;&gt;Node0 -->
<g id="edge1" class="edge">
<title>Node1&#45;&gt;Node0</title>
<path fill="none" stroke="#191970" d="M111,-124.3693C111,-115.681 111,-105.6241 111,-97.5446"/>
<polygon fill="#191970" stroke="#191970" points="107.5001,-124.3906 111,-134.3906 114.5001,-124.3907 107.5001,-124.3906"/>
</g>
</g>
</svg>
