<?xml version="1.0" encoding="UTF-8" standalone="no"?>
<!DOCTYPE svg PUBLIC "-//W3C//DTD SVG 1.1//EN"
 "http://www.w3.org/Graphics/SVG/1.1/DTD/svg11.dtd">
<!-- Generated by graphviz version 2.40.1 (20161225.0304)
 -->
<!-- Title: sys::basic_packetbuf&lt; Ch, Tr &gt; Pages: 1 -->
<svg width="426pt" height="186pt"
 viewBox="0.00 0.00 426.00 186.00" xmlns="http://www.w3.org/2000/svg" xmlns:xlink="http://www.w3.org/1999/xlink">
<g id="graph0" class="graph" transform="scale(1 1) rotate(0) translate(4 182)">
<title>sys::basic_packetbuf&lt; Ch, Tr &gt;</title>
<polygon fill="#ffffff" stroke="transparent" points="-4,4 -4,-182 422,-182 422,4 -4,4"/>
<!-- Node0 -->
<g id="node1" class="node">
<title>Node0</title>
<polygon fill="#bfbfbf" stroke="#000000" points="144,-73.5 144,-103.5 254,-103.5 254,-73.5 144,-73.5"/>
<text text-anchor="start" x="152" y="-91.5" font-family="Helvetica,sans-Serif" font-size="10.00" fill="#000000">sys::basic_packetbuf</text>
<text text-anchor="middle" x="199" y="-80.5" font-family="Helvetica,sans-Serif" font-size="10.00" fill="#000000">&lt; Ch, Tr &gt;</text>
</g>
<!-- Node2 -->
<g id="node3" class="node">
<title>Node2</title>
<g id="a_node3"><a xlink:href="classsys_1_1basic__fildesbuf.html" target="_top" xlink:title="basic_fildesbuf\&lt; Ch,\l Tr, fd_type \&gt;">
<polygon fill="#ffffff" stroke="#000000" points="300.5,-147.5 300.5,-177.5 407.5,-177.5 407.5,-147.5 300.5,-147.5"/>
<text text-anchor="start" x="308.5" y="-165.5" font-family="Helvetica,sans-Serif" font-size="10.00" fill="#000000">basic_fildesbuf&lt; Ch,</text>
<text text-anchor="middle" x="354" y="-154.5" font-family="Helvetica,sans-Serif" font-size="10.00" fill="#000000"> Tr, fd_type &gt;</text>
</a>
</g>
</g>
<!-- Node0&#45;&gt;Node2 -->
<g id="edge2" class="edge">
<title>Node0&#45;&gt;Node2</title>
<path fill="none" stroke="#191970" d="M232.917,-108.6529C249.7822,-118.2804 270.6502,-129.6118 290,-138.5 296.7936,-141.6206 304.1194,-144.6587 311.3041,-147.4661"/>
<polygon fill="#191970" stroke="#191970" points="234.4053,-105.4709 223.9942,-103.506 230.9076,-111.5345 234.4053,-105.4709"/>
</g>
<!-- Node3 -->
<g id="node4" class="node">
<title>Node3</title>
<g id="a_node4"><a xlink:href="classsys_1_1basic__fildesbuf.html" target="_top" xlink:title="Stream buffer that writes and reads from file descriptor. ">
<polygon fill="#ffffff" stroke="#000000" points="302,-98.5 302,-128.5 406,-128.5 406,-98.5 302,-98.5"/>
<text text-anchor="start" x="310" y="-116.5" font-family="Helvetica,sans-Serif" font-size="10.00" fill="#000000">sys::basic_fildesbuf</text>
<text text-anchor="middle" x="354" y="-105.5" font-family="Helvetica,sans-Serif" font-size="10.00" fill="#000000">&lt; Ch, Tr &gt;</text>
</a>
</g>
</g>
<!-- Node0&#45;&gt;Node3 -->
<g id="edge3" class="edge">
<title>Node0&#45;&gt;Node3</title>
<path fill="none" stroke="#191970" d="M264.09,-98.9984C276.7208,-101.0356 289.8031,-103.1457 301.9476,-105.1045"/>
<polygon fill="#191970" stroke="#191970" points="264.5134,-95.5215 254.0836,-97.3845 263.3987,-102.4322 264.5134,-95.5215"/>
</g>
<!-- Node4 -->
<g id="node5" class="node">
<title>Node4</title>
<g id="a_node5"><a xlink:href="classsys_1_1basic__shmembuf.html" target="_top" xlink:title="Shared memory stream buffer with synchronisation via process_semaphore. ">
<polygon fill="#ffffff" stroke="#000000" points="297.5,-49.5 297.5,-79.5 410.5,-79.5 410.5,-49.5 297.5,-49.5"/>
<text text-anchor="start" x="305.5" y="-67.5" font-family="Helvetica,sans-Serif" font-size="10.00" fill="#000000">sys::basic_shmembuf</text>
<text text-anchor="middle" x="354" y="-56.5" font-family="Helvetica,sans-Serif" font-size="10.00" fill="#000000">&lt; Ch, Tr &gt;</text>
</a>
</g>
</g>
<!-- Node0&#45;&gt;Node4 -->
<g id="edge4" class="edge">
<title>Node0&#45;&gt;Node4</title>
<path fill="none" stroke="#191970" d="M264.0837,-78.4225C275.1068,-76.7157 286.4739,-74.9556 297.2617,-73.2853"/>
<polygon fill="#191970" stroke="#191970" points="263.4303,-74.9819 254.0836,-79.9709 264.5015,-81.8995 263.4303,-74.9819"/>
</g>
<!-- Node5 -->
<g id="node6" class="node">
<title>Node5</title>
<g id="a_node6"><a xlink:href="classsys_1_1basic__websocketbuf.html" target="_top" xlink:title="Stream buffer that encodes/decodes its contents using WebSocket protocol. ">
<polygon fill="#ffffff" stroke="#000000" points="290,-.5 290,-30.5 418,-30.5 418,-.5 290,-.5"/>
<text text-anchor="start" x="298" y="-18.5" font-family="Helvetica,sans-Serif" font-size="10.00" fill="#000000">sys::basic_websocketbuf</text>
<text text-anchor="middle" x="354" y="-7.5" font-family="Helvetica,sans-Serif" font-size="10.00" fill="#000000">&lt; Ch, Tr &gt;</text>
</a>
</g>
</g>
<!-- Node0&#45;&gt;Node5 -->
<g id="edge5" class="edge">
<title>Node0&#45;&gt;Node5</title>
<path fill="none" stroke="#191970" d="M233.6876,-68.3932C250.4337,-59.0577 270.9775,-48.1403 290,-39.5 296.8067,-36.4083 304.1393,-33.3847 311.3266,-30.5831"/>
<polygon fill="#191970" stroke="#191970" points="231.8053,-65.4363 224.8088,-73.3924 235.2397,-71.5359 231.8053,-65.4363"/>
</g>
<!-- Node1 -->
<g id="node2" class="node">
<title>Node1</title>
<g id="a_node2"><a doxygen="/home/igankevich/repos/dev/specs/build/unistdx/build/std.tag.xml:http://en.cppreference.com/w/" xlink:href="http://en.cppreference.com/w/cpp/io/basic_streambuf.html" xlink:title="std::basic_streambuf\l\&lt; Ch, Tr \&gt;">
<polygon fill="#ffffff" stroke="#000000" points="0,-73.5 0,-103.5 108,-103.5 108,-73.5 0,-73.5"/>
<text text-anchor="start" x="8" y="-91.5" font-family="Helvetica,sans-Serif" font-size="10.00" fill="#000000">std::basic_streambuf</text>
<text text-anchor="middle" x="54" y="-80.5" font-family="Helvetica,sans-Serif" font-size="10.00" fill="#000000">&lt; Ch, Tr &gt;</text>
</a>
</g>
</g>
<!-- Node1&#45;&gt;Node0 -->
<g id="edge1" class="edge">
<title>Node1&#45;&gt;Node0</title>
<path fill="none" stroke="#191970" d="M118.5738,-88.5C126.9944,-88.5 135.5593,-88.5 143.8069,-88.5"/>
<polygon fill="#191970" stroke="#191970" points="118.4052,-85.0001 108.4052,-88.5 118.4052,-92.0001 118.4052,-85.0001"/>
</g>
</g>
</svg>
