<?xml version="1.0" encoding="UTF-8" standalone="no"?>
<!DOCTYPE svg PUBLIC "-//W3C//DTD SVG 1.1//EN"
 "http://www.w3.org/Graphics/SVG/1.1/DTD/svg11.dtd">
<!-- Generated by graphviz version 2.40.1 (20161225.0304)
 -->
<!-- Title: sys::ifaddr_message_header Pages: 1 -->
<svg width="115pt" height="151pt"
 viewBox="0.00 0.00 115.00 151.00" xmlns="http://www.w3.org/2000/svg" xmlns:xlink="http://www.w3.org/1999/xlink">
<g id="graph0" class="graph" transform="scale(1 1) rotate(0) translate(4 147)">
<title>sys::ifaddr_message_header</title>
<!-- Node0 -->
<g id="node1" class="node">
<title>Node0</title>
<polygon fill="#bfbfbf" stroke="#000000" points="0,-.5 0,-30.5 107,-30.5 107,-.5 0,-.5"/>
<text text-anchor="start" x="8" y="-18.5" font-family="Helvetica,sans-Serif" font-size="10.00" fill="#000000">sys::ifaddr_message</text>
<text text-anchor="middle" x="53.5" y="-7.5" font-family="Helvetica,sans-Serif" font-size="10.00" fill="#000000">_header</text>
</g>
<!-- Node1 -->
<g id="node2" class="node">
<title>Node1</title>
<g id="a_node2"><a xlink:href="classsys_1_1netlink__header.html" target="_top" xlink:title="Netlink message header. ">
<polygon fill="none" stroke="#000000" points="3,-67.5 3,-86.5 104,-86.5 104,-67.5 3,-67.5"/>
<text text-anchor="middle" x="53.5" y="-74.5" font-family="Helvetica,sans-Serif" font-size="10.00" fill="#000000">sys::netlink_header</text>
</a>
</g>
</g>
<!-- Node1&#45;&gt;Node0 -->
<g id="edge1" class="edge">
<title>Node1&#45;&gt;Node0</title>
<path fill="none" stroke="#191970" d="M53.5,-57.3693C53.5,-48.681 53.5,-38.6241 53.5,-30.5446"/>
<polygon fill="#191970" stroke="#191970" points="50.0001,-57.3906 53.5,-67.3906 57.0001,-57.3907 50.0001,-57.3906"/>
</g>
<!-- Node2 -->
<g id="node3" class="node">
<title>Node2</title>
<polygon fill="none" stroke="#bfbfbf" points="25.5,-123.5 25.5,-142.5 81.5,-142.5 81.5,-123.5 25.5,-123.5"/>
<text text-anchor="middle" x="53.5" y="-130.5" font-family="Helvetica,sans-Serif" font-size="10.00" fill="#000000">nlmsghdr</text>
</g>
<!-- Node2&#45;&gt;Node1 -->
<g id="edge2" class="edge">
<title>Node2&#45;&gt;Node1</title>
<path fill="none" stroke="#191970" d="M53.5,-113.1575C53.5,-104.155 53.5,-93.9199 53.5,-86.6427"/>
<polygon fill="#191970" stroke="#191970" points="50.0001,-113.2455 53.5,-123.2455 57.0001,-113.2456 50.0001,-113.2455"/>
</g>
</g>
</svg>
