<?xml version="1.0" encoding="UTF-8" standalone="no"?>
<!DOCTYPE svg PUBLIC "-//W3C//DTD SVG 1.1//EN"
 "http://www.w3.org/Graphics/SVG/1.1/DTD/svg11.dtd">
<!-- Generated by graphviz version 2.40.1 (20161225.0304)
 -->
<!-- Title: sys::posix_semaphore Pages: 1 -->
<svg width="272pt" height="84pt"
 viewBox="0.00 0.00 271.50 84.00" xmlns="http://www.w3.org/2000/svg" xmlns:xlink="http://www.w3.org/1999/xlink">
<g id="graph0" class="graph" transform="scale(1 1) rotate(0) translate(4 80)">
<title>sys::posix_semaphore</title>
<!-- Node0 -->
<g id="node1" class="node">
<title>Node0</title>
<polygon fill="#bfbfbf" stroke="#000000" points="75.5,-56.5 75.5,-75.5 190.5,-75.5 190.5,-56.5 75.5,-56.5"/>
<text text-anchor="middle" x="133" y="-63.5" font-family="Helvetica,sans-Serif" font-size="10.00" fill="#000000">sys::posix_semaphore</text>
</g>
<!-- Node1 -->
<g id="node2" class="node">
<title>Node1</title>
<g id="a_node2"><a xlink:href="classsys_1_1process__semaphore.html" target="_top" xlink:title="Process semaphore. ">
<polygon fill="none" stroke="#000000" points="0,-.5 0,-19.5 126,-19.5 126,-.5 0,-.5"/>
<text text-anchor="middle" x="63" y="-7.5" font-family="Helvetica,sans-Serif" font-size="10.00" fill="#000000">sys::process_semaphore</text>
</a>
</g>
</g>
<!-- Node0&#45;&gt;Node1 -->
<g id="edge1" class="edge">
<title>Node0&#45;&gt;Node1</title>
<path fill="none" stroke="#191970" d="M112.91,-49.928C100.6747,-40.1397 85.4493,-27.9595 75.0533,-19.6427"/>
<polygon fill="#191970" stroke="#191970" points="110.8118,-52.7316 120.8069,-56.2455 115.1847,-47.2655 110.8118,-52.7316"/>
</g>
<!-- Node2 -->
<g id="node3" class="node">
<title>Node2</title>
<g id="a_node3"><a xlink:href="classsys_1_1thread__semaphore.html" target="_top" xlink:title="Thread semaphore. ">
<polygon fill="none" stroke="#000000" points="144.5,-.5 144.5,-19.5 263.5,-19.5 263.5,-.5 144.5,-.5"/>
<text text-anchor="middle" x="204" y="-7.5" font-family="Helvetica,sans-Serif" font-size="10.00" fill="#000000">sys::thread_semaphore</text>
</a>
</g>
</g>
<!-- Node0&#45;&gt;Node2 -->
<g id="edge2" class="edge">
<title>Node0&#45;&gt;Node2</title>
<path fill="none" stroke="#191970" d="M153.377,-49.928C165.7871,-40.1397 181.23,-27.9595 191.7745,-19.6427"/>
<polygon fill="#191970" stroke="#191970" points="151.0514,-47.3046 145.3673,-56.2455 155.3864,-52.8007 151.0514,-47.3046"/>
</g>
</g>
</svg>
