<?xml version="1.0" encoding="UTF-8" standalone="no"?>
<!DOCTYPE svg PUBLIC "-//W3C//DTD SVG 1.1//EN"
 "http://www.w3.org/Graphics/SVG/1.1/DTD/svg11.dtd">
<!-- Generated by graphviz version 2.40.1 (20161225.0304)
 -->
<!-- Title: sys::basic_shmembuf&lt; Ch, Tr &gt; Pages: 1 -->
<svg width="121pt" height="173pt"
 viewBox="0.00 0.00 121.00 173.00" xmlns="http://www.w3.org/2000/svg" xmlns:xlink="http://www.w3.org/1999/xlink">
<g id="graph0" class="graph" transform="scale(1 1) rotate(0) translate(4 169)">
<title>sys::basic_shmembuf&lt; Ch, Tr &gt;</title>
<!-- Node0 -->
<g id="node1" class="node">
<title>Node0</title>
<polygon fill="#bfbfbf" stroke="#000000" points="0,-.5 0,-30.5 113,-30.5 113,-.5 0,-.5"/>
<text text-anchor="start" x="8" y="-18.5" font-family="Helvetica,sans-Serif" font-size="10.00" fill="#000000">sys::basic_shmembuf</text>
<text text-anchor="middle" x="56.5" y="-7.5" font-family="Helvetica,sans-Serif" font-size="10.00" fill="#000000">&lt; Ch, Tr &gt;</text>
</g>
<!-- Node1 -->
<g id="node2" class="node">
<title>Node1</title>
<g id="a_node2"><a xlink:href="classsys_1_1basic__packetbuf.html" target="_top" xlink:title="Stream buffer that can reads/writes data in packets with arbitrary header. ">
<polygon fill="none" stroke="#000000" points="1.5,-67.5 1.5,-97.5 111.5,-97.5 111.5,-67.5 1.5,-67.5"/>
<text text-anchor="start" x="9.5" y="-85.5" font-family="Helvetica,sans-Serif" font-size="10.00" fill="#000000">sys::basic_packetbuf</text>
<text text-anchor="middle" x="56.5" y="-74.5" font-family="Helvetica,sans-Serif" font-size="10.00" fill="#000000">&lt; Ch, Tr &gt;</text>
</a>
</g>
</g>
<!-- Node1&#45;&gt;Node0 -->
<g id="edge1" class="edge">
<title>Node1&#45;&gt;Node0</title>
<path fill="none" stroke="#191970" d="M56.5,-57.0249C56.5,-48.128 56.5,-38.4287 56.5,-30.6432"/>
<polygon fill="#191970" stroke="#191970" points="53.0001,-57.2966 56.5,-67.2967 60.0001,-57.2967 53.0001,-57.2966"/>
</g>
<!-- Node2 -->
<g id="node3" class="node">
<title>Node2</title>
<g id="a_node3"><a doxygen="/home/igankevich/repos/dev/specs/build/unistdx/build/std.tag.xml:http://en.cppreference.com/w/" xlink:href="http://en.cppreference.com/w/cpp/io/basic_streambuf.html" xlink:title="std::basic_streambuf\l\&lt; Ch, Tr \&gt;">
<polygon fill="none" stroke="#000000" points="2.5,-134.5 2.5,-164.5 110.5,-164.5 110.5,-134.5 2.5,-134.5"/>
<text text-anchor="start" x="10.5" y="-152.5" font-family="Helvetica,sans-Serif" font-size="10.00" fill="#000000">std::basic_streambuf</text>
<text text-anchor="middle" x="56.5" y="-141.5" font-family="Helvetica,sans-Serif" font-size="10.00" fill="#000000">&lt; Ch, Tr &gt;</text>
</a>
</g>
</g>
<!-- Node2&#45;&gt;Node1 -->
<g id="edge2" class="edge">
<title>Node2&#45;&gt;Node1</title>
<path fill="none" stroke="#191970" d="M56.5,-124.0249C56.5,-115.128 56.5,-105.4287 56.5,-97.6432"/>
<polygon fill="#191970" stroke="#191970" points="53.0001,-124.2966 56.5,-134.2967 60.0001,-124.2967 53.0001,-124.2966"/>
</g>
</g>
</svg>
