<?xml version="1.0" encoding="UTF-8" standalone="no"?>
<!DOCTYPE svg PUBLIC "-//W3C//DTD SVG 1.1//EN"
 "http://www.w3.org/Graphics/SVG/1.1/DTD/svg11.dtd">
<!-- Generated by graphviz version 2.40.1 (20161225.0304)
 -->
<!-- Title: sys::basic_istream_iterator&lt; Stream, Value &gt; Pages: 1 -->
<svg width="139pt" height="117pt"
 viewBox="0.00 0.00 139.00 117.00" xmlns="http://www.w3.org/2000/svg" xmlns:xlink="http://www.w3.org/1999/xlink">
<g id="graph0" class="graph" transform="scale(1 1) rotate(0) translate(4 113)">
<title>sys::basic_istream_iterator&lt; Stream, Value &gt;</title>
<polygon fill="#ffffff" stroke="transparent" points="-4,4 -4,-113 135,-113 135,4 -4,4"/>
<!-- Node0 -->
<g id="node1" class="node">
<title>Node0</title>
<polygon fill="#bfbfbf" stroke="#000000" points="0,-.5 0,-30.5 131,-30.5 131,-.5 0,-.5"/>
<text text-anchor="start" x="8" y="-18.5" font-family="Helvetica,sans-Serif" font-size="10.00" fill="#000000">sys::basic_istream</text>
<text text-anchor="middle" x="65.5" y="-7.5" font-family="Helvetica,sans-Serif" font-size="10.00" fill="#000000">_iterator&lt; Stream, Value &gt;</text>
</g>
<!-- Node1 -->
<g id="node2" class="node">
<title>Node1</title>
<g id="a_node2"><a doxygen="/home/igankevich/repos/dev/specs/build/unistdx/build/std.tag.xml:http://en.cppreference.com/w/" xlink:href="http://en.cppreference.com/w/cpp/iterator/iterator.html" xlink:title="std::iterator\&lt; std\l::input_iterator_tag,\l Value \&gt;">
<polygon fill="#ffffff" stroke="#000000" points="15,-67.5 15,-108.5 116,-108.5 116,-67.5 15,-67.5"/>
<text text-anchor="start" x="23" y="-96.5" font-family="Helvetica,sans-Serif" font-size="10.00" fill="#000000">std::iterator&lt; std</text>
<text text-anchor="start" x="23" y="-85.5" font-family="Helvetica,sans-Serif" font-size="10.00" fill="#000000">::input_iterator_tag,</text>
<text text-anchor="middle" x="65.5" y="-74.5" font-family="Helvetica,sans-Serif" font-size="10.00" fill="#000000"> Value &gt;</text>
</a>
</g>
</g>
<!-- Node1&#45;&gt;Node0 -->
<g id="edge1" class="edge">
<title>Node1&#45;&gt;Node0</title>
<path fill="none" stroke="#191970" d="M65.5,-57.3279C65.5,-48.0871 65.5,-38.3508 65.5,-30.5991"/>
<polygon fill="#191970" stroke="#191970" points="62.0001,-57.4183 65.5,-67.4183 69.0001,-57.4184 62.0001,-57.4183"/>
</g>
</g>
</svg>
