<?xml version="1.0" encoding="UTF-8" standalone="no"?>
<!DOCTYPE svg PUBLIC "-//W3C//DTD SVG 1.1//EN"
 "http://www.w3.org/Graphics/SVG/1.1/DTD/svg11.dtd">
<!-- Generated by graphviz version 2.40.1 (20161225.0304)
 -->
<!-- Title: sys::sha1 Pages: 1 -->
<svg width="168pt" height="106pt"
 viewBox="0.00 0.00 168.00 106.00" xmlns="http://www.w3.org/2000/svg" xmlns:xlink="http://www.w3.org/1999/xlink">
<g id="graph0" class="graph" transform="scale(1 1) rotate(0) translate(4 102)">
<title>sys::sha1</title>
<polygon fill="#ffffff" stroke="transparent" points="-4,4 -4,-102 164,-102 164,4 -4,4"/>
<!-- Node1 -->
<g id="node1" class="node">
<title>Node1</title>
<polygon fill="#bfbfbf" stroke="#000000" points="50,-.5 50,-19.5 109,-19.5 109,-.5 50,-.5"/>
<text text-anchor="middle" x="79.5" y="-7.5" font-family="Helvetica,sans-Serif" font-size="10.00" fill="#000000">sys::sha1</text>
</g>
<!-- Node2 -->
<g id="node2" class="node">
<title>Node2</title>
<g id="a_node2"><a doxygen="/home/igankevich/repos/dev/specs/build/unistdx/build/std.tag.xml:http://en.cppreference.com/w/" xlink:href="http://en.cppreference.com/w/cpp/types/integer.html" xlink:title="std::uint32_t">
<polygon fill="#ffffff" stroke="#000000" points="0,-78.5 0,-97.5 71,-97.5 71,-78.5 0,-78.5"/>
<text text-anchor="middle" x="35.5" y="-85.5" font-family="Helvetica,sans-Serif" font-size="10.00" fill="#000000">std::uint32_t</text>
</a>
</g>
</g>
<!-- Node2&#45;&gt;Node1 -->
<g id="edge1" class="edge">
<title>Node2&#45;&gt;Node1</title>
<path fill="none" stroke="#9a32cd" stroke-dasharray="5,2" d="M45.8621,-69.6308C54.6958,-53.9711 67.0448,-32.0796 74.0606,-19.6426"/>
<polygon fill="#9a32cd" stroke="#9a32cd" points="42.7601,-68.0062 40.8953,-78.4357 48.857,-71.4455 42.7601,-68.0062"/>
<text text-anchor="middle" x="81" y="-52" font-family="Helvetica,sans-Serif" font-size="10.00" fill="#000000"> _digest</text>
<text text-anchor="middle" x="81" y="-41" font-family="Helvetica,sans-Serif" font-size="10.00" fill="#000000">_words</text>
</g>
<!-- Node3 -->
<g id="node3" class="node">
<title>Node3</title>
<g id="a_node3"><a doxygen="/home/igankevich/repos/dev/specs/build/unistdx/build/std.tag.xml:http://en.cppreference.com/w/" xlink:href="http://en.cppreference.com/w/cpp/types/integer.html" xlink:title="std::uint64_t">
<polygon fill="#ffffff" stroke="#000000" points="89,-78.5 89,-97.5 160,-97.5 160,-78.5 89,-78.5"/>
<text text-anchor="middle" x="124.5" y="-85.5" font-family="Helvetica,sans-Serif" font-size="10.00" fill="#000000">std::uint64_t</text>
</a>
</g>
</g>
<!-- Node3&#45;&gt;Node1 -->
<g id="edge2" class="edge">
<title>Node3&#45;&gt;Node1</title>
<path fill="none" stroke="#9a32cd" stroke-dasharray="5,2" d="M117.5575,-68.9731C113.7033,-59.3725 108.4807,-47.7309 102.5,-38 98.4813,-31.4614 93.0694,-24.7957 88.5048,-19.6092"/>
<polygon fill="#9a32cd" stroke="#9a32cd" points="114.325,-70.319 121.1736,-78.4028 120.8609,-67.8125 114.325,-70.319"/>
<text text-anchor="middle" x="132.5" y="-46.5" font-family="Helvetica,sans-Serif" font-size="10.00" fill="#000000"> _dwords</text>
</g>
</g>
</svg>
