<?xml version="1.0" encoding="UTF-8" standalone="no"?>
<!DOCTYPE svg PUBLIC "-//W3C//DTD SVG 1.1//EN"
 "http://www.w3.org/Graphics/SVG/1.1/DTD/svg11.dtd">
<!-- Generated by graphviz version 2.40.1 (20161225.0304)
 -->
<!-- Title: Wrappers Pages: 1 -->
<svg width="406pt" height="330pt"
 viewBox="0.00 0.00 406.00 330.00" xmlns="http://www.w3.org/2000/svg" xmlns:xlink="http://www.w3.org/1999/xlink">
<g id="graph0" class="graph" transform="scale(1 1) rotate(0) translate(4 326)">
<title>Wrappers</title>
<!-- Node0 -->
<g id="node1" class="node">
<title>Node0</title>
<polygon fill="#bfbfbf" stroke="#000000" points="144,-122.5 144,-141.5 203,-141.5 203,-122.5 144,-122.5"/>
<text text-anchor="middle" x="173.5" y="-129.5" font-family="Helvetica,sans-Serif" font-size="10.00" fill="#000000">Wrappers</text>
</g>
<!-- Node4 -->
<g id="node2" class="node">
<title>Node4</title>
<g id="a_node2"><a xlink:href="group__ipc.html" target="_top" xlink:title="Resource management and parallel execution. ">
<polygon fill="none" stroke="#000000" points="332.5,-245.5 332.5,-264.5 395.5,-264.5 395.5,-245.5 332.5,-245.5"/>
<text text-anchor="middle" x="364" y="-252.5" font-family="Helvetica,sans-Serif" font-size="10.00" fill="#000000">Processes</text>
</a>
</g>
</g>
<!-- Node0&#45;&gt;Node4 -->
<g id="edge4" class="edge">
<title>Node0&#45;&gt;Node4</title>
<path fill="none" stroke="#ffa500" stroke-dasharray="5,2" d="M175.3195,-141.7184C179.5451,-161.4014 191.9627,-205.9729 221,-228 253.2061,-252.4309 301.014,-256.8701 332.3409,-256.7638"/>
<text text-anchor="start" x="224.5" y="-314" font-family="Helvetica,sans-Serif" font-size="10.00" fill="#000000">sys::basic_status&lt;</text>
<text text-anchor="middle" x="266.5" y="-303" font-family="Helvetica,sans-Serif" font-size="10.00" fill="#000000"> siginfo_type &gt;</text>
<text text-anchor="start" x="224.5" y="-292" font-family="Helvetica,sans-Serif" font-size="10.00" fill="#000000">sys::basic_status&lt;</text>
<text text-anchor="middle" x="266.5" y="-281" font-family="Helvetica,sans-Serif" font-size="10.00" fill="#000000"> wstat_type &gt;</text>
<text text-anchor="middle" x="266.5" y="-270" font-family="Helvetica,sans-Serif" font-size="10.00" fill="#000000">sys::signal_action</text>
<text text-anchor="middle" x="266.5" y="-259" font-family="Helvetica,sans-Serif" font-size="10.00" fill="#000000">sys::sigset_type</text>
</g>
<!-- Node5 -->
<g id="node3" class="node">
<title>Node5</title>
<g id="a_node3"><a xlink:href="group__net.html" target="_top" xlink:title="Network abstractions. ">
<polygon fill="none" stroke="#000000" points="337.5,-156.5 337.5,-175.5 390.5,-175.5 390.5,-156.5 337.5,-156.5"/>
<text text-anchor="middle" x="364" y="-163.5" font-family="Helvetica,sans-Serif" font-size="10.00" fill="#000000">Network</text>
</a>
</g>
</g>
<!-- Node0&#45;&gt;Node5 -->
<g id="edge5" class="edge">
<title>Node0&#45;&gt;Node5</title>
<path fill="none" stroke="#ffa500" stroke-dasharray="5,2" d="M203.0467,-139.9253C208.9693,-141.3835 215.1648,-142.8168 221,-144 261.2496,-152.1612 308.4166,-158.8716 337.2472,-162.6554"/>
<text text-anchor="middle" x="266.5" y="-216" font-family="Helvetica,sans-Serif" font-size="10.00" fill="#000000">sys::endpoint</text>
<text text-anchor="middle" x="266.5" y="-205" font-family="Helvetica,sans-Serif" font-size="10.00" fill="#000000">sys::netlink_header</text>
<text text-anchor="middle" x="266.5" y="-194" font-family="Helvetica,sans-Serif" font-size="10.00" fill="#000000">sys::rtattributes</text>
<text text-anchor="middle" x="266.5" y="-183" font-family="Helvetica,sans-Serif" font-size="10.00" fill="#000000">sys::ifaddr_message</text>
<text text-anchor="start" x="221" y="-172" font-family="Helvetica,sans-Serif" font-size="10.00" fill="#000000">sys::ifaddr_message</text>
<text text-anchor="middle" x="266.5" y="-161" font-family="Helvetica,sans-Serif" font-size="10.00" fill="#000000">_header</text>
</g>
<!-- Node2 -->
<g id="node4" class="node">
<title>Node2</title>
<g id="a_node4"><a xlink:href="group__fs.html" target="_top" xlink:title="File and directory manipulation. ">
<polygon fill="none" stroke="#000000" points="330,-89.5 330,-108.5 398,-108.5 398,-89.5 330,-89.5"/>
<text text-anchor="middle" x="364" y="-96.5" font-family="Helvetica,sans-Serif" font-size="10.00" fill="#000000">File system</text>
</a>
</g>
</g>
<!-- Node0&#45;&gt;Node2 -->
<g id="edge2" class="edge">
<title>Node0&#45;&gt;Node2</title>
<path fill="none" stroke="#ffa500" stroke-dasharray="5,2" d="M183.8583,-122.3508C192.8921,-114.6355 206.7508,-104.4065 221,-100 256.9339,-88.8875 300.4186,-90.5775 329.9322,-93.8088"/>
<text text-anchor="middle" x="266.5" y="-136" font-family="Helvetica,sans-Serif" font-size="10.00" fill="#000000">sys::direntry</text>
<text text-anchor="middle" x="266.5" y="-125" font-family="Helvetica,sans-Serif" font-size="10.00" fill="#000000">sys::file_mode</text>
<text text-anchor="middle" x="266.5" y="-114" font-family="Helvetica,sans-Serif" font-size="10.00" fill="#000000">sys::file_stat</text>
<text text-anchor="middle" x="266.5" y="-103" font-family="Helvetica,sans-Serif" font-size="10.00" fill="#000000">sys::pathentry</text>
</g>
<!-- Node3 -->
<g id="node6" class="node">
<title>Node3</title>
<g id="a_node6"><a xlink:href="group__io.html" target="_top" xlink:title="Input/output handling. ">
<polygon fill="none" stroke="#000000" points="349.5,-.5 349.5,-19.5 378.5,-19.5 378.5,-.5 349.5,-.5"/>
<text text-anchor="middle" x="364" y="-7.5" font-family="Helvetica,sans-Serif" font-size="10.00" fill="#000000">IO</text>
</a>
</g>
</g>
<!-- Node0&#45;&gt;Node3 -->
<g id="edge3" class="edge">
<title>Node0&#45;&gt;Node3</title>
<path fill="none" stroke="#ffa500" stroke-dasharray="5,2" d="M174.4348,-122.3298C177.1317,-100.3008 187.0545,-46.4109 221,-22 260.0376,6.0727 321.4914,-1.3625 349.374,-6.7221"/>
<text text-anchor="middle" x="266.5" y="-80" font-family="Helvetica,sans-Serif" font-size="10.00" fill="#000000">sys::epoll_event</text>
<text text-anchor="middle" x="266.5" y="-69" font-family="Helvetica,sans-Serif" font-size="10.00" fill="#000000">sys::fildes</text>
<text text-anchor="middle" x="266.5" y="-58" font-family="Helvetica,sans-Serif" font-size="10.00" fill="#000000">sys::fildes_pair</text>
<text text-anchor="middle" x="266.5" y="-47" font-family="Helvetica,sans-Serif" font-size="10.00" fill="#000000">sys::pipe</text>
<text text-anchor="middle" x="266.5" y="-36" font-family="Helvetica,sans-Serif" font-size="10.00" fill="#000000">sys::poll_event</text>
<text text-anchor="middle" x="266.5" y="-25" font-family="Helvetica,sans-Serif" font-size="10.00" fill="#000000">sys::two_way_pipe</text>
</g>
<!-- Node1 -->
<g id="node5" class="node">
<title>Node1</title>
<g id="a_node5"><a xlink:href="group__system.html" target="_top" xlink:title="System calls and system structures wrappers. ">
<polygon fill="none" stroke="#000000" points="0,-122.5 0,-141.5 107,-141.5 107,-122.5 0,-122.5"/>
<text text-anchor="middle" x="53.5" y="-129.5" font-family="Helvetica,sans-Serif" font-size="10.00" fill="#000000">System abstractions</text>
</a>
</g>
</g>
<!-- Node1&#45;&gt;Node0 -->
<g id="edge1" class="edge">
<title>Node1&#45;&gt;Node0</title>
<path fill="none" stroke="#000000" d="M117.2646,-132C126.5515,-132 135.7176,-132 143.8684,-132"/>
<polygon fill="#000000" stroke="#000000" points="117.1823,-128.5001 107.1823,-132 117.1823,-135.5001 117.1823,-128.5001"/>
</g>
</g>
</svg>
