<?xml version="1.0" encoding="UTF-8" standalone="no"?>
<!DOCTYPE svg PUBLIC "-//W3C//DTD SVG 1.1//EN"
 "http://www.w3.org/Graphics/SVG/1.1/DTD/svg11.dtd">
<!-- Generated by graphviz version 2.40.1 (20161225.0304)
 -->
<!-- Title: System abstractions Pages: 1 -->
<svg width="219pt" height="218pt"
 viewBox="0.00 0.00 219.00 218.00" xmlns="http://www.w3.org/2000/svg" xmlns:xlink="http://www.w3.org/1999/xlink">
<g id="graph0" class="graph" transform="scale(1 1) rotate(0) translate(4 214)">
<title>System abstractions</title>
<polygon fill="#ffffff" stroke="transparent" points="-4,4 -4,-214 215,-214 215,4 -4,4"/>
<!-- Node5 -->
<g id="node1" class="node">
<title>Node5</title>
<g id="a_node1"><a xlink:href="group__macros.html" target="_top" xlink:title="Macros for system error handling. ">
<polygon fill="#ffffff" stroke="#000000" points="152.5,-190.5 152.5,-209.5 201.5,-209.5 201.5,-190.5 152.5,-190.5"/>
<text text-anchor="middle" x="177" y="-197.5" font-family="Helvetica,sans-Serif" font-size="10.00" fill="#000000">Macros</text>
</a>
</g>
</g>
<!-- Node6 -->
<g id="node2" class="node">
<title>Node6</title>
<g id="a_node2"><a xlink:href="group__wrapper.html" target="_top" xlink:title="Wrappers for system structures. ">
<polygon fill="#ffffff" stroke="#000000" points="147.5,-152.5 147.5,-171.5 206.5,-171.5 206.5,-152.5 147.5,-152.5"/>
<text text-anchor="middle" x="177" y="-159.5" font-family="Helvetica,sans-Serif" font-size="10.00" fill="#000000">Wrappers</text>
</a>
</g>
</g>
<!-- Node1 -->
<g id="node3" class="node">
<title>Node1</title>
<g id="a_node3"><a xlink:href="group__ipc.html" target="_top" xlink:title="Resource management and parallel execution. ">
<polygon fill="#ffffff" stroke="#000000" points="145.5,-114.5 145.5,-133.5 208.5,-133.5 208.5,-114.5 145.5,-114.5"/>
<text text-anchor="middle" x="177" y="-121.5" font-family="Helvetica,sans-Serif" font-size="10.00" fill="#000000">Processes</text>
</a>
</g>
</g>
<!-- Node4 -->
<g id="node4" class="node">
<title>Node4</title>
<g id="a_node4"><a xlink:href="group__net.html" target="_top" xlink:title="Network abstractions. ">
<polygon fill="#ffffff" stroke="#000000" points="150.5,-76.5 150.5,-95.5 203.5,-95.5 203.5,-76.5 150.5,-76.5"/>
<text text-anchor="middle" x="177" y="-83.5" font-family="Helvetica,sans-Serif" font-size="10.00" fill="#000000">Network</text>
</a>
</g>
</g>
<!-- Node2 -->
<g id="node5" class="node">
<title>Node2</title>
<g id="a_node5"><a xlink:href="group__fs.html" target="_top" xlink:title="File and directory manipulation. ">
<polygon fill="#ffffff" stroke="#000000" points="143,-38.5 143,-57.5 211,-57.5 211,-38.5 143,-38.5"/>
<text text-anchor="middle" x="177" y="-45.5" font-family="Helvetica,sans-Serif" font-size="10.00" fill="#000000">File system</text>
</a>
</g>
</g>
<!-- Node0 -->
<g id="node6" class="node">
<title>Node0</title>
<polygon fill="#bfbfbf" stroke="#000000" points="0,-95.5 0,-114.5 107,-114.5 107,-95.5 0,-95.5"/>
<text text-anchor="middle" x="53.5" y="-102.5" font-family="Helvetica,sans-Serif" font-size="10.00" fill="#000000">System abstractions</text>
</g>
<!-- Node0&#45;&gt;Node5 -->
<g id="edge5" class="edge">
<title>Node0&#45;&gt;Node5</title>
<path fill="none" stroke="#000000" d="M71.1324,-121.7725C88.6068,-137.9495 116.5213,-162.6194 143,-181 147.7771,-184.3161 153.1816,-187.5484 158.2529,-190.379"/>
<polygon fill="#000000" stroke="#000000" points="73.1377,-118.8555 63.4448,-114.578 68.3546,-123.9665 73.1377,-118.8555"/>
</g>
<!-- Node0&#45;&gt;Node6 -->
<g id="edge6" class="edge">
<title>Node0&#45;&gt;Node6</title>
<path fill="none" stroke="#000000" d="M83.3076,-118.7574C105.8725,-129.1719 136.2902,-143.2108 156.2614,-152.4284"/>
<polygon fill="#000000" stroke="#000000" points="84.7175,-115.5533 74.1711,-114.5405 81.784,-121.909 84.7175,-115.5533"/>
</g>
<!-- Node0&#45;&gt;Node1 -->
<g id="edge1" class="edge">
<title>Node0&#45;&gt;Node1</title>
<path fill="none" stroke="#000000" d="M117.4194,-114.8337C127.1344,-116.3284 136.7779,-117.812 145.3861,-119.1363"/>
<polygon fill="#000000" stroke="#000000" points="117.7256,-111.3398 107.3096,-113.2784 116.6611,-118.2584 117.7256,-111.3398"/>
</g>
<!-- Node0&#45;&gt;Node4 -->
<g id="edge4" class="edge">
<title>Node0&#45;&gt;Node4</title>
<path fill="none" stroke="#000000" d="M117.5267,-95.1497C129.1689,-93.3586 140.7029,-91.5842 150.4706,-90.0814"/>
<polygon fill="#000000" stroke="#000000" points="116.6611,-91.7416 107.3096,-96.7216 117.7256,-98.6602 116.6611,-91.7416"/>
</g>
<!-- Node0&#45;&gt;Node2 -->
<g id="edge2" class="edge">
<title>Node0&#45;&gt;Node2</title>
<path fill="none" stroke="#000000" d="M83.3076,-91.2426C105.8725,-80.8281 136.2902,-66.7892 156.2614,-57.5716"/>
<polygon fill="#000000" stroke="#000000" points="81.784,-88.091 74.1711,-95.4595 84.7175,-94.4467 81.784,-88.091"/>
</g>
<!-- Node3 -->
<g id="node7" class="node">
<title>Node3</title>
<g id="a_node7"><a xlink:href="group__io.html" target="_top" xlink:title="Input/output handling. ">
<polygon fill="#ffffff" stroke="#000000" points="162.5,-.5 162.5,-19.5 191.5,-19.5 191.5,-.5 162.5,-.5"/>
<text text-anchor="middle" x="177" y="-7.5" font-family="Helvetica,sans-Serif" font-size="10.00" fill="#000000">IO</text>
</a>
</g>
</g>
<!-- Node0&#45;&gt;Node3 -->
<g id="edge3" class="edge">
<title>Node0&#45;&gt;Node3</title>
<path fill="none" stroke="#000000" d="M71.1324,-88.2275C88.6068,-72.0505 116.5213,-47.3806 143,-29 149.1102,-24.7585 156.247,-20.654 162.3999,-17.352"/>
<polygon fill="#000000" stroke="#000000" points="68.3546,-86.0335 63.4448,-95.422 73.1377,-91.1445 68.3546,-86.0335"/>
</g>
</g>
</svg>
