<?xml version="1.0" encoding="UTF-8" standalone="no"?>
<!DOCTYPE svg PUBLIC "-//W3C//DTD SVG 1.1//EN"
 "http://www.w3.org/Graphics/SVG/1.1/DTD/svg11.dtd">
<!-- Generated by graphviz version 2.40.1 (20161225.0304)
 -->
<!-- Title: IO Pages: 1 -->
<svg width="391pt" height="350pt"
 viewBox="0.00 0.00 391.00 350.38" xmlns="http://www.w3.org/2000/svg" xmlns:xlink="http://www.w3.org/1999/xlink">
<g id="graph0" class="graph" transform="scale(1 1) rotate(0) translate(4 346.3846)">
<title>IO</title>
<!-- Node7 -->
<g id="node1" class="node">
<title>Node7</title>
<g id="a_node1"><a xlink:href="group__container.html" target="_top" xlink:title="Classes with container interface. ">
<polygon fill="none" stroke="#000000" points="311,-315.8846 311,-334.8846 375,-334.8846 375,-315.8846 311,-315.8846"/>
<text text-anchor="middle" x="343" y="-322.8846" font-family="Helvetica,sans-Serif" font-size="10.00" fill="#000000">Containers</text>
</a>
</g>
</g>
<!-- Node3 -->
<g id="node2" class="node">
<title>Node3</title>
<g id="a_node2"><a xlink:href="group__stream.html" target="_top" xlink:title="Classes with member input/output operators. ">
<polygon fill="none" stroke="#000000" points="316.5,-248.8846 316.5,-267.8846 369.5,-267.8846 369.5,-248.8846 316.5,-248.8846"/>
<text text-anchor="middle" x="343" y="-255.8846" font-family="Helvetica,sans-Serif" font-size="10.00" fill="#000000">Streams</text>
</a>
</g>
</g>
<!-- Node2 -->
<g id="node3" class="node">
<title>Node2</title>
<g id="a_node3"><a xlink:href="group__wrapper.html" target="_top" xlink:title="Wrappers for system structures. ">
<polygon fill="none" stroke="#000000" points="313.5,-163.8846 313.5,-182.8846 372.5,-182.8846 372.5,-163.8846 313.5,-163.8846"/>
<text text-anchor="middle" x="343" y="-170.8846" font-family="Helvetica,sans-Serif" font-size="10.00" fill="#000000">Wrappers</text>
</a>
</g>
</g>
<!-- Node5 -->
<g id="node4" class="node">
<title>Node5</title>
<g id="a_node4"><a xlink:href="group__streambuf.html" target="_top" xlink:title="Classes with std::streambuf interface. ">
<polygon fill="none" stroke="#000000" points="303,-125.8846 303,-144.8846 383,-144.8846 383,-125.8846 303,-125.8846"/>
<text text-anchor="middle" x="343" y="-132.8846" font-family="Helvetica,sans-Serif" font-size="10.00" fill="#000000">Stream buffers</text>
</a>
</g>
</g>
<!-- Node6 -->
<g id="node5" class="node">
<title>Node6</title>
<g id="a_node5"><a xlink:href="group__semaphore.html" target="_top" xlink:title="Classes with std::condition_variable interface. ">
<polygon fill="none" stroke="#000000" points="307.5,-87.8846 307.5,-106.8846 378.5,-106.8846 378.5,-87.8846 307.5,-87.8846"/>
<text text-anchor="middle" x="343" y="-94.8846" font-family="Helvetica,sans-Serif" font-size="10.00" fill="#000000">Semaphores</text>
</a>
</g>
</g>
<!-- Node4 -->
<g id="node6" class="node">
<title>Node4</title>
<g id="a_node6"><a xlink:href="group__traits.html" target="_top" xlink:title="Traits classes. ">
<polygon fill="none" stroke="#000000" points="322.5,-.8846 322.5,-19.8846 363.5,-19.8846 363.5,-.8846 322.5,-.8846"/>
<text text-anchor="middle" x="343" y="-7.8846" font-family="Helvetica,sans-Serif" font-size="10.00" fill="#000000">Traits</text>
</a>
</g>
</g>
<!-- Node1 -->
<g id="node7" class="node">
<title>Node1</title>
<g id="a_node7"><a xlink:href="group__system.html" target="_top" xlink:title="System calls and system structures wrappers. ">
<polygon fill="none" stroke="#000000" points="0,-142.8846 0,-161.8846 107,-161.8846 107,-142.8846 0,-142.8846"/>
<text text-anchor="middle" x="53.5" y="-149.8846" font-family="Helvetica,sans-Serif" font-size="10.00" fill="#000000">System abstractions</text>
</a>
</g>
</g>
<!-- Node0 -->
<g id="node8" class="node">
<title>Node0</title>
<polygon fill="#bfbfbf" stroke="#000000" points="144,-142.8846 144,-161.8846 173,-161.8846 173,-142.8846 144,-142.8846"/>
<text text-anchor="middle" x="158.5" y="-149.8846" font-family="Helvetica,sans-Serif" font-size="10.00" fill="#000000">IO</text>
</g>
<!-- Node1&#45;&gt;Node0 -->
<g id="edge1" class="edge">
<title>Node1&#45;&gt;Node0</title>
<path fill="none" stroke="#000000" d="M117.2955,-152.3846C127.228,-152.3846 136.5943,-152.3846 143.8795,-152.3846"/>
<polygon fill="#000000" stroke="#000000" points="117.2304,-148.8847 107.2304,-152.3846 117.2303,-155.8847 117.2304,-148.8847"/>
</g>
<!-- Node0&#45;&gt;Node7 -->
<g id="edge7" class="edge">
<title>Node0&#45;&gt;Node7</title>
<path fill="none" stroke="#ffa500" stroke-dasharray="5,2" d="M159.1762,-162.0842C161.4896,-192.3024 170.1287,-283.8914 191,-303.3846 223.0554,-333.3234 276.6764,-333.8701 310.912,-330.4362"/>
<text text-anchor="middle" x="238" y="-334.3846" font-family="Helvetica,sans-Serif" font-size="10.00" fill="#000000">sys::event_poller</text>
</g>
<!-- Node0&#45;&gt;Node3 -->
<g id="edge3" class="edge">
<title>Node0&#45;&gt;Node3</title>
<path fill="none" stroke="#ffa500" stroke-dasharray="5,2" d="M159.1752,-162.0021C160.9776,-179.7812 167.5177,-217.6778 191,-236.3846 209.874,-251.4202 278.0427,-256.1922 316.3654,-257.6977"/>
<text text-anchor="middle" x="238" y="-291.3846" font-family="Helvetica,sans-Serif" font-size="10.00" fill="#000000">sys::basic_ifdstream</text>
<text text-anchor="middle" x="238" y="-280.3846" font-family="Helvetica,sans-Serif" font-size="10.00" fill="#000000">sys::basic_ofdstream</text>
<text text-anchor="middle" x="238" y="-269.3846" font-family="Helvetica,sans-Serif" font-size="10.00" fill="#000000">sys::basic_fdstream</text>
<text text-anchor="middle" x="238" y="-258.3846" font-family="Helvetica,sans-Serif" font-size="10.00" fill="#000000">sys::osysstream</text>
</g>
<!-- Node0&#45;&gt;Node2 -->
<g id="edge2" class="edge">
<title>Node0&#45;&gt;Node2</title>
<path fill="none" stroke="#ffa500" stroke-dasharray="5,2" d="M173.2865,-154.0676C203.6426,-157.5228 273.4926,-165.4732 313.476,-170.0241"/>
<text text-anchor="middle" x="238" y="-224.3846" font-family="Helvetica,sans-Serif" font-size="10.00" fill="#000000">sys::epoll_event</text>
<text text-anchor="middle" x="238" y="-213.3846" font-family="Helvetica,sans-Serif" font-size="10.00" fill="#000000">sys::fildes</text>
<text text-anchor="middle" x="238" y="-202.3846" font-family="Helvetica,sans-Serif" font-size="10.00" fill="#000000">sys::fildes_pair</text>
<text text-anchor="middle" x="238" y="-191.3846" font-family="Helvetica,sans-Serif" font-size="10.00" fill="#000000">sys::pipe</text>
<text text-anchor="middle" x="238" y="-180.3846" font-family="Helvetica,sans-Serif" font-size="10.00" fill="#000000">sys::poll_event</text>
<text text-anchor="middle" x="238" y="-169.3846" font-family="Helvetica,sans-Serif" font-size="10.00" fill="#000000">sys::two_way_pipe</text>
</g>
<!-- Node0&#45;&gt;Node5 -->
<g id="edge5" class="edge">
<title>Node0&#45;&gt;Node5</title>
<path fill="none" stroke="#ffa500" stroke-dasharray="5,2" d="M173.1786,-143.4125C178.5815,-140.5885 184.8795,-137.8308 191,-136.3846 228.1109,-127.6159 271.7554,-128.4277 302.7338,-130.7982"/>
<text text-anchor="middle" x="238" y="-139.3846" font-family="Helvetica,sans-Serif" font-size="10.00" fill="#000000">sys::basic_fildesbuf</text>
</g>
<!-- Node0&#45;&gt;Node6 -->
<g id="edge6" class="edge">
<title>Node0&#45;&gt;Node6</title>
<path fill="none" stroke="#ffa500" stroke-dasharray="5,2" d="M163.8136,-142.7656C169.3412,-133.7769 178.8807,-120.8072 191,-114.3846 227.2494,-95.1743 275.1078,-92.9595 307.3596,-94.2231"/>
<text text-anchor="middle" x="238" y="-117.3846" font-family="Helvetica,sans-Serif" font-size="10.00" fill="#000000">sys::event_poller</text>
</g>
<!-- Node0&#45;&gt;Node4 -->
<g id="edge4" class="edge">
<title>Node0&#45;&gt;Node4</title>
<path fill="none" stroke="#ffa500" stroke-dasharray="5,2" d="M159.5421,-142.5991C162.6493,-115.4135 172.7835,-39.9473 191,-24.3846 228.0739,7.2883 290.3775,.6638 322.4907,-5.5678"/>
<text text-anchor="start" x="191" y="-82.3846" font-family="Helvetica,sans-Serif" font-size="10.00" fill="#000000">sys::fildes_streambuf</text>
<text text-anchor="middle" x="238" y="-71.3846" font-family="Helvetica,sans-Serif" font-size="10.00" fill="#000000">_traits</text>
<text text-anchor="start" x="191" y="-60.3846" font-family="Helvetica,sans-Serif" font-size="10.00" fill="#000000">sys::streambuf_traits</text>
<text text-anchor="middle" x="238" y="-49.3846" font-family="Helvetica,sans-Serif" font-size="10.00" fill="#000000">&lt; fildes &gt;</text>
<text text-anchor="start" x="191" y="-38.3846" font-family="Helvetica,sans-Serif" font-size="10.00" fill="#000000">sys::streambuf_traits</text>
<text text-anchor="middle" x="238" y="-27.3846" font-family="Helvetica,sans-Serif" font-size="10.00" fill="#000000">&lt; fd_type &gt;</text>
</g>
</g>
</svg>
