<?xml version="1.0" encoding="UTF-8" standalone="no"?>
<!DOCTYPE svg PUBLIC "-//W3C//DTD SVG 1.1//EN"
 "http://www.w3.org/Graphics/SVG/1.1/DTD/svg11.dtd">
<!-- Generated by graphviz version 2.40.1 (20161225.0304)
 -->
<!-- Title: Processes Pages: 1 -->
<svg width="441pt" height="357pt"
 viewBox="0.00 0.00 441.00 357.00" xmlns="http://www.w3.org/2000/svg" xmlns:xlink="http://www.w3.org/1999/xlink">
<g id="graph0" class="graph" transform="scale(1 1) rotate(0) translate(4 353)">
<title>Processes</title>
<!-- Node5 -->
<g id="node1" class="node">
<title>Node5</title>
<g id="a_node1"><a xlink:href="group__container.html" target="_top" xlink:title="Classes with container interface. ">
<polygon fill="none" stroke="#000000" points="361,-311.5 361,-330.5 425,-330.5 425,-311.5 361,-311.5"/>
<text text-anchor="middle" x="393" y="-318.5" font-family="Helvetica,sans-Serif" font-size="10.00" fill="#000000">Containers</text>
</a>
</g>
</g>
<!-- Node3 -->
<g id="node2" class="node">
<title>Node3</title>
<g id="a_node2"><a xlink:href="group__stream.html" target="_top" xlink:title="Classes with member input/output operators. ">
<polygon fill="none" stroke="#000000" points="366.5,-273.5 366.5,-292.5 419.5,-292.5 419.5,-273.5 366.5,-273.5"/>
<text text-anchor="middle" x="393" y="-280.5" font-family="Helvetica,sans-Serif" font-size="10.00" fill="#000000">Streams</text>
</a>
</g>
</g>
<!-- Node4 -->
<g id="node3" class="node">
<title>Node4</title>
<g id="a_node3"><a xlink:href="group__wrapper.html" target="_top" xlink:title="Wrappers for system structures. ">
<polygon fill="none" stroke="#000000" points="363.5,-186.5 363.5,-205.5 422.5,-205.5 422.5,-186.5 363.5,-186.5"/>
<text text-anchor="middle" x="393" y="-193.5" font-family="Helvetica,sans-Serif" font-size="10.00" fill="#000000">Wrappers</text>
</a>
</g>
</g>
<!-- Node8 -->
<g id="node4" class="node">
<title>Node8</title>
<g id="a_node4"><a xlink:href="group__guard.html" target="_top" xlink:title="Sentry objects that enforce invariants with RAII. ">
<polygon fill="none" stroke="#000000" points="369,-148.5 369,-167.5 417,-167.5 417,-148.5 369,-148.5"/>
<text text-anchor="middle" x="393" y="-155.5" font-family="Helvetica,sans-Serif" font-size="10.00" fill="#000000">Guards</text>
</a>
</g>
</g>
<!-- Node0 -->
<g id="node5" class="node">
<title>Node0</title>
<polygon fill="#bfbfbf" stroke="#000000" points="144,-150.5 144,-169.5 207,-169.5 207,-150.5 144,-150.5"/>
<text text-anchor="middle" x="175.5" y="-157.5" font-family="Helvetica,sans-Serif" font-size="10.00" fill="#000000">Processes</text>
</g>
<!-- Node0&#45;&gt;Node5 -->
<g id="edge5" class="edge">
<title>Node0&#45;&gt;Node5</title>
<path fill="none" stroke="#ffa500" stroke-dasharray="5,2" d="M177.602,-169.8008C183.9817,-198.6021 203.9764,-282.0182 225,-299 263.4435,-330.0527 323.7815,-329.8233 360.7212,-325.9963"/>
<text text-anchor="middle" x="280" y="-341" font-family="Helvetica,sans-Serif" font-size="10.00" fill="#000000">sys::process_group</text>
<text text-anchor="middle" x="280" y="-330" font-family="Helvetica,sans-Serif" font-size="10.00" fill="#000000">sys::shared_mem</text>
</g>
<!-- Node0&#45;&gt;Node3 -->
<g id="edge3" class="edge">
<title>Node0&#45;&gt;Node3</title>
<path fill="none" stroke="#ffa500" stroke-dasharray="5,2" d="M177.3248,-169.7138C181.6548,-189.8338 194.5569,-236.0172 225,-258 267.0757,-288.3826 330.7036,-288.8055 366.362,-286.1028"/>
<text text-anchor="middle" x="280" y="-290" font-family="Helvetica,sans-Serif" font-size="10.00" fill="#000000">sys::argstream</text>
</g>
<!-- Node0&#45;&gt;Node4 -->
<g id="edge4" class="edge">
<title>Node0&#45;&gt;Node4</title>
<path fill="none" stroke="#ffa500" stroke-dasharray="5,2" d="M207.0893,-168.136C213.0186,-169.527 219.1819,-170.8819 225,-172 273.174,-181.2581 329.7495,-188.6257 363.42,-192.6456"/>
<text text-anchor="start" x="238" y="-246" font-family="Helvetica,sans-Serif" font-size="10.00" fill="#000000">sys::basic_status&lt;</text>
<text text-anchor="middle" x="280" y="-235" font-family="Helvetica,sans-Serif" font-size="10.00" fill="#000000"> siginfo_type &gt;</text>
<text text-anchor="start" x="238" y="-224" font-family="Helvetica,sans-Serif" font-size="10.00" fill="#000000">sys::basic_status&lt;</text>
<text text-anchor="middle" x="280" y="-213" font-family="Helvetica,sans-Serif" font-size="10.00" fill="#000000"> wstat_type &gt;</text>
<text text-anchor="middle" x="280" y="-202" font-family="Helvetica,sans-Serif" font-size="10.00" fill="#000000">sys::signal_action</text>
<text text-anchor="middle" x="280" y="-191" font-family="Helvetica,sans-Serif" font-size="10.00" fill="#000000">sys::sigset_type</text>
</g>
<!-- Node0&#45;&gt;Node8 -->
<g id="edge8" class="edge">
<title>Node0&#45;&gt;Node8</title>
<path fill="none" stroke="#ffa500" stroke-dasharray="5,2" d="M207.1264,-159.7092C250.9549,-159.3062 329.2165,-158.5865 368.7388,-158.2231"/>
<text text-anchor="middle" x="280" y="-163" font-family="Helvetica,sans-Serif" font-size="10.00" fill="#000000">sys::signal_guard</text>
</g>
<!-- Node2 -->
<g id="node6" class="node">
<title>Node2</title>
<g id="a_node6"><a xlink:href="group__streambuf.html" target="_top" xlink:title="Classes with std::streambuf interface. ">
<polygon fill="none" stroke="#000000" points="353,-105.5 353,-124.5 433,-124.5 433,-105.5 353,-105.5"/>
<text text-anchor="middle" x="393" y="-112.5" font-family="Helvetica,sans-Serif" font-size="10.00" fill="#000000">Stream buffers</text>
</a>
</g>
</g>
<!-- Node0&#45;&gt;Node2 -->
<g id="edge2" class="edge">
<title>Node0&#45;&gt;Node2</title>
<path fill="none" stroke="#ffa500" stroke-dasharray="5,2" d="M189.5569,-150.3829C199.1175,-144.3448 212.2935,-136.9729 225,-133 267.2754,-119.7817 318.1289,-115.8944 352.7327,-114.9292"/>
<text text-anchor="middle" x="280" y="-147" font-family="Helvetica,sans-Serif" font-size="10.00" fill="#000000">sys::basic_argbuf</text>
<text text-anchor="middle" x="280" y="-136" font-family="Helvetica,sans-Serif" font-size="10.00" fill="#000000">sys::basic_shmembuf</text>
</g>
<!-- Node6 -->
<g id="node7" class="node">
<title>Node6</title>
<g id="a_node7"><a xlink:href="group__semaphore.html" target="_top" xlink:title="Classes with std::condition_variable interface. ">
<polygon fill="none" stroke="#000000" points="357.5,-38.5 357.5,-57.5 428.5,-57.5 428.5,-38.5 357.5,-38.5"/>
<text text-anchor="middle" x="393" y="-45.5" font-family="Helvetica,sans-Serif" font-size="10.00" fill="#000000">Semaphores</text>
</a>
</g>
</g>
<!-- Node0&#45;&gt;Node6 -->
<g id="edge6" class="edge">
<title>Node0&#45;&gt;Node6</title>
<path fill="none" stroke="#ffa500" stroke-dasharray="5,2" d="M177.6127,-150.2095C182.3477,-130.8667 195.7664,-87.907 225,-68 264.2092,-41.3 320.8086,-40.3282 357.2521,-43.2491"/>
<text text-anchor="middle" x="280" y="-104" font-family="Helvetica,sans-Serif" font-size="10.00" fill="#000000">sys::process_semaphore</text>
<text text-anchor="middle" x="280" y="-93" font-family="Helvetica,sans-Serif" font-size="10.00" fill="#000000">sys::sysv_semaphore</text>
<text text-anchor="middle" x="280" y="-82" font-family="Helvetica,sans-Serif" font-size="10.00" fill="#000000">sys::posix_semaphore</text>
<text text-anchor="middle" x="280" y="-71" font-family="Helvetica,sans-Serif" font-size="10.00" fill="#000000">sys::thread_semaphore</text>
</g>
<!-- Node7 -->
<g id="node9" class="node">
<title>Node7</title>
<g id="a_node9"><a xlink:href="group__mutex.html" target="_top" xlink:title="Classes with std::mutex interface. ">
<polygon fill="none" stroke="#000000" points="366,-.5 366,-19.5 420,-19.5 420,-.5 366,-.5"/>
<text text-anchor="middle" x="393" y="-7.5" font-family="Helvetica,sans-Serif" font-size="10.00" fill="#000000">Mutexes</text>
</a>
</g>
</g>
<!-- Node0&#45;&gt;Node7 -->
<g id="edge7" class="edge">
<title>Node0&#45;&gt;Node7</title>
<path fill="none" stroke="#ffa500" stroke-dasharray="5,2" d="M177.7529,-150.2707C184.3914,-122.4824 204.6884,-43.7438 225,-28 265.8046,3.6282 329.9091,.2754 365.9896,-4.9087"/>
<text text-anchor="middle" x="280" y="-31" font-family="Helvetica,sans-Serif" font-size="10.00" fill="#000000">sys::basic_shmembuf</text>
</g>
<!-- Node1 -->
<g id="node8" class="node">
<title>Node1</title>
<g id="a_node8"><a xlink:href="group__system.html" target="_top" xlink:title="System calls and system structures wrappers. ">
<polygon fill="none" stroke="#000000" points="0,-150.5 0,-169.5 107,-169.5 107,-150.5 0,-150.5"/>
<text text-anchor="middle" x="53.5" y="-157.5" font-family="Helvetica,sans-Serif" font-size="10.00" fill="#000000">System abstractions</text>
</a>
</g>
</g>
<!-- Node1&#45;&gt;Node0 -->
<g id="edge1" class="edge">
<title>Node1&#45;&gt;Node0</title>
<path fill="none" stroke="#000000" d="M117.0608,-160C126.3313,-160 135.5228,-160 143.7768,-160"/>
<polygon fill="#000000" stroke="#000000" points="117.011,-156.5001 107.011,-160 117.0109,-163.5001 117.011,-156.5001"/>
</g>
</g>
</svg>
