<?xml version="1.0" encoding="UTF-8" standalone="no"?>
<!DOCTYPE svg PUBLIC "-//W3C//DTD SVG 1.1//EN"
 "http://www.w3.org/Graphics/SVG/1.1/DTD/svg11.dtd">
<!-- Generated by graphviz version 2.40.1 (20161225.0304)
 -->
<!-- Title: Wrappers Pages: 1 -->
<svg width="406pt" height="297pt"
 viewBox="0.00 0.00 406.00 297.00" xmlns="http://www.w3.org/2000/svg" xmlns:xlink="http://www.w3.org/1999/xlink">
<g id="graph0" class="graph" transform="scale(1 1) rotate(0) translate(4 293)">
<title>Wrappers</title>
<!-- Node0 -->
<g id="node1" class="node">
<title>Node0</title>
<polygon fill="#bfbfbf" stroke="#000000" points="144,-89.5 144,-108.5 203,-108.5 203,-89.5 144,-89.5"/>
<text text-anchor="middle" x="173.5" y="-96.5" font-family="Helvetica,sans-Serif" font-size="10.00" fill="#000000">Wrappers</text>
</g>
<!-- Node4 -->
<g id="node2" class="node">
<title>Node4</title>
<g id="a_node2"><a xlink:href="group__ipc.html" target="_top" xlink:title="Resource management and parallel execution. ">
<polygon fill="none" stroke="#000000" points="332.5,-212.5 332.5,-231.5 395.5,-231.5 395.5,-212.5 332.5,-212.5"/>
<text text-anchor="middle" x="364" y="-219.5" font-family="Helvetica,sans-Serif" font-size="10.00" fill="#000000">Processes</text>
</a>
</g>
</g>
<!-- Node0&#45;&gt;Node4 -->
<g id="edge4" class="edge">
<title>Node0&#45;&gt;Node4</title>
<path fill="none" stroke="#ffa500" stroke-dasharray="5,2" d="M175.3195,-108.7184C179.5451,-128.4014 191.9627,-172.9729 221,-195 253.2061,-219.4309 301.014,-223.8701 332.3409,-223.7638"/>
<text text-anchor="start" x="224.5" y="-281" font-family="Helvetica,sans-Serif" font-size="10.00" fill="#000000">sys::basic_status&lt;</text>
<text text-anchor="middle" x="266.5" y="-270" font-family="Helvetica,sans-Serif" font-size="10.00" fill="#000000"> siginfo_type &gt;</text>
<text text-anchor="start" x="224.5" y="-259" font-family="Helvetica,sans-Serif" font-size="10.00" fill="#000000">sys::basic_status&lt;</text>
<text text-anchor="middle" x="266.5" y="-248" font-family="Helvetica,sans-Serif" font-size="10.00" fill="#000000"> wstat_type &gt;</text>
<text text-anchor="middle" x="266.5" y="-237" font-family="Helvetica,sans-Serif" font-size="10.00" fill="#000000">sys::signal_action</text>
<text text-anchor="middle" x="266.5" y="-226" font-family="Helvetica,sans-Serif" font-size="10.00" fill="#000000">sys::sigset_type</text>
</g>
<!-- Node5 -->
<g id="node3" class="node">
<title>Node5</title>
<g id="a_node3"><a xlink:href="group__net.html" target="_top" xlink:title="Network abstractions. ">
<polygon fill="none" stroke="#000000" points="337.5,-123.5 337.5,-142.5 390.5,-142.5 390.5,-123.5 337.5,-123.5"/>
<text text-anchor="middle" x="364" y="-130.5" font-family="Helvetica,sans-Serif" font-size="10.00" fill="#000000">Network</text>
</a>
</g>
</g>
<!-- Node0&#45;&gt;Node5 -->
<g id="edge5" class="edge">
<title>Node0&#45;&gt;Node5</title>
<path fill="none" stroke="#ffa500" stroke-dasharray="5,2" d="M203.0467,-106.9253C208.9693,-108.3835 215.1648,-109.8168 221,-111 261.2496,-119.1612 308.4166,-125.8716 337.2472,-129.6554"/>
<text text-anchor="middle" x="266.5" y="-183" font-family="Helvetica,sans-Serif" font-size="10.00" fill="#000000">sys::endpoint</text>
<text text-anchor="middle" x="266.5" y="-172" font-family="Helvetica,sans-Serif" font-size="10.00" fill="#000000">sys::netlink_header</text>
<text text-anchor="middle" x="266.5" y="-161" font-family="Helvetica,sans-Serif" font-size="10.00" fill="#000000">sys::rtattributes</text>
<text text-anchor="middle" x="266.5" y="-150" font-family="Helvetica,sans-Serif" font-size="10.00" fill="#000000">sys::ifaddr_message</text>
<text text-anchor="start" x="221" y="-139" font-family="Helvetica,sans-Serif" font-size="10.00" fill="#000000">sys::ifaddr_message</text>
<text text-anchor="middle" x="266.5" y="-128" font-family="Helvetica,sans-Serif" font-size="10.00" fill="#000000">_header</text>
</g>
<!-- Node2 -->
<g id="node4" class="node">
<title>Node2</title>
<g id="a_node4"><a xlink:href="group__fs.html" target="_top" xlink:title="File and directory manipulation. ">
<polygon fill="none" stroke="#000000" points="330,-56.5 330,-75.5 398,-75.5 398,-56.5 330,-56.5"/>
<text text-anchor="middle" x="364" y="-63.5" font-family="Helvetica,sans-Serif" font-size="10.00" fill="#000000">File system</text>
</a>
</g>
</g>
<!-- Node0&#45;&gt;Node2 -->
<g id="edge2" class="edge">
<title>Node0&#45;&gt;Node2</title>
<path fill="none" stroke="#ffa500" stroke-dasharray="5,2" d="M183.8583,-89.3508C192.8921,-81.6355 206.7508,-71.4065 221,-67 256.9339,-55.8875 300.4186,-57.5775 329.9322,-60.8088"/>
<text text-anchor="middle" x="266.5" y="-103" font-family="Helvetica,sans-Serif" font-size="10.00" fill="#000000">sys::direntry</text>
<text text-anchor="middle" x="266.5" y="-92" font-family="Helvetica,sans-Serif" font-size="10.00" fill="#000000">sys::file_mode</text>
<text text-anchor="middle" x="266.5" y="-81" font-family="Helvetica,sans-Serif" font-size="10.00" fill="#000000">sys::file_stat</text>
<text text-anchor="middle" x="266.5" y="-70" font-family="Helvetica,sans-Serif" font-size="10.00" fill="#000000">sys::pathentry</text>
</g>
<!-- Node3 -->
<g id="node6" class="node">
<title>Node3</title>
<g id="a_node6"><a xlink:href="group__io.html" target="_top" xlink:title="Input/output handling. ">
<polygon fill="none" stroke="#000000" points="349.5,-.5 349.5,-19.5 378.5,-19.5 378.5,-.5 349.5,-.5"/>
<text text-anchor="middle" x="364" y="-7.5" font-family="Helvetica,sans-Serif" font-size="10.00" fill="#000000">IO</text>
</a>
</g>
</g>
<!-- Node0&#45;&gt;Node3 -->
<g id="edge3" class="edge">
<title>Node0&#45;&gt;Node3</title>
<path fill="none" stroke="#ffa500" stroke-dasharray="5,2" d="M176.2732,-89.3999C181.7235,-72.4696 195.5717,-37.6213 221,-22 261.7576,3.0385 321.8163,-2.7307 349.2983,-7.1803"/>
<text text-anchor="middle" x="266.5" y="-47" font-family="Helvetica,sans-Serif" font-size="10.00" fill="#000000">sys::epoll_event</text>
<text text-anchor="middle" x="266.5" y="-36" font-family="Helvetica,sans-Serif" font-size="10.00" fill="#000000">sys::fildes</text>
<text text-anchor="middle" x="266.5" y="-25" font-family="Helvetica,sans-Serif" font-size="10.00" fill="#000000">sys::poll_event</text>
</g>
<!-- Node1 -->
<g id="node5" class="node">
<title>Node1</title>
<g id="a_node5"><a xlink:href="group__system.html" target="_top" xlink:title="System calls and system structures wrappers. ">
<polygon fill="none" stroke="#000000" points="0,-89.5 0,-108.5 107,-108.5 107,-89.5 0,-89.5"/>
<text text-anchor="middle" x="53.5" y="-96.5" font-family="Helvetica,sans-Serif" font-size="10.00" fill="#000000">System abstractions</text>
</a>
</g>
</g>
<!-- Node1&#45;&gt;Node0 -->
<g id="edge1" class="edge">
<title>Node1&#45;&gt;Node0</title>
<path fill="none" stroke="#000000" d="M117.2646,-99C126.5515,-99 135.7176,-99 143.8684,-99"/>
<polygon fill="#000000" stroke="#000000" points="117.1823,-95.5001 107.1823,-99 117.1823,-102.5001 117.1823,-95.5001"/>
</g>
</g>
</svg>
