<?xml version="1.0" encoding="UTF-8" standalone="no"?>
<!DOCTYPE svg PUBLIC "-//W3C//DTD SVG 1.1//EN"
 "http://www.w3.org/Graphics/SVG/1.1/DTD/svg11.dtd">
<!-- Generated by graphviz version 2.40.1 (20161225.0304)
 -->
<!-- Title: Iterators Pages: 1 -->
<svg width="362pt" height="84pt"
 viewBox="0.00 0.00 362.00 84.00" xmlns="http://www.w3.org/2000/svg" xmlns:xlink="http://www.w3.org/1999/xlink">
<g id="graph0" class="graph" transform="scale(1 1) rotate(0) translate(4 80)">
<title>Iterators</title>
<!-- Node0 -->
<g id="node1" class="node">
<title>Node0</title>
<polygon fill="#bfbfbf" stroke="#000000" points="116,-.5 116,-19.5 169,-19.5 169,-.5 116,-.5"/>
<text text-anchor="middle" x="142.5" y="-7.5" font-family="Helvetica,sans-Serif" font-size="10.00" fill="#000000">Iterators</text>
</g>
<!-- Node2 -->
<g id="node2" class="node">
<title>Node2</title>
<g id="a_node2"><a xlink:href="group__net.html" target="_top" xlink:title="Network abstractions. ">
<polygon fill="none" stroke="#000000" points="301,-.5 301,-19.5 354,-19.5 354,-.5 301,-.5"/>
<text text-anchor="middle" x="327.5" y="-7.5" font-family="Helvetica,sans-Serif" font-size="10.00" fill="#000000">Network</text>
</a>
</g>
</g>
<!-- Node0&#45;&gt;Node2 -->
<g id="edge2" class="edge">
<title>Node0&#45;&gt;Node2</title>
<path fill="none" stroke="#ffa500" stroke-dasharray="5,2" d="M169.006,-10C204.0746,-10 265.549,-10 300.743,-10"/>
<text text-anchor="middle" x="235" y="-68" font-family="Helvetica,sans-Serif" font-size="10.00" fill="#000000">sys::ifaddrs_iterator</text>
<text text-anchor="start" x="187" y="-57" font-family="Helvetica,sans-Serif" font-size="10.00" fill="#000000">sys::netlink_attribute</text>
<text text-anchor="middle" x="235" y="-46" font-family="Helvetica,sans-Serif" font-size="10.00" fill="#000000">_iterator</text>
<text text-anchor="start" x="187" y="-35" font-family="Helvetica,sans-Serif" font-size="10.00" fill="#000000">sys::netlink_message</text>
<text text-anchor="middle" x="235" y="-24" font-family="Helvetica,sans-Serif" font-size="10.00" fill="#000000">_iterator</text>
<text text-anchor="middle" x="235" y="-13" font-family="Helvetica,sans-Serif" font-size="10.00" fill="#000000">sys::subnet_iterator</text>
</g>
<!-- Node1 -->
<g id="node3" class="node">
<title>Node1</title>
<g id="a_node3"><a xlink:href="group__concepts.html" target="_top" xlink:title="Group classes and functions by concept. ">
<polygon fill="none" stroke="#000000" points="0,-.5 0,-19.5 79,-19.5 79,-.5 0,-.5"/>
<text text-anchor="middle" x="39.5" y="-7.5" font-family="Helvetica,sans-Serif" font-size="10.00" fill="#000000">C++ concepts</text>
</a>
</g>
</g>
<!-- Node1&#45;&gt;Node0 -->
<g id="edge1" class="edge">
<title>Node1&#45;&gt;Node0</title>
<path fill="none" stroke="#000000" d="M89.0321,-10C98.3357,-10 107.7251,-10 115.9833,-10"/>
<polygon fill="#000000" stroke="#000000" points="89.028,-6.5001 79.0279,-10 89.0279,-13.5001 89.028,-6.5001"/>
</g>
</g>
</svg>
