<?xml version="1.0" encoding="UTF-8" standalone="no"?>
<!DOCTYPE svg PUBLIC "-//W3C//DTD SVG 1.1//EN"
 "http://www.w3.org/Graphics/SVG/1.1/DTD/svg11.dtd">
<!-- Generated by graphviz version 2.40.1 (20161225.0304)
 -->
<!-- Title: Stream buffers Pages: 1 -->
<svg width="400pt" height="109pt"
 viewBox="0.00 0.00 400.00 109.00" xmlns="http://www.w3.org/2000/svg" xmlns:xlink="http://www.w3.org/1999/xlink">
<g id="graph0" class="graph" transform="scale(1 1) rotate(0) translate(4 105)">
<title>Stream buffers</title>
<!-- Node3 -->
<g id="node1" class="node">
<title>Node3</title>
<g id="a_node1"><a xlink:href="group__ipc.html" target="_top" xlink:title="Resource management and parallel execution. ">
<polygon fill="none" stroke="#000000" points="329,-76.5 329,-95.5 392,-95.5 392,-76.5 329,-76.5"/>
<text text-anchor="middle" x="360.5" y="-83.5" font-family="Helvetica,sans-Serif" font-size="10.00" fill="#000000">Processes</text>
</a>
</g>
</g>
<!-- Node0 -->
<g id="node2" class="node">
<title>Node0</title>
<polygon fill="#bfbfbf" stroke="#000000" points="116,-38.5 116,-57.5 196,-57.5 196,-38.5 116,-38.5"/>
<text text-anchor="middle" x="156" y="-45.5" font-family="Helvetica,sans-Serif" font-size="10.00" fill="#000000">Stream buffers</text>
</g>
<!-- Node0&#45;&gt;Node3 -->
<g id="edge3" class="edge">
<title>Node0&#45;&gt;Node3</title>
<path fill="none" stroke="#ffa500" stroke-dasharray="5,2" d="M190.5276,-57.5175C198.221,-59.4736 206.3618,-61.4166 214,-63 253.327,-71.1523 299.1252,-77.9098 328.9043,-81.9451"/>
<text text-anchor="middle" x="262.5" y="-93" font-family="Helvetica,sans-Serif" font-size="10.00" fill="#000000">sys::basic_argbuf</text>
<text text-anchor="middle" x="262.5" y="-82" font-family="Helvetica,sans-Serif" font-size="10.00" fill="#000000">sys::basic_shmembuf</text>
</g>
<!-- Node2 -->
<g id="node3" class="node">
<title>Node2</title>
<g id="a_node3"><a xlink:href="group__io.html" target="_top" xlink:title="Input/output handling. ">
<polygon fill="none" stroke="#000000" points="346,-38.5 346,-57.5 375,-57.5 375,-38.5 346,-38.5"/>
<text text-anchor="middle" x="360.5" y="-45.5" font-family="Helvetica,sans-Serif" font-size="10.00" fill="#000000">IO</text>
</a>
</g>
</g>
<!-- Node0&#45;&gt;Node2 -->
<g id="edge2" class="edge">
<title>Node0&#45;&gt;Node2</title>
<path fill="none" stroke="#ffa500" stroke-dasharray="5,2" d="M196.4026,-48C242.2648,-48 314.7171,-48 345.6771,-48"/>
<text text-anchor="middle" x="262.5" y="-51" font-family="Helvetica,sans-Serif" font-size="10.00" fill="#000000">sys::basic_fildesbuf</text>
</g>
<!-- Node4 -->
<g id="node4" class="node">
<title>Node4</title>
<g id="a_node4"><a xlink:href="group__mutex.html" target="_top" xlink:title="Classes with std::mutex interface. ">
<polygon fill="none" stroke="#000000" points="333.5,-.5 333.5,-19.5 387.5,-19.5 387.5,-.5 333.5,-.5"/>
<text text-anchor="middle" x="360.5" y="-7.5" font-family="Helvetica,sans-Serif" font-size="10.00" fill="#000000">Mutexes</text>
</a>
</g>
</g>
<!-- Node0&#45;&gt;Node4 -->
<g id="edge4" class="edge">
<title>Node0&#45;&gt;Node4</title>
<path fill="none" stroke="#ffa500" stroke-dasharray="5,2" d="M190.5276,-38.4825C198.221,-36.5264 206.3618,-34.5834 214,-33 255.3438,-24.4296 303.8395,-17.4008 333.3562,-13.4558"/>
<text text-anchor="middle" x="262.5" y="-36" font-family="Helvetica,sans-Serif" font-size="10.00" fill="#000000">sys::basic_shmembuf</text>
</g>
<!-- Node1 -->
<g id="node5" class="node">
<title>Node1</title>
<g id="a_node5"><a xlink:href="group__concepts.html" target="_top" xlink:title="Group classes and functions by concept. ">
<polygon fill="none" stroke="#000000" points="0,-38.5 0,-57.5 79,-57.5 79,-38.5 0,-38.5"/>
<text text-anchor="middle" x="39.5" y="-45.5" font-family="Helvetica,sans-Serif" font-size="10.00" fill="#000000">C++ concepts</text>
</a>
</g>
</g>
<!-- Node1&#45;&gt;Node0 -->
<g id="edge1" class="edge">
<title>Node1&#45;&gt;Node0</title>
<path fill="none" stroke="#000000" d="M89.3827,-48C98.1424,-48 107.1599,-48 115.6205,-48"/>
<polygon fill="#000000" stroke="#000000" points="89.2669,-44.5001 79.2669,-48 89.2668,-51.5001 89.2669,-44.5001"/>
</g>
</g>
</svg>
