<?xml version="1.0" encoding="UTF-8" standalone="no"?>
<!DOCTYPE svg PUBLIC "-//W3C//DTD SVG 1.1//EN"
 "http://www.w3.org/Graphics/SVG/1.1/DTD/svg11.dtd">
<!-- Generated by graphviz version 2.40.1 (20161225.0304)
 -->
<!-- Title: Streams Pages: 1 -->
<svg width="375pt" height="207pt"
 viewBox="0.00 0.00 375.00 207.00" xmlns="http://www.w3.org/2000/svg" xmlns:xlink="http://www.w3.org/1999/xlink">
<g id="graph0" class="graph" transform="scale(1 1) rotate(0) translate(4 203)">
<title>Streams</title>
<polygon fill="#ffffff" stroke="transparent" points="-4,4 -4,-203 371,-203 371,4 -4,4"/>
<!-- Node0 -->
<g id="node1" class="node">
<title>Node0</title>
<polygon fill="#bfbfbf" stroke="#000000" points="116,-100.5 116,-119.5 169,-119.5 169,-100.5 116,-100.5"/>
<text text-anchor="middle" x="142.5" y="-107.5" font-family="Helvetica,sans-Serif" font-size="10.00" fill="#000000">Streams</text>
</g>
<!-- Node4 -->
<g id="node2" class="node">
<title>Node4</title>
<g id="a_node2"><a xlink:href="group__ipc.html" target="_top" xlink:title="Resource management and parallel execution. ">
<polygon fill="#ffffff" stroke="#000000" points="301.5,-179.5 301.5,-198.5 364.5,-198.5 364.5,-179.5 301.5,-179.5"/>
<text text-anchor="middle" x="333" y="-186.5" font-family="Helvetica,sans-Serif" font-size="10.00" fill="#000000">Processes</text>
</a>
</g>
</g>
<!-- Node0&#45;&gt;Node4 -->
<g id="edge4" class="edge">
<title>Node0&#45;&gt;Node4</title>
<path fill="none" stroke="#ffa500" stroke-dasharray="5,2" d="M147.7018,-119.6086C154.8485,-131.8109 168.9026,-152.5346 187,-163 222.4375,-183.4928 270.1755,-188.5594 301.2643,-189.4568"/>
<text text-anchor="middle" x="234" y="-191" font-family="Helvetica,sans-Serif" font-size="10.00" fill="#000000">sys::argstream</text>
</g>
<!-- Node5 -->
<g id="node3" class="node">
<title>Node5</title>
<g id="a_node3"><a xlink:href="group__net.html" target="_top" xlink:title="Network abstractions. ">
<polygon fill="#ffffff" stroke="#000000" points="306.5,-134.5 306.5,-153.5 359.5,-153.5 359.5,-134.5 306.5,-134.5"/>
<text text-anchor="middle" x="333" y="-141.5" font-family="Helvetica,sans-Serif" font-size="10.00" fill="#000000">Network</text>
</a>
</g>
</g>
<!-- Node0&#45;&gt;Node5 -->
<g id="edge5" class="edge">
<title>Node0&#45;&gt;Node5</title>
<path fill="none" stroke="#ffa500" stroke-dasharray="5,2" d="M169.2071,-117.7309C175.0413,-119.2712 181.2045,-120.7861 187,-122 228.3967,-130.6711 277.0818,-137.3039 306.4632,-140.9237"/>
<text text-anchor="middle" x="234" y="-151" font-family="Helvetica,sans-Serif" font-size="10.00" fill="#000000">sys::basic_bstream</text>
<text text-anchor="middle" x="234" y="-140" font-family="Helvetica,sans-Serif" font-size="10.00" fill="#000000">sys::basic_pstream</text>
</g>
<!-- Node2 -->
<g id="node4" class="node">
<title>Node2</title>
<g id="a_node4"><a xlink:href="group__fs.html" target="_top" xlink:title="File and directory manipulation. ">
<polygon fill="#ffffff" stroke="#000000" points="299,-67.5 299,-86.5 367,-86.5 367,-67.5 299,-67.5"/>
<text text-anchor="middle" x="333" y="-74.5" font-family="Helvetica,sans-Serif" font-size="10.00" fill="#000000">File system</text>
</a>
</g>
</g>
<!-- Node0&#45;&gt;Node2 -->
<g id="edge2" class="edge">
<title>Node0&#45;&gt;Node2</title>
<path fill="none" stroke="#ffa500" stroke-dasharray="5,2" d="M152.0901,-100.3599C160.4838,-92.6501 173.4292,-82.4241 187,-78 223.7518,-66.0188 268.5271,-67.9572 298.7249,-71.483"/>
<text text-anchor="middle" x="234" y="-114" font-family="Helvetica,sans-Serif" font-size="10.00" fill="#000000">sys::basic_directory</text>
<text text-anchor="middle" x="234" y="-103" font-family="Helvetica,sans-Serif" font-size="10.00" fill="#000000">sys::basic_idirectory</text>
<text text-anchor="middle" x="234" y="-92" font-family="Helvetica,sans-Serif" font-size="10.00" fill="#000000">sys::basic_idirtree</text>
<text text-anchor="middle" x="234" y="-81" font-family="Helvetica,sans-Serif" font-size="10.00" fill="#000000">sys::basic_odirectory</text>
</g>
<!-- Node3 -->
<g id="node5" class="node">
<title>Node3</title>
<g id="a_node5"><a xlink:href="group__io.html" target="_top" xlink:title="Input/output handling. ">
<polygon fill="#ffffff" stroke="#000000" points="318.5,-.5 318.5,-19.5 347.5,-19.5 347.5,-.5 318.5,-.5"/>
<text text-anchor="middle" x="333" y="-7.5" font-family="Helvetica,sans-Serif" font-size="10.00" fill="#000000">IO</text>
</a>
</g>
</g>
<!-- Node0&#45;&gt;Node3 -->
<g id="edge3" class="edge">
<title>Node0&#45;&gt;Node3</title>
<path fill="none" stroke="#ffa500" stroke-dasharray="5,2" d="M144.1116,-100.4464C147.8512,-81.5865 159.0305,-39.7748 187,-21 227.7329,6.3423 290.0309,-1.2904 318.2263,-6.7029"/>
<text text-anchor="middle" x="234" y="-57" font-family="Helvetica,sans-Serif" font-size="10.00" fill="#000000">sys::basic_ifdstream</text>
<text text-anchor="middle" x="234" y="-46" font-family="Helvetica,sans-Serif" font-size="10.00" fill="#000000">sys::basic_ofdstream</text>
<text text-anchor="middle" x="234" y="-35" font-family="Helvetica,sans-Serif" font-size="10.00" fill="#000000">sys::basic_fdstream</text>
<text text-anchor="middle" x="234" y="-24" font-family="Helvetica,sans-Serif" font-size="10.00" fill="#000000">sys::osysstream</text>
</g>
<!-- Node1 -->
<g id="node6" class="node">
<title>Node1</title>
<g id="a_node6"><a xlink:href="group__concepts.html" target="_top" xlink:title="Group classes and functions by concept. ">
<polygon fill="#ffffff" stroke="#000000" points="0,-100.5 0,-119.5 79,-119.5 79,-100.5 0,-100.5"/>
<text text-anchor="middle" x="39.5" y="-107.5" font-family="Helvetica,sans-Serif" font-size="10.00" fill="#000000">C++ concepts</text>
</a>
</g>
</g>
<!-- Node1&#45;&gt;Node0 -->
<g id="edge1" class="edge">
<title>Node1&#45;&gt;Node0</title>
<path fill="none" stroke="#000000" d="M89.0321,-110C98.3357,-110 107.7251,-110 115.9833,-110"/>
<polygon fill="#000000" stroke="#000000" points="89.028,-106.5001 79.0279,-110 89.0279,-113.5001 89.028,-106.5001"/>
</g>
</g>
</svg>
