<?xml version="1.0" encoding="UTF-8" standalone="no"?>
<!DOCTYPE svg PUBLIC "-//W3C//DTD SVG 1.1//EN"
 "http://www.w3.org/Graphics/SVG/1.1/DTD/svg11.dtd">
<!-- Generated by graphviz version 2.40.1 (20161225.0304)
 -->
<!-- Title: Containers Pages: 1 -->
<svg width="391pt" height="157pt"
 viewBox="0.00 0.00 391.00 157.00" xmlns="http://www.w3.org/2000/svg" xmlns:xlink="http://www.w3.org/1999/xlink">
<g id="graph0" class="graph" transform="scale(1 1) rotate(0) translate(4 153)">
<title>Containers</title>
<!-- Node0 -->
<g id="node1" class="node">
<title>Node0</title>
<polygon fill="#bfbfbf" stroke="#000000" points="116,-55.5 116,-74.5 180,-74.5 180,-55.5 116,-55.5"/>
<text text-anchor="middle" x="148" y="-62.5" font-family="Helvetica,sans-Serif" font-size="10.00" fill="#000000">Containers</text>
</g>
<!-- Node4 -->
<g id="node2" class="node">
<title>Node4</title>
<g id="a_node2"><a xlink:href="group__ipc.html" target="_top" xlink:title="Resource management and parallel execution. ">
<polygon fill="none" stroke="#000000" points="316,-119.5 316,-138.5 379,-138.5 379,-119.5 316,-119.5"/>
<text text-anchor="middle" x="347.5" y="-126.5" font-family="Helvetica,sans-Serif" font-size="10.00" fill="#000000">Processes</text>
</a>
</g>
</g>
<!-- Node0&#45;&gt;Node4 -->
<g id="edge4" class="edge">
<title>Node0&#45;&gt;Node4</title>
<path fill="none" stroke="#ffa500" stroke-dasharray="5,2" d="M156.556,-74.5265C165.7815,-84.139 181.3928,-98.589 198,-106 236.1294,-123.0154 284.5657,-127.7669 315.7971,-128.9247"/>
<text text-anchor="middle" x="246" y="-141" font-family="Helvetica,sans-Serif" font-size="10.00" fill="#000000">sys::process_group</text>
<text text-anchor="middle" x="246" y="-130" font-family="Helvetica,sans-Serif" font-size="10.00" fill="#000000">sys::shared_mem</text>
</g>
<!-- Node5 -->
<g id="node3" class="node">
<title>Node5</title>
<g id="a_node3"><a xlink:href="group__net.html" target="_top" xlink:title="Network abstractions. ">
<polygon fill="none" stroke="#000000" points="321,-76.5 321,-95.5 374,-95.5 374,-76.5 321,-76.5"/>
<text text-anchor="middle" x="347.5" y="-83.5" font-family="Helvetica,sans-Serif" font-size="10.00" fill="#000000">Network</text>
</a>
</g>
</g>
<!-- Node0&#45;&gt;Node5 -->
<g id="edge5" class="edge">
<title>Node0&#45;&gt;Node5</title>
<path fill="none" stroke="#ffa500" stroke-dasharray="5,2" d="M180.0531,-68.374C219.1545,-72.4899 284.5329,-79.3719 320.9516,-83.2054"/>
<text text-anchor="middle" x="246" y="-94" font-family="Helvetica,sans-Serif" font-size="10.00" fill="#000000">sys::bytes</text>
<text text-anchor="middle" x="246" y="-83" font-family="Helvetica,sans-Serif" font-size="10.00" fill="#000000">sys::netlink_container</text>
</g>
<!-- Node2 -->
<g id="node4" class="node">
<title>Node2</title>
<g id="a_node4"><a xlink:href="group__semaphore.html" target="_top" xlink:title="Classes with std::condition_variable interface. ">
<polygon fill="none" stroke="#000000" points="312,-38.5 312,-57.5 383,-57.5 383,-38.5 312,-38.5"/>
<text text-anchor="middle" x="347.5" y="-45.5" font-family="Helvetica,sans-Serif" font-size="10.00" fill="#000000">Semaphores</text>
</a>
</g>
</g>
<!-- Node0&#45;&gt;Node2 -->
<g id="edge2" class="edge">
<title>Node0&#45;&gt;Node2</title>
<path fill="none" stroke="#ffa500" stroke-dasharray="5,2" d="M177.3442,-55.4527C184.0624,-53.6406 191.2225,-52.0003 198,-51 236.6512,-45.2953 281.5265,-45.2612 311.9494,-46.202"/>
<text text-anchor="middle" x="246" y="-54" font-family="Helvetica,sans-Serif" font-size="10.00" fill="#000000">sys::event_poller</text>
</g>
<!-- Node3 -->
<g id="node5" class="node">
<title>Node3</title>
<g id="a_node5"><a xlink:href="group__io.html" target="_top" xlink:title="Input/output handling. ">
<polygon fill="none" stroke="#000000" points="333,-.5 333,-19.5 362,-19.5 362,-.5 333,-.5"/>
<text text-anchor="middle" x="347.5" y="-7.5" font-family="Helvetica,sans-Serif" font-size="10.00" fill="#000000">IO</text>
</a>
</g>
</g>
<!-- Node0&#45;&gt;Node3 -->
<g id="edge3" class="edge">
<title>Node0&#45;&gt;Node3</title>
<path fill="none" stroke="#ffa500" stroke-dasharray="5,2" d="M159.0626,-55.256C168.6689,-47.3685 183.3102,-36.67 198,-31 244.9468,-12.8793 305.5671,-10.1271 332.9431,-9.8836"/>
<text text-anchor="middle" x="246" y="-34" font-family="Helvetica,sans-Serif" font-size="10.00" fill="#000000">sys::event_poller</text>
</g>
<!-- Node1 -->
<g id="node6" class="node">
<title>Node1</title>
<g id="a_node6"><a xlink:href="group__concepts.html" target="_top" xlink:title="Group classes and functions by concept. ">
<polygon fill="none" stroke="#000000" points="0,-55.5 0,-74.5 79,-74.5 79,-55.5 0,-55.5"/>
<text text-anchor="middle" x="39.5" y="-62.5" font-family="Helvetica,sans-Serif" font-size="10.00" fill="#000000">C++ concepts</text>
</a>
</g>
</g>
<!-- Node1&#45;&gt;Node0 -->
<g id="edge1" class="edge">
<title>Node1&#45;&gt;Node0</title>
<path fill="none" stroke="#000000" d="M89.5727,-65C98.4435,-65 107.4641,-65 115.6783,-65"/>
<polygon fill="#000000" stroke="#000000" points="89.2853,-61.5001 79.2853,-65 89.2853,-68.5001 89.2853,-61.5001"/>
</g>
</g>
</svg>
