<?xml version="1.0" encoding="UTF-8" standalone="no"?>
<!DOCTYPE svg PUBLIC "-//W3C//DTD SVG 1.1//EN"
 "http://www.w3.org/Graphics/SVG/1.1/DTD/svg11.dtd">
<!-- Generated by graphviz version 2.40.1 (20161225.0304)
 -->
<!-- Title: File system Pages: 1 -->
<svg width="409pt" height="166pt"
 viewBox="0.00 0.00 409.00 166.00" xmlns="http://www.w3.org/2000/svg" xmlns:xlink="http://www.w3.org/1999/xlink">
<g id="graph0" class="graph" transform="scale(1 1) rotate(0) translate(4 162)">
<title>File system</title>
<!-- Node2 -->
<g id="node1" class="node">
<title>Node2</title>
<g id="a_node1"><a xlink:href="group__stream.html" target="_top" xlink:title="Classes with member input/output operators. ">
<polygon fill="none" stroke="#000000" points="345,-105.5 345,-124.5 398,-124.5 398,-105.5 345,-105.5"/>
<text text-anchor="middle" x="371.5" y="-112.5" font-family="Helvetica,sans-Serif" font-size="10.00" fill="#000000">Streams</text>
</a>
</g>
</g>
<!-- Node3 -->
<g id="node2" class="node">
<title>Node3</title>
<g id="a_node2"><a xlink:href="group__wrapper.html" target="_top" xlink:title="Wrappers for system structures. ">
<polygon fill="none" stroke="#000000" points="342,-38.5 342,-57.5 401,-57.5 401,-38.5 342,-38.5"/>
<text text-anchor="middle" x="371.5" y="-45.5" font-family="Helvetica,sans-Serif" font-size="10.00" fill="#000000">Wrappers</text>
</a>
</g>
</g>
<!-- Node0 -->
<g id="node3" class="node">
<title>Node0</title>
<polygon fill="#bfbfbf" stroke="#000000" points="144,-38.5 144,-57.5 212,-57.5 212,-38.5 144,-38.5"/>
<text text-anchor="middle" x="178" y="-45.5" font-family="Helvetica,sans-Serif" font-size="10.00" fill="#000000">File system</text>
</g>
<!-- Node0&#45;&gt;Node2 -->
<g id="edge2" class="edge">
<title>Node0&#45;&gt;Node2</title>
<path fill="none" stroke="#ffa500" stroke-dasharray="5,2" d="M186.0942,-57.6861C195.4913,-68.2217 212.0172,-84.6699 230,-93 267.3341,-110.2942 315.5352,-114.4223 344.9491,-115.1796"/>
<text text-anchor="middle" x="277" y="-150" font-family="Helvetica,sans-Serif" font-size="10.00" fill="#000000">sys::basic_directory</text>
<text text-anchor="middle" x="277" y="-139" font-family="Helvetica,sans-Serif" font-size="10.00" fill="#000000">sys::basic_idirectory</text>
<text text-anchor="middle" x="277" y="-128" font-family="Helvetica,sans-Serif" font-size="10.00" fill="#000000">sys::basic_idirtree</text>
<text text-anchor="middle" x="277" y="-117" font-family="Helvetica,sans-Serif" font-size="10.00" fill="#000000">sys::basic_odirectory</text>
</g>
<!-- Node0&#45;&gt;Node3 -->
<g id="edge3" class="edge">
<title>Node0&#45;&gt;Node3</title>
<path fill="none" stroke="#ffa500" stroke-dasharray="5,2" d="M212.1485,-48C248.9287,-48 306.8618,-48 341.8127,-48"/>
<text text-anchor="middle" x="277" y="-84" font-family="Helvetica,sans-Serif" font-size="10.00" fill="#000000">sys::direntry</text>
<text text-anchor="middle" x="277" y="-73" font-family="Helvetica,sans-Serif" font-size="10.00" fill="#000000">sys::file_mode</text>
<text text-anchor="middle" x="277" y="-62" font-family="Helvetica,sans-Serif" font-size="10.00" fill="#000000">sys::file_stat</text>
<text text-anchor="middle" x="277" y="-51" font-family="Helvetica,sans-Serif" font-size="10.00" fill="#000000">sys::pathentry</text>
</g>
<!-- Node4 -->
<g id="node5" class="node">
<title>Node4</title>
<g id="a_node5"><a xlink:href="group__mutex.html" target="_top" xlink:title="Classes with std::mutex interface. ">
<polygon fill="none" stroke="#000000" points="344.5,-.5 344.5,-19.5 398.5,-19.5 398.5,-.5 344.5,-.5"/>
<text text-anchor="middle" x="371.5" y="-7.5" font-family="Helvetica,sans-Serif" font-size="10.00" fill="#000000">Mutexes</text>
</a>
</g>
</g>
<!-- Node0&#45;&gt;Node4 -->
<g id="edge4" class="edge">
<title>Node0&#45;&gt;Node4</title>
<path fill="none" stroke="#ffa500" stroke-dasharray="5,2" d="M208.9145,-38.4245C215.8144,-36.4717 223.1245,-34.5446 230,-33 269.4601,-24.1351 315.8386,-17.2571 344.4528,-13.4155"/>
<text text-anchor="middle" x="277" y="-36" font-family="Helvetica,sans-Serif" font-size="10.00" fill="#000000">sys::file_mutex</text>
</g>
<!-- Node1 -->
<g id="node4" class="node">
<title>Node1</title>
<g id="a_node4"><a xlink:href="group__system.html" target="_top" xlink:title="System calls and system structures wrappers. ">
<polygon fill="none" stroke="#000000" points="0,-38.5 0,-57.5 107,-57.5 107,-38.5 0,-38.5"/>
<text text-anchor="middle" x="53.5" y="-45.5" font-family="Helvetica,sans-Serif" font-size="10.00" fill="#000000">System abstractions</text>
</a>
</g>
</g>
<!-- Node1&#45;&gt;Node0 -->
<g id="edge1" class="edge">
<title>Node1&#45;&gt;Node0</title>
<path fill="none" stroke="#000000" d="M117.063,-48C126.3387,-48 135.5754,-48 143.949,-48"/>
<polygon fill="#000000" stroke="#000000" points="117.0218,-44.5001 107.0217,-48 117.0217,-51.5001 117.0218,-44.5001"/>
</g>
</g>
</svg>
