<?xml version="1.0" encoding="UTF-8" standalone="no"?>
<!DOCTYPE svg PUBLIC "-//W3C//DTD SVG 1.1//EN"
 "http://www.w3.org/Graphics/SVG/1.1/DTD/svg11.dtd">
<!-- Generated by graphviz version 2.40.1 (20161225.0304)
 -->
<!-- Title: Semaphores Pages: 1 -->
<svg width="405pt" height="134pt"
 viewBox="0.00 0.00 405.00 134.00" xmlns="http://www.w3.org/2000/svg" xmlns:xlink="http://www.w3.org/1999/xlink">
<g id="graph0" class="graph" transform="scale(1 1) rotate(0) translate(4 130)">
<title>Semaphores</title>
<polygon fill="#ffffff" stroke="transparent" points="-4,4 -4,-130 401,-130 401,4 -4,4"/>
<!-- Node2 -->
<g id="node1" class="node">
<title>Node2</title>
<g id="a_node1"><a xlink:href="group__container.html" target="_top" xlink:title="Classes with container interface. ">
<polygon fill="#ffffff" stroke="#000000" points="333,-105.5 333,-124.5 397,-124.5 397,-105.5 333,-105.5"/>
<text text-anchor="middle" x="365" y="-112.5" font-family="Helvetica,sans-Serif" font-size="10.00" fill="#000000">Containers</text>
</a>
</g>
</g>
<!-- Node4 -->
<g id="node2" class="node">
<title>Node4</title>
<g id="a_node2"><a xlink:href="group__ipc.html" target="_top" xlink:title="Resource management and parallel execution. ">
<polygon fill="#ffffff" stroke="#000000" points="333.5,-38.5 333.5,-57.5 396.5,-57.5 396.5,-38.5 333.5,-38.5"/>
<text text-anchor="middle" x="365" y="-45.5" font-family="Helvetica,sans-Serif" font-size="10.00" fill="#000000">Processes</text>
</a>
</g>
</g>
<!-- Node0 -->
<g id="node3" class="node">
<title>Node0</title>
<polygon fill="#bfbfbf" stroke="#000000" points="116,-38.5 116,-57.5 187,-57.5 187,-38.5 116,-38.5"/>
<text text-anchor="middle" x="151.5" y="-45.5" font-family="Helvetica,sans-Serif" font-size="10.00" fill="#000000">Semaphores</text>
</g>
<!-- Node0&#45;&gt;Node2 -->
<g id="edge2" class="edge">
<title>Node0&#45;&gt;Node2</title>
<path fill="none" stroke="#ffa500" stroke-dasharray="5,2" d="M159.8606,-57.7425C169.5582,-68.3286 186.5871,-84.8219 205,-93 246.5129,-111.4381 299.5583,-115.3504 332.9165,-115.7376"/>
<text text-anchor="middle" x="260" y="-118" font-family="Helvetica,sans-Serif" font-size="10.00" fill="#000000">sys::event_poller</text>
</g>
<!-- Node0&#45;&gt;Node4 -->
<g id="edge4" class="edge">
<title>Node0&#45;&gt;Node4</title>
<path fill="none" stroke="#ffa500" stroke-dasharray="5,2" d="M187.2351,-48C228.0705,-48 294.2792,-48 333.3322,-48"/>
<text text-anchor="middle" x="260" y="-84" font-family="Helvetica,sans-Serif" font-size="10.00" fill="#000000">sys::process_semaphore</text>
<text text-anchor="middle" x="260" y="-73" font-family="Helvetica,sans-Serif" font-size="10.00" fill="#000000">sys::sysv_semaphore</text>
<text text-anchor="middle" x="260" y="-62" font-family="Helvetica,sans-Serif" font-size="10.00" fill="#000000">sys::posix_semaphore</text>
<text text-anchor="middle" x="260" y="-51" font-family="Helvetica,sans-Serif" font-size="10.00" fill="#000000">sys::thread_semaphore</text>
</g>
<!-- Node3 -->
<g id="node4" class="node">
<title>Node3</title>
<g id="a_node4"><a xlink:href="group__io.html" target="_top" xlink:title="Input/output handling. ">
<polygon fill="#ffffff" stroke="#000000" points="350.5,-.5 350.5,-19.5 379.5,-19.5 379.5,-.5 350.5,-.5"/>
<text text-anchor="middle" x="365" y="-7.5" font-family="Helvetica,sans-Serif" font-size="10.00" fill="#000000">IO</text>
</a>
</g>
</g>
<!-- Node0&#45;&gt;Node3 -->
<g id="edge3" class="edge">
<title>Node0&#45;&gt;Node3</title>
<path fill="none" stroke="#ffa500" stroke-dasharray="5,2" d="M183.0152,-38.4272C190.1976,-36.4516 197.8269,-34.5144 205,-33 257.9941,-21.812 322.023,-14.4208 350.3277,-11.4605"/>
<text text-anchor="middle" x="260" y="-36" font-family="Helvetica,sans-Serif" font-size="10.00" fill="#000000">sys::event_poller</text>
</g>
<!-- Node1 -->
<g id="node5" class="node">
<title>Node1</title>
<g id="a_node5"><a xlink:href="group__concepts.html" target="_top" xlink:title="Group classes and functions by concept. ">
<polygon fill="#ffffff" stroke="#000000" points="0,-38.5 0,-57.5 79,-57.5 79,-38.5 0,-38.5"/>
<text text-anchor="middle" x="39.5" y="-45.5" font-family="Helvetica,sans-Serif" font-size="10.00" fill="#000000">C++ concepts</text>
</a>
</g>
</g>
<!-- Node1&#45;&gt;Node0 -->
<g id="edge1" class="edge">
<title>Node1&#45;&gt;Node0</title>
<path fill="none" stroke="#000000" d="M89.583,-48C98.4655,-48 107.5487,-48 115.9255,-48"/>
<polygon fill="#000000" stroke="#000000" points="89.3024,-44.5001 79.3024,-48 89.3023,-51.5001 89.3024,-44.5001"/>
</g>
</g>
</svg>
