<?xml version="1.0" encoding="UTF-8" standalone="no"?>
<!DOCTYPE svg PUBLIC "-//W3C//DTD SVG 1.1//EN"
 "http://www.w3.org/Graphics/SVG/1.1/DTD/svg11.dtd">
<!-- Generated by graphviz version 2.40.1 (20161225.0304)
 -->
<!-- Title: Mutexes Pages: 1 -->
<svg width="391pt" height="104pt"
 viewBox="0.00 0.00 391.00 104.00" xmlns="http://www.w3.org/2000/svg" xmlns:xlink="http://www.w3.org/1999/xlink">
<g id="graph0" class="graph" transform="scale(1 1) rotate(0) translate(4 100)">
<title>Mutexes</title>
<!-- Node3 -->
<g id="node1" class="node">
<title>Node3</title>
<g id="a_node1"><a xlink:href="group__ipc.html" target="_top" xlink:title="Resource management and parallel execution. ">
<polygon fill="none" stroke="#000000" points="311.5,-76.5 311.5,-95.5 374.5,-95.5 374.5,-76.5 311.5,-76.5"/>
<text text-anchor="middle" x="343" y="-83.5" font-family="Helvetica,sans-Serif" font-size="10.00" fill="#000000">Processes</text>
</a>
</g>
</g>
<!-- Node4 -->
<g id="node2" class="node">
<title>Node4</title>
<g id="a_node2"><a xlink:href="group__streambuf.html" target="_top" xlink:title="Classes with std::streambuf interface. ">
<polygon fill="none" stroke="#000000" points="303,-38.5 303,-57.5 383,-57.5 383,-38.5 303,-38.5"/>
<text text-anchor="middle" x="343" y="-45.5" font-family="Helvetica,sans-Serif" font-size="10.00" fill="#000000">Stream buffers</text>
</a>
</g>
</g>
<!-- Node2 -->
<g id="node3" class="node">
<title>Node2</title>
<g id="a_node3"><a xlink:href="group__fs.html" target="_top" xlink:title="File and directory manipulation. ">
<polygon fill="none" stroke="#000000" points="309,-.5 309,-19.5 377,-19.5 377,-.5 309,-.5"/>
<text text-anchor="middle" x="343" y="-7.5" font-family="Helvetica,sans-Serif" font-size="10.00" fill="#000000">File system</text>
</a>
</g>
</g>
<!-- Node0 -->
<g id="node4" class="node">
<title>Node0</title>
<polygon fill="#bfbfbf" stroke="#000000" points="116,-38.5 116,-57.5 170,-57.5 170,-38.5 116,-38.5"/>
<text text-anchor="middle" x="143" y="-45.5" font-family="Helvetica,sans-Serif" font-size="10.00" fill="#000000">Mutexes</text>
</g>
<!-- Node0&#45;&gt;Node3 -->
<g id="edge3" class="edge">
<title>Node0&#45;&gt;Node3</title>
<path fill="none" stroke="#ffa500" stroke-dasharray="5,2" d="M168.9518,-57.506C175.1345,-59.5317 181.7525,-61.5073 188,-63 230.0708,-73.0519 279.6742,-79.4899 311.2241,-82.9255"/>
<text text-anchor="middle" x="236.5" y="-82" font-family="Helvetica,sans-Serif" font-size="10.00" fill="#000000">sys::basic_shmembuf</text>
</g>
<!-- Node0&#45;&gt;Node4 -->
<g id="edge4" class="edge">
<title>Node0&#45;&gt;Node4</title>
<path fill="none" stroke="#ffa500" stroke-dasharray="5,2" d="M170.3898,-48C204.6241,-48 263.4914,-48 302.8277,-48"/>
<text text-anchor="middle" x="236.5" y="-51" font-family="Helvetica,sans-Serif" font-size="10.00" fill="#000000">sys::basic_shmembuf</text>
</g>
<!-- Node0&#45;&gt;Node2 -->
<g id="edge2" class="edge">
<title>Node0&#45;&gt;Node2</title>
<path fill="none" stroke="#ffa500" stroke-dasharray="5,2" d="M168.9518,-38.494C175.1345,-36.4683 181.7525,-34.4927 188,-33 229.0124,-23.201 277.1832,-16.8363 308.8091,-13.3395"/>
<text text-anchor="middle" x="236.5" y="-36" font-family="Helvetica,sans-Serif" font-size="10.00" fill="#000000">sys::file_mutex</text>
</g>
<!-- Node1 -->
<g id="node5" class="node">
<title>Node1</title>
<g id="a_node5"><a xlink:href="group__concepts.html" target="_top" xlink:title="Group classes and functions by concept. ">
<polygon fill="none" stroke="#000000" points="0,-38.5 0,-57.5 79,-57.5 79,-38.5 0,-38.5"/>
<text text-anchor="middle" x="39.5" y="-45.5" font-family="Helvetica,sans-Serif" font-size="10.00" fill="#000000">C++ concepts</text>
</a>
</g>
</g>
<!-- Node1&#45;&gt;Node0 -->
<g id="edge1" class="edge">
<title>Node1&#45;&gt;Node0</title>
<path fill="none" stroke="#000000" d="M89.3793,-48C98.4595,-48 107.6166,-48 115.7305,-48"/>
<polygon fill="#000000" stroke="#000000" points="89.2198,-44.5001 79.2198,-48 89.2198,-51.5001 89.2198,-44.5001"/>
</g>
</g>
</svg>
