<?xml version="1.0" encoding="UTF-8" standalone="no"?>
<!DOCTYPE svg PUBLIC "-//W3C//DTD SVG 1.1//EN"
 "http://www.w3.org/Graphics/SVG/1.1/DTD/svg11.dtd">
<!-- Generated by graphviz version 2.40.1 (20161225.0304)
 -->
<!-- Title: C++ concepts Pages: 1 -->
<svg width="203pt" height="332pt"
 viewBox="0.00 0.00 203.00 332.00" xmlns="http://www.w3.org/2000/svg" xmlns:xlink="http://www.w3.org/1999/xlink">
<g id="graph0" class="graph" transform="scale(1 1) rotate(0) translate(4 328)">
<title>C++ concepts</title>
<polygon fill="#ffffff" stroke="transparent" points="-4,4 -4,-328 199,-328 199,4 -4,4"/>
<!-- Node1 -->
<g id="node1" class="node">
<title>Node1</title>
<g id="a_node1"><a xlink:href="group__container.html" target="_top" xlink:title="Classes with container interface. ">
<polygon fill="#ffffff" stroke="#000000" points="123,-304.5 123,-323.5 187,-323.5 187,-304.5 123,-304.5"/>
<text text-anchor="middle" x="155" y="-311.5" font-family="Helvetica,sans-Serif" font-size="10.00" fill="#000000">Containers</text>
</a>
</g>
</g>
<!-- Node3 -->
<g id="node2" class="node">
<title>Node3</title>
<g id="a_node2"><a xlink:href="group__stream.html" target="_top" xlink:title="Classes with member input/output operators. ">
<polygon fill="#ffffff" stroke="#000000" points="128.5,-266.5 128.5,-285.5 181.5,-285.5 181.5,-266.5 128.5,-266.5"/>
<text text-anchor="middle" x="155" y="-273.5" font-family="Helvetica,sans-Serif" font-size="10.00" fill="#000000">Streams</text>
</a>
</g>
</g>
<!-- Node9 -->
<g id="node3" class="node">
<title>Node9</title>
<g id="a_node3"><a xlink:href="group__exception.html" target="_top" xlink:title="Exception classes. ">
<polygon fill="#ffffff" stroke="#000000" points="122.5,-228.5 122.5,-247.5 187.5,-247.5 187.5,-228.5 122.5,-228.5"/>
<text text-anchor="middle" x="155" y="-235.5" font-family="Helvetica,sans-Serif" font-size="10.00" fill="#000000">Exceptions</text>
</a>
</g>
</g>
<!-- Node2 -->
<g id="node4" class="node">
<title>Node2</title>
<g id="a_node4"><a xlink:href="group__iter.html" target="_top" xlink:title="Classes with iterator interface. ">
<polygon fill="#ffffff" stroke="#000000" points="128.5,-190.5 128.5,-209.5 181.5,-209.5 181.5,-190.5 128.5,-190.5"/>
<text text-anchor="middle" x="155" y="-197.5" font-family="Helvetica,sans-Serif" font-size="10.00" fill="#000000">Iterators</text>
</a>
</g>
</g>
<!-- Node7 -->
<g id="node5" class="node">
<title>Node7</title>
<g id="a_node5"><a xlink:href="group__guard.html" target="_top" xlink:title="Sentry objects that enforce invariants with RAII. ">
<polygon fill="#ffffff" stroke="#000000" points="131,-152.5 131,-171.5 179,-171.5 179,-152.5 131,-152.5"/>
<text text-anchor="middle" x="155" y="-159.5" font-family="Helvetica,sans-Serif" font-size="10.00" fill="#000000">Guards</text>
</a>
</g>
</g>
<!-- Node4 -->
<g id="node6" class="node">
<title>Node4</title>
<g id="a_node6"><a xlink:href="group__streambuf.html" target="_top" xlink:title="Classes with std::streambuf interface. ">
<polygon fill="#ffffff" stroke="#000000" points="115,-114.5 115,-133.5 195,-133.5 195,-114.5 115,-114.5"/>
<text text-anchor="middle" x="155" y="-121.5" font-family="Helvetica,sans-Serif" font-size="10.00" fill="#000000">Stream buffers</text>
</a>
</g>
</g>
<!-- Node6 -->
<g id="node7" class="node">
<title>Node6</title>
<g id="a_node7"><a xlink:href="group__semaphore.html" target="_top" xlink:title="Classes with std::condition_variable interface. ">
<polygon fill="#ffffff" stroke="#000000" points="119.5,-76.5 119.5,-95.5 190.5,-95.5 190.5,-76.5 119.5,-76.5"/>
<text text-anchor="middle" x="155" y="-83.5" font-family="Helvetica,sans-Serif" font-size="10.00" fill="#000000">Semaphores</text>
</a>
</g>
</g>
<!-- Node8 -->
<g id="node8" class="node">
<title>Node8</title>
<g id="a_node8"><a xlink:href="group__traits.html" target="_top" xlink:title="Traits classes. ">
<polygon fill="#ffffff" stroke="#000000" points="134.5,-38.5 134.5,-57.5 175.5,-57.5 175.5,-38.5 134.5,-38.5"/>
<text text-anchor="middle" x="155" y="-45.5" font-family="Helvetica,sans-Serif" font-size="10.00" fill="#000000">Traits</text>
</a>
</g>
</g>
<!-- Node5 -->
<g id="node9" class="node">
<title>Node5</title>
<g id="a_node9"><a xlink:href="group__mutex.html" target="_top" xlink:title="Classes with std::mutex interface. ">
<polygon fill="#ffffff" stroke="#000000" points="128,-.5 128,-19.5 182,-19.5 182,-.5 128,-.5"/>
<text text-anchor="middle" x="155" y="-7.5" font-family="Helvetica,sans-Serif" font-size="10.00" fill="#000000">Mutexes</text>
</a>
</g>
</g>
<!-- Node0 -->
<g id="node10" class="node">
<title>Node0</title>
<polygon fill="#bfbfbf" stroke="#000000" points="0,-152.5 0,-171.5 79,-171.5 79,-152.5 0,-152.5"/>
<text text-anchor="middle" x="39.5" y="-159.5" font-family="Helvetica,sans-Serif" font-size="10.00" fill="#000000">C++ concepts</text>
</g>
<!-- Node0&#45;&gt;Node1 -->
<g id="edge1" class="edge">
<title>Node0&#45;&gt;Node1</title>
<path fill="none" stroke="#000000" d="M46.0998,-181.1832C56.6627,-209.4052 79.8241,-262.298 115,-295 118.9415,-298.6643 123.7182,-301.7452 128.5786,-304.2879"/>
<polygon fill="#000000" stroke="#000000" points="49.3537,-179.8887 42.6695,-171.6684 42.7685,-182.2627 49.3537,-179.8887"/>
</g>
<!-- Node0&#45;&gt;Node3 -->
<g id="edge3" class="edge">
<title>Node0&#45;&gt;Node3</title>
<path fill="none" stroke="#000000" d="M50.2522,-180.0676C63.3664,-200.8557 87.2494,-234.953 115,-257 119.5749,-260.6346 124.9588,-263.7857 130.2682,-266.4201"/>
<polygon fill="#000000" stroke="#000000" points="53.2297,-178.2279 45.0093,-171.5439 47.2673,-181.8954 53.2297,-178.2279"/>
</g>
<!-- Node0&#45;&gt;Node9 -->
<g id="edge9" class="edge">
<title>Node0&#45;&gt;Node9</title>
<path fill="none" stroke="#000000" d="M58.6638,-178.1982C73.481,-190.2858 94.8076,-206.7568 115,-219 120.5222,-222.3483 126.7271,-225.5449 132.5721,-228.3289"/>
<polygon fill="#000000" stroke="#000000" points="60.6863,-175.329 50.7497,-171.6528 56.225,-180.7232 60.6863,-175.329"/>
</g>
<!-- Node0&#45;&gt;Node2 -->
<g id="edge2" class="edge">
<title>Node0&#45;&gt;Node2</title>
<path fill="none" stroke="#000000" d="M78.4874,-174.827C94.8496,-180.2103 113.4662,-186.3352 128.2389,-191.1955"/>
<polygon fill="#000000" stroke="#000000" points="79.2385,-171.3896 68.6455,-171.589 77.0508,-178.039 79.2385,-171.3896"/>
</g>
<!-- Node0&#45;&gt;Node7 -->
<g id="edge7" class="edge">
<title>Node0&#45;&gt;Node7</title>
<path fill="none" stroke="#000000" d="M89.4825,-162C103.7641,-162 118.6912,-162 130.684,-162"/>
<polygon fill="#000000" stroke="#000000" points="89.2486,-158.5001 79.2485,-162 89.2485,-165.5001 89.2486,-158.5001"/>
</g>
<!-- Node0&#45;&gt;Node4 -->
<g id="edge4" class="edge">
<title>Node0&#45;&gt;Node4</title>
<path fill="none" stroke="#000000" d="M78.4841,-149.1741C93.9817,-144.0753 111.5024,-138.3109 125.8638,-133.5859"/>
<polygon fill="#000000" stroke="#000000" points="77.0508,-145.961 68.6455,-152.411 79.2385,-152.6104 77.0508,-145.961"/>
</g>
<!-- Node0&#45;&gt;Node6 -->
<g id="edge6" class="edge">
<title>Node0&#45;&gt;Node6</title>
<path fill="none" stroke="#000000" d="M58.6638,-145.8018C73.481,-133.7142 94.8076,-117.2432 115,-105 120.5222,-101.6517 126.7271,-98.4551 132.5721,-95.6711"/>
<polygon fill="#000000" stroke="#000000" points="56.225,-143.2768 50.7497,-152.3472 60.6863,-148.671 56.225,-143.2768"/>
</g>
<!-- Node0&#45;&gt;Node8 -->
<g id="edge8" class="edge">
<title>Node0&#45;&gt;Node8</title>
<path fill="none" stroke="#000000" d="M50.2522,-143.9324C63.3664,-123.1443 87.2494,-89.047 115,-67 120.7788,-62.4089 127.8485,-58.5893 134.4283,-55.6081"/>
<polygon fill="#000000" stroke="#000000" points="47.2673,-142.1046 45.0093,-152.4561 53.2297,-145.7721 47.2673,-142.1046"/>
</g>
<!-- Node0&#45;&gt;Node5 -->
<g id="edge5" class="edge">
<title>Node0&#45;&gt;Node5</title>
<path fill="none" stroke="#000000" d="M46.0998,-142.8168C56.6627,-114.5948 79.8241,-61.702 115,-29 118.9415,-25.3357 123.7182,-22.2548 128.5786,-19.7121"/>
<polygon fill="#000000" stroke="#000000" points="42.7685,-141.7373 42.6695,-152.3316 49.3537,-144.1113 42.7685,-141.7373"/>
</g>
</g>
</svg>
