<?xml version="1.0" encoding="UTF-8" standalone="no"?>
<!DOCTYPE svg PUBLIC "-//W3C//DTD SVG 1.1//EN"
 "http://www.w3.org/Graphics/SVG/1.1/DTD/svg11.dtd">
<!-- Generated by graphviz version 2.40.1 (20161225.0304)
 -->
<!-- Title: Network Pages: 1 -->
<svg width="401pt" height="348pt"
 viewBox="0.00 0.00 401.00 348.00" xmlns="http://www.w3.org/2000/svg" xmlns:xlink="http://www.w3.org/1999/xlink">
<g id="graph0" class="graph" transform="scale(1 1) rotate(0) translate(4 344)">
<title>Network</title>
<polygon fill="#ffffff" stroke="transparent" points="-4,4 -4,-344 397,-344 397,4 -4,4"/>
<!-- Node3 -->
<g id="node1" class="node">
<title>Node3</title>
<g id="a_node1"><a xlink:href="group__container.html" target="_top" xlink:title="Classes with container interface. ">
<polygon fill="#ffffff" stroke="#000000" points="329,-303.5 329,-322.5 393,-322.5 393,-303.5 329,-303.5"/>
<text text-anchor="middle" x="361" y="-310.5" font-family="Helvetica,sans-Serif" font-size="10.00" fill="#000000">Containers</text>
</a>
</g>
</g>
<!-- Node2 -->
<g id="node2" class="node">
<title>Node2</title>
<g id="a_node2"><a xlink:href="group__stream.html" target="_top" xlink:title="Classes with member input/output operators. ">
<polygon fill="#ffffff" stroke="#000000" points="334.5,-258.5 334.5,-277.5 387.5,-277.5 387.5,-258.5 334.5,-258.5"/>
<text text-anchor="middle" x="361" y="-265.5" font-family="Helvetica,sans-Serif" font-size="10.00" fill="#000000">Streams</text>
</a>
</g>
</g>
<!-- Node6 -->
<g id="node3" class="node">
<title>Node6</title>
<g id="a_node3"><a xlink:href="group__iter.html" target="_top" xlink:title="Classes with iterator interface. ">
<polygon fill="#ffffff" stroke="#000000" points="334.5,-169.5 334.5,-188.5 387.5,-188.5 387.5,-169.5 334.5,-169.5"/>
<text text-anchor="middle" x="361" y="-176.5" font-family="Helvetica,sans-Serif" font-size="10.00" fill="#000000">Iterators</text>
</a>
</g>
</g>
<!-- Node5 -->
<g id="node4" class="node">
<title>Node5</title>
<g id="a_node4"><a xlink:href="group__wrapper.html" target="_top" xlink:title="Wrappers for system structures. ">
<polygon fill="#ffffff" stroke="#000000" points="331.5,-81.5 331.5,-100.5 390.5,-100.5 390.5,-81.5 331.5,-81.5"/>
<text text-anchor="middle" x="361" y="-88.5" font-family="Helvetica,sans-Serif" font-size="10.00" fill="#000000">Wrappers</text>
</a>
</g>
</g>
<!-- Node4 -->
<g id="node5" class="node">
<title>Node4</title>
<g id="a_node5"><a xlink:href="group__guard.html" target="_top" xlink:title="Sentry objects that enforce invariants with RAII. ">
<polygon fill="#ffffff" stroke="#000000" points="337,-43.5 337,-62.5 385,-62.5 385,-43.5 337,-43.5"/>
<text text-anchor="middle" x="361" y="-50.5" font-family="Helvetica,sans-Serif" font-size="10.00" fill="#000000">Guards</text>
</a>
</g>
</g>
<!-- Node0 -->
<g id="node6" class="node">
<title>Node0</title>
<polygon fill="#bfbfbf" stroke="#000000" points="144,-124.5 144,-143.5 197,-143.5 197,-124.5 144,-124.5"/>
<text text-anchor="middle" x="170.5" y="-131.5" font-family="Helvetica,sans-Serif" font-size="10.00" fill="#000000">Network</text>
</g>
<!-- Node0&#45;&gt;Node3 -->
<g id="edge3" class="edge">
<title>Node0&#45;&gt;Node3</title>
<path fill="none" stroke="#ffa500" stroke-dasharray="5,2" d="M171.8634,-143.6732C176.4394,-174.7155 192.2515,-270.9642 215,-291 246.0663,-318.3618 296.0413,-319.9564 328.7036,-317.4051"/>
<text text-anchor="middle" x="263" y="-332" font-family="Helvetica,sans-Serif" font-size="10.00" fill="#000000">sys::bytes</text>
<text text-anchor="middle" x="263" y="-321" font-family="Helvetica,sans-Serif" font-size="10.00" fill="#000000">sys::netlink_container</text>
</g>
<!-- Node0&#45;&gt;Node2 -->
<g id="edge2" class="edge">
<title>Node0&#45;&gt;Node2</title>
<path fill="none" stroke="#ffa500" stroke-dasharray="5,2" d="M171.2604,-143.5675C173.5442,-165.3962 182.365,-218.9914 215,-245 232.9597,-259.3131 297.1843,-264.8551 334.1946,-266.894"/>
<text text-anchor="middle" x="263" y="-279" font-family="Helvetica,sans-Serif" font-size="10.00" fill="#000000">sys::basic_bstream</text>
<text text-anchor="middle" x="263" y="-268" font-family="Helvetica,sans-Serif" font-size="10.00" fill="#000000">sys::basic_pstream</text>
</g>
<!-- Node0&#45;&gt;Node6 -->
<g id="edge6" class="edge">
<title>Node0&#45;&gt;Node6</title>
<path fill="none" stroke="#ffa500" stroke-dasharray="5,2" d="M186.0169,-143.6202C194.327,-148.3532 204.9066,-153.7301 215,-157 255.3581,-170.0748 304.554,-175.439 334.2933,-177.5977"/>
<text text-anchor="middle" x="263" y="-233" font-family="Helvetica,sans-Serif" font-size="10.00" fill="#000000">sys::ifaddrs_iterator</text>
<text text-anchor="start" x="215" y="-222" font-family="Helvetica,sans-Serif" font-size="10.00" fill="#000000">sys::netlink_attribute</text>
<text text-anchor="middle" x="263" y="-211" font-family="Helvetica,sans-Serif" font-size="10.00" fill="#000000">_iterator</text>
<text text-anchor="start" x="215" y="-200" font-family="Helvetica,sans-Serif" font-size="10.00" fill="#000000">sys::netlink_message</text>
<text text-anchor="middle" x="263" y="-189" font-family="Helvetica,sans-Serif" font-size="10.00" fill="#000000">_iterator</text>
<text text-anchor="middle" x="263" y="-178" font-family="Helvetica,sans-Serif" font-size="10.00" fill="#000000">sys::subnet_iterator</text>
</g>
<!-- Node0&#45;&gt;Node5 -->
<g id="edge5" class="edge">
<title>Node0&#45;&gt;Node5</title>
<path fill="none" stroke="#ffa500" stroke-dasharray="5,2" d="M177.0022,-124.271C184.6635,-113.7794 198.4659,-97.6832 215,-91 252.8351,-75.7068 300.8271,-79.6496 331.2359,-84.6819"/>
<text text-anchor="middle" x="263" y="-149" font-family="Helvetica,sans-Serif" font-size="10.00" fill="#000000">sys::endpoint</text>
<text text-anchor="middle" x="263" y="-138" font-family="Helvetica,sans-Serif" font-size="10.00" fill="#000000">sys::netlink_header</text>
<text text-anchor="middle" x="263" y="-127" font-family="Helvetica,sans-Serif" font-size="10.00" fill="#000000">sys::rtattributes</text>
<text text-anchor="middle" x="263" y="-116" font-family="Helvetica,sans-Serif" font-size="10.00" fill="#000000">sys::ifaddr_message</text>
<text text-anchor="start" x="217.5" y="-105" font-family="Helvetica,sans-Serif" font-size="10.00" fill="#000000">sys::ifaddr_message</text>
<text text-anchor="middle" x="263" y="-94" font-family="Helvetica,sans-Serif" font-size="10.00" fill="#000000">_header</text>
</g>
<!-- Node0&#45;&gt;Node4 -->
<g id="edge4" class="edge">
<title>Node0&#45;&gt;Node4</title>
<path fill="none" stroke="#ffa500" stroke-dasharray="5,2" d="M173.7964,-124.0566C179.487,-108.6375 192.7346,-79.3485 215,-66 252.7584,-43.3631 306.1593,-45.3845 336.8173,-49.0749"/>
<text text-anchor="middle" x="263" y="-69" font-family="Helvetica,sans-Serif" font-size="10.00" fill="#000000">sys::endian_guard</text>
</g>
<!-- Node7 -->
<g id="node7" class="node">
<title>Node7</title>
<g id="a_node7"><a xlink:href="group__traits.html" target="_top" xlink:title="Traits classes. ">
<polygon fill="#ffffff" stroke="#000000" points="340.5,-.5 340.5,-19.5 381.5,-19.5 381.5,-.5 340.5,-.5"/>
<text text-anchor="middle" x="361" y="-7.5" font-family="Helvetica,sans-Serif" font-size="10.00" fill="#000000">Traits</text>
</a>
</g>
</g>
<!-- Node0&#45;&gt;Node7 -->
<g id="edge7" class="edge">
<title>Node0&#45;&gt;Node7</title>
<path fill="none" stroke="#ffa500" stroke-dasharray="5,2" d="M171.0292,-124.4117C172.8325,-102.0203 180.7221,-46.2782 215,-21 252.0287,6.3068 309.6809,.4989 340.2833,-5.2479"/>
<text text-anchor="start" x="216.5" y="-35" font-family="Helvetica,sans-Serif" font-size="10.00" fill="#000000">sys::streambuf_traits</text>
<text text-anchor="middle" x="263" y="-24" font-family="Helvetica,sans-Serif" font-size="10.00" fill="#000000">&lt; socket &gt;</text>
</g>
<!-- Node1 -->
<g id="node8" class="node">
<title>Node1</title>
<g id="a_node8"><a xlink:href="group__system.html" target="_top" xlink:title="System calls and system structures wrappers. ">
<polygon fill="#ffffff" stroke="#000000" points="0,-124.5 0,-143.5 107,-143.5 107,-124.5 0,-124.5"/>
<text text-anchor="middle" x="53.5" y="-131.5" font-family="Helvetica,sans-Serif" font-size="10.00" fill="#000000">System abstractions</text>
</a>
</g>
</g>
<!-- Node1&#45;&gt;Node0 -->
<g id="edge1" class="edge">
<title>Node1&#45;&gt;Node0</title>
<path fill="none" stroke="#000000" d="M117.3734,-134C126.7188,-134 135.8798,-134 143.8914,-134"/>
<polygon fill="#000000" stroke="#000000" points="117.206,-130.5001 107.206,-134 117.2059,-137.5001 117.206,-130.5001"/>
</g>
</g>
</svg>
