<?xml version="1.0" encoding="UTF-8" standalone="no"?>
<!DOCTYPE svg PUBLIC "-//W3C//DTD SVG 1.1//EN"
 "http://www.w3.org/Graphics/SVG/1.1/DTD/svg11.dtd">
<!-- Generated by graphviz version 2.40.1 (20161225.0304)
 -->
<!-- Title: Traits Pages: 1 -->
<svg width="348pt" height="126pt"
 viewBox="0.00 0.00 348.00 125.71" xmlns="http://www.w3.org/2000/svg" xmlns:xlink="http://www.w3.org/1999/xlink">
<g id="graph0" class="graph" transform="scale(1 1) rotate(0) translate(4 121.7077)">
<title>Traits</title>
<polygon fill="#ffffff" stroke="transparent" points="-4,4 -4,-121.7077 344,-121.7077 344,4 -4,4"/>
<!-- Node3 -->
<g id="node1" class="node">
<title>Node3</title>
<g id="a_node1"><a xlink:href="group__net.html" target="_top" xlink:title="Network abstractions. ">
<polygon fill="#ffffff" stroke="#000000" points="287,-90.2077 287,-109.2077 340,-109.2077 340,-90.2077 287,-90.2077"/>
<text text-anchor="middle" x="313.5" y="-97.2077" font-family="Helvetica,sans-Serif" font-size="10.00" fill="#000000">Network</text>
</a>
</g>
</g>
<!-- Node0 -->
<g id="node2" class="node">
<title>Node0</title>
<polygon fill="#bfbfbf" stroke="#000000" points="116,-45.2077 116,-64.2077 157,-64.2077 157,-45.2077 116,-45.2077"/>
<text text-anchor="middle" x="136.5" y="-52.2077" font-family="Helvetica,sans-Serif" font-size="10.00" fill="#000000">Traits</text>
</g>
<!-- Node0&#45;&gt;Node3 -->
<g id="edge3" class="edge">
<title>Node0&#45;&gt;Node3</title>
<path fill="none" stroke="#ffa500" stroke-dasharray="5,2" d="M149.7629,-64.353C156.9082,-69.0928 166.0706,-74.4682 175,-77.7077 212.4203,-91.2831 258.5364,-96.4919 286.977,-98.4837"/>
<text text-anchor="start" x="175.5" y="-109.7077" font-family="Helvetica,sans-Serif" font-size="10.00" fill="#000000">sys::streambuf_traits</text>
<text text-anchor="middle" x="222" y="-98.7077" font-family="Helvetica,sans-Serif" font-size="10.00" fill="#000000">&lt; socket &gt;</text>
</g>
<!-- Node2 -->
<g id="node3" class="node">
<title>Node2</title>
<g id="a_node3"><a xlink:href="group__io.html" target="_top" xlink:title="Input/output handling. ">
<polygon fill="#ffffff" stroke="#000000" points="299,-1.2077 299,-20.2077 328,-20.2077 328,-1.2077 299,-1.2077"/>
<text text-anchor="middle" x="313.5" y="-8.2077" font-family="Helvetica,sans-Serif" font-size="10.00" fill="#000000">IO</text>
</a>
</g>
</g>
<!-- Node0&#45;&gt;Node2 -->
<g id="edge2" class="edge">
<title>Node0&#45;&gt;Node2</title>
<path fill="none" stroke="#ffa500" stroke-dasharray="5,2" d="M141.8078,-45.0374C148.1514,-34.5984 159.8384,-18.5492 175,-11.7077 216.6435,7.0837 272.7641,-1.4675 298.9333,-7.1257"/>
<text text-anchor="start" x="175" y="-69.7077" font-family="Helvetica,sans-Serif" font-size="10.00" fill="#000000">sys::fildes_streambuf</text>
<text text-anchor="middle" x="222" y="-58.7077" font-family="Helvetica,sans-Serif" font-size="10.00" fill="#000000">_traits</text>
<text text-anchor="start" x="175" y="-47.7077" font-family="Helvetica,sans-Serif" font-size="10.00" fill="#000000">sys::streambuf_traits</text>
<text text-anchor="middle" x="222" y="-36.7077" font-family="Helvetica,sans-Serif" font-size="10.00" fill="#000000">&lt; fildes &gt;</text>
<text text-anchor="start" x="175" y="-25.7077" font-family="Helvetica,sans-Serif" font-size="10.00" fill="#000000">sys::streambuf_traits</text>
<text text-anchor="middle" x="222" y="-14.7077" font-family="Helvetica,sans-Serif" font-size="10.00" fill="#000000">&lt; fd_type &gt;</text>
</g>
<!-- Node1 -->
<g id="node4" class="node">
<title>Node1</title>
<g id="a_node4"><a xlink:href="group__concepts.html" target="_top" xlink:title="Group classes and functions by concept. ">
<polygon fill="#ffffff" stroke="#000000" points="0,-45.2077 0,-64.2077 79,-64.2077 79,-45.2077 0,-45.2077"/>
<text text-anchor="middle" x="39.5" y="-52.2077" font-family="Helvetica,sans-Serif" font-size="10.00" fill="#000000">C++ concepts</text>
</a>
</g>
</g>
<!-- Node1&#45;&gt;Node0 -->
<g id="edge1" class="edge">
<title>Node1&#45;&gt;Node0</title>
<path fill="none" stroke="#000000" d="M89.3454,-54.7077C98.7008,-54.7077 107.9895,-54.7077 115.8175,-54.7077"/>
<polygon fill="#000000" stroke="#000000" points="89.2335,-51.2078 79.2335,-54.7077 89.2335,-58.2078 89.2335,-51.2078"/>
</g>
</g>
</svg>
