<?xml version="1.0" encoding="UTF-8" standalone="no"?>
<!DOCTYPE svg PUBLIC "-//W3C//DTD SVG 1.1//EN"
 "http://www.w3.org/Graphics/SVG/1.1/DTD/svg11.dtd">
<!-- Generated by graphviz version 2.40.1 (20161225.0304)
 -->
<!-- Title: Guards Pages: 1 -->
<svg width="351pt" height="66pt"
 viewBox="0.00 0.00 351.00 66.00" xmlns="http://www.w3.org/2000/svg" xmlns:xlink="http://www.w3.org/1999/xlink">
<g id="graph0" class="graph" transform="scale(1 1) rotate(0) translate(4 62)">
<title>Guards</title>
<!-- Node0 -->
<g id="node1" class="node">
<title>Node0</title>
<polygon fill="#bfbfbf" stroke="#000000" points="116,-19.5 116,-38.5 164,-38.5 164,-19.5 116,-19.5"/>
<text text-anchor="middle" x="140" y="-26.5" font-family="Helvetica,sans-Serif" font-size="10.00" fill="#000000">Guards</text>
</g>
<!-- Node2 -->
<g id="node2" class="node">
<title>Node2</title>
<g id="a_node2"><a xlink:href="group__ipc.html" target="_top" xlink:title="Resource management and parallel execution. ">
<polygon fill="none" stroke="#000000" points="280,-38.5 280,-57.5 343,-57.5 343,-38.5 280,-38.5"/>
<text text-anchor="middle" x="311.5" y="-45.5" font-family="Helvetica,sans-Serif" font-size="10.00" fill="#000000">Processes</text>
</a>
</g>
</g>
<!-- Node0&#45;&gt;Node2 -->
<g id="edge2" class="edge">
<title>Node0&#45;&gt;Node2</title>
<path fill="none" stroke="#ffa500" stroke-dasharray="5,2" d="M164.208,-31.6819C194.493,-35.0371 246.424,-40.7904 279.8381,-44.4923"/>
<text text-anchor="middle" x="222" y="-45" font-family="Helvetica,sans-Serif" font-size="10.00" fill="#000000">sys::signal_guard</text>
</g>
<!-- Node3 -->
<g id="node3" class="node">
<title>Node3</title>
<g id="a_node3"><a xlink:href="group__net.html" target="_top" xlink:title="Network abstractions. ">
<polygon fill="none" stroke="#000000" points="285,-.5 285,-19.5 338,-19.5 338,-.5 285,-.5"/>
<text text-anchor="middle" x="311.5" y="-7.5" font-family="Helvetica,sans-Serif" font-size="10.00" fill="#000000">Network</text>
</a>
</g>
</g>
<!-- Node0&#45;&gt;Node3 -->
<g id="edge3" class="edge">
<title>Node0&#45;&gt;Node3</title>
<path fill="none" stroke="#ffa500" stroke-dasharray="5,2" d="M164.2964,-22.4996C170.0639,-21.1559 176.2205,-19.8827 182,-19 217.2,-13.6237 258.2792,-11.4555 284.5721,-10.5833"/>
<text text-anchor="middle" x="222" y="-22" font-family="Helvetica,sans-Serif" font-size="10.00" fill="#000000">sys::endian_guard</text>
</g>
<!-- Node1 -->
<g id="node4" class="node">
<title>Node1</title>
<g id="a_node4"><a xlink:href="group__concepts.html" target="_top" xlink:title="Group classes and functions by concept. ">
<polygon fill="none" stroke="#000000" points="0,-19.5 0,-38.5 79,-38.5 79,-19.5 0,-19.5"/>
<text text-anchor="middle" x="39.5" y="-26.5" font-family="Helvetica,sans-Serif" font-size="10.00" fill="#000000">C++ concepts</text>
</a>
</g>
</g>
<!-- Node1&#45;&gt;Node0 -->
<g id="edge1" class="edge">
<title>Node1&#45;&gt;Node0</title>
<path fill="none" stroke="#000000" d="M89.2308,-29C98.5201,-29 107.8331,-29 115.8998,-29"/>
<polygon fill="#000000" stroke="#000000" points="89.2203,-25.5001 79.2203,-29 89.2202,-32.5001 89.2203,-25.5001"/>
</g>
</g>
</svg>
