<?xml version="1.0" encoding="UTF-8" standalone="no"?>
<!DOCTYPE svg PUBLIC "-//W3C//DTD SVG 1.1//EN"
 "http://www.w3.org/Graphics/SVG/1.1/DTD/svg11.dtd">
<!-- Generated by graphviz version 2.40.1 (20161225.0304)
 -->
<!-- Title: Graphical Class Hierarchy Pages: 1 -->
<svg width="293pt" height="100pt"
 viewBox="0.00 0.00 293.00 99.50" xmlns="http://www.w3.org/2000/svg" xmlns:xlink="http://www.w3.org/1999/xlink">
<g id="graph0" class="graph" transform="scale(1 1) rotate(0) translate(4 95.5)">
<title>Graphical Class Hierarchy</title>
<polygon fill="#ffffff" stroke="transparent" points="-4,4 -4,-95.5 289,-95.5 289,4 -4,4"/>
<!-- Node0 -->
<g id="node1" class="node">
<title>Node0</title>
<g id="a_node1"><a doxygen="/home/igankevich/repos/dev/specs/build/unistdx/build/std.tag.xml:http://en.cppreference.com/w/" xlink:href="http://en.cppreference.com/w/cpp/utility/hash.html" xlink:title="std::hash\&lt; std::basic\l_string\&lt; Ch, Tr, Alloc \&gt; \&gt;">
<polygon fill="#ffffff" stroke="#000000" points="0,-27.5 0,-57.5 127,-57.5 127,-27.5 0,-27.5"/>
<text text-anchor="start" x="8" y="-45.5" font-family="Helvetica,sans-Serif" font-size="10.00" fill="#000000">std::hash&lt; std::basic</text>
<text text-anchor="middle" x="63.5" y="-34.5" font-family="Helvetica,sans-Serif" font-size="10.00" fill="#000000">_string&lt; Ch, Tr, Alloc &gt; &gt;</text>
</a>
</g>
</g>
<!-- Node1 -->
<g id="node2" class="node">
<title>Node1</title>
<g id="a_node2"><a xlink:href="structstd_1_1hash_3_01sys_1_1basic__canonical__path_3_01Ch_00_01Tr_00_01Alloc_01_4_01_4.html" target="_top" xlink:title="Specialisation of std::hash for sys::basic_canonical_path. ">
<polygon fill="#ffffff" stroke="#000000" points="168,-50 168,-91 280,-91 280,-50 168,-50"/>
<text text-anchor="start" x="176" y="-79" font-family="Helvetica,sans-Serif" font-size="10.00" fill="#000000">std::hash&lt; sys::basic</text>
<text text-anchor="start" x="176" y="-68" font-family="Helvetica,sans-Serif" font-size="10.00" fill="#000000">_canonical_path&lt; Ch,</text>
<text text-anchor="middle" x="224" y="-57" font-family="Helvetica,sans-Serif" font-size="10.00" fill="#000000"> Tr, Alloc &gt; &gt;</text>
</a>
</g>
</g>
<!-- Node0&#45;&gt;Node1 -->
<g id="edge1" class="edge">
<title>Node0&#45;&gt;Node1</title>
<path fill="none" stroke="#191970" d="M137.5204,-55.4132C147.7153,-57.1918 158.0452,-58.9939 167.8464,-60.7037"/>
<polygon fill="#191970" stroke="#191970" points="137.8478,-51.9175 127.395,-53.6468 136.6447,-58.8134 137.8478,-51.9175"/>
</g>
<!-- Node2 -->
<g id="node3" class="node">
<title>Node2</title>
<g id="a_node3"><a xlink:href="structstd_1_1hash_3_01sys_1_1basic__path_3_01Ch_00_01Tr_00_01Alloc_01_4_01_4.html" target="_top" xlink:title="Specialisation of std::hash for sys::basic_path. ">
<polygon fill="#ffffff" stroke="#000000" points="163,-.5 163,-30.5 285,-30.5 285,-.5 163,-.5"/>
<text text-anchor="start" x="171" y="-18.5" font-family="Helvetica,sans-Serif" font-size="10.00" fill="#000000">std::hash&lt; sys::basic</text>
<text text-anchor="middle" x="224" y="-7.5" font-family="Helvetica,sans-Serif" font-size="10.00" fill="#000000">_path&lt; Ch, Tr, Alloc &gt; &gt;</text>
</a>
</g>
</g>
<!-- Node0&#45;&gt;Node2 -->
<g id="edge2" class="edge">
<title>Node0&#45;&gt;Node2</title>
<path fill="none" stroke="#191970" d="M137.3705,-30.0732C145.9262,-28.6339 154.5793,-27.1783 162.9373,-25.7722"/>
<polygon fill="#191970" stroke="#191970" points="136.6758,-26.6408 127.395,-31.7513 137.8371,-33.5438 136.6758,-26.6408"/>
</g>
</g>
</svg>
