<?xml version="1.0" encoding="UTF-8" standalone="no"?>
<!DOCTYPE svg PUBLIC "-//W3C//DTD SVG 1.1//EN"
 "http://www.w3.org/Graphics/SVG/1.1/DTD/svg11.dtd">
<!-- Generated by graphviz version 2.40.1 (20161225.0304)
 -->
<!-- Title: Graphical Class Hierarchy Pages: 1 -->
<svg width="344pt" height="39pt"
 viewBox="0.00 0.00 344.00 39.00" xmlns="http://www.w3.org/2000/svg" xmlns:xlink="http://www.w3.org/1999/xlink">
<g id="graph0" class="graph" transform="scale(1 1) rotate(0) translate(4 35)">
<title>Graphical Class Hierarchy</title>
<polygon fill="#ffffff" stroke="transparent" points="-4,4 -4,-35 340,-35 340,4 -4,4"/>
<!-- Node49 -->
<g id="node1" class="node">
<title>Node49</title>
<polygon fill="#ffffff" stroke="#bfbfbf" points="0,-6 0,-25 56,-25 56,-6 0,-6"/>
<text text-anchor="middle" x="28" y="-13" font-family="Helvetica,sans-Serif" font-size="10.00" fill="#000000">nlmsghdr</text>
</g>
<!-- Node0 -->
<g id="node2" class="node">
<title>Node0</title>
<g id="a_node2"><a xlink:href="classsys_1_1netlink__header.html" target="_top" xlink:title="Netlink message header. ">
<polygon fill="#ffffff" stroke="#000000" points="92,-6 92,-25 193,-25 193,-6 92,-6"/>
<text text-anchor="middle" x="142.5" y="-13" font-family="Helvetica,sans-Serif" font-size="10.00" fill="#000000">sys::netlink_header</text>
</a>
</g>
</g>
<!-- Node49&#45;&gt;Node0 -->
<g id="edge1" class="edge">
<title>Node49&#45;&gt;Node0</title>
<path fill="none" stroke="#191970" d="M66.1259,-15.5C74.4159,-15.5 83.3104,-15.5 91.9948,-15.5"/>
<polygon fill="#191970" stroke="#191970" points="66.0099,-12.0001 56.0099,-15.5 66.0098,-19.0001 66.0099,-12.0001"/>
</g>
<!-- Node1 -->
<g id="node3" class="node">
<title>Node1</title>
<g id="a_node3"><a xlink:href="classsys_1_1ifaddr__message__header.html" target="_top" xlink:title="Netlink interface address message header. ">
<polygon fill="#ffffff" stroke="#000000" points="229,-.5 229,-30.5 336,-30.5 336,-.5 229,-.5"/>
<text text-anchor="start" x="237" y="-18.5" font-family="Helvetica,sans-Serif" font-size="10.00" fill="#000000">sys::ifaddr_message</text>
<text text-anchor="middle" x="282.5" y="-7.5" font-family="Helvetica,sans-Serif" font-size="10.00" fill="#000000">_header</text>
</a>
</g>
</g>
<!-- Node0&#45;&gt;Node1 -->
<g id="edge2" class="edge">
<title>Node0&#45;&gt;Node1</title>
<path fill="none" stroke="#191970" d="M203.2551,-15.5C211.7299,-15.5 220.3886,-15.5 228.7227,-15.5"/>
<polygon fill="#191970" stroke="#191970" points="203.0432,-12.0001 193.0432,-15.5 203.0432,-19.0001 203.0432,-12.0001"/>
</g>
</g>
</svg>
