<?xml version="1.0" encoding="UTF-8" standalone="no"?>
<!DOCTYPE svg PUBLIC "-//W3C//DTD SVG 1.1//EN"
 "http://www.w3.org/Graphics/SVG/1.1/DTD/svg11.dtd">
<!-- Generated by graphviz version 2.40.1 (20161225.0304)
 -->
<!-- Title: Graphical Class Hierarchy Pages: 1 -->
<svg width="426pt" height="186pt"
 viewBox="0.00 0.00 426.00 186.00" xmlns="http://www.w3.org/2000/svg" xmlns:xlink="http://www.w3.org/1999/xlink">
<g id="graph0" class="graph" transform="scale(1 1) rotate(0) translate(4 182)">
<title>Graphical Class Hierarchy</title>
<polygon fill="#ffffff" stroke="transparent" points="-4,4 -4,-182 422,-182 422,4 -4,4"/>
<!-- Node0 -->
<g id="node1" class="node">
<title>Node0</title>
<g id="a_node1"><a doxygen="/home/igankevich/repos/dev/specs/build/unistdx/build/std.tag.xml:http://en.cppreference.com/w/" xlink:href="http://en.cppreference.com/w/cpp/io/basic_streambuf.html" xlink:title="std::basic_streambuf\l\&lt; Ch, Tr \&gt;">
<polygon fill="#ffffff" stroke="#000000" points="0,-97.5 0,-127.5 108,-127.5 108,-97.5 0,-97.5"/>
<text text-anchor="start" x="8" y="-115.5" font-family="Helvetica,sans-Serif" font-size="10.00" fill="#000000">std::basic_streambuf</text>
<text text-anchor="middle" x="54" y="-104.5" font-family="Helvetica,sans-Serif" font-size="10.00" fill="#000000">&lt; Ch, Tr &gt;</text>
</a>
</g>
</g>
<!-- Node1 -->
<g id="node2" class="node">
<title>Node1</title>
<g id="a_node2"><a xlink:href="classsys_1_1basic__argbuf.html" target="_top" xlink:title="Stream buffer for command line arguments. ">
<polygon fill="#ffffff" stroke="#000000" points="149,-122.5 149,-152.5 249,-152.5 249,-122.5 149,-122.5"/>
<text text-anchor="start" x="157" y="-140.5" font-family="Helvetica,sans-Serif" font-size="10.00" fill="#000000">sys::basic_argbuf&lt;</text>
<text text-anchor="middle" x="199" y="-129.5" font-family="Helvetica,sans-Serif" font-size="10.00" fill="#000000"> Ch, Tr &gt;</text>
</a>
</g>
</g>
<!-- Node0&#45;&gt;Node1 -->
<g id="edge1" class="edge">
<title>Node0&#45;&gt;Node1</title>
<path fill="none" stroke="#191970" d="M118.4196,-123.6068C128.5345,-125.3508 138.8618,-127.1313 148.6008,-128.8105"/>
<polygon fill="#191970" stroke="#191970" points="118.8545,-120.1302 108.4052,-121.8802 117.6651,-127.0285 118.8545,-120.1302"/>
</g>
<!-- Node2 -->
<g id="node3" class="node">
<title>Node2</title>
<g id="a_node3"><a xlink:href="classsys_1_1basic__packetbuf.html" target="_top" xlink:title="Stream buffer that can reads/writes data in packets with arbitrary header. ">
<polygon fill="#ffffff" stroke="#000000" points="144,-73.5 144,-103.5 254,-103.5 254,-73.5 144,-73.5"/>
<text text-anchor="start" x="152" y="-91.5" font-family="Helvetica,sans-Serif" font-size="10.00" fill="#000000">sys::basic_packetbuf</text>
<text text-anchor="middle" x="199" y="-80.5" font-family="Helvetica,sans-Serif" font-size="10.00" fill="#000000">&lt; Ch, Tr &gt;</text>
</a>
</g>
</g>
<!-- Node0&#45;&gt;Node2 -->
<g id="edge2" class="edge">
<title>Node0&#45;&gt;Node2</title>
<path fill="none" stroke="#191970" d="M118.2963,-101.8579C126.8061,-100.4493 135.4687,-99.0155 143.8069,-97.6354"/>
<polygon fill="#191970" stroke="#191970" points="117.6994,-98.4089 108.4052,-103.495 118.8425,-105.315 117.6994,-98.4089"/>
</g>
<!-- Node3 -->
<g id="node4" class="node">
<title>Node3</title>
<g id="a_node4"><a xlink:href="classsys_1_1basic__fildesbuf.html" target="_top" xlink:title="sys::basic_fildesbuf\l\&lt; Ch, Tr, fd_type \&gt;">
<polygon fill="#ffffff" stroke="#000000" points="302,-147.5 302,-177.5 406,-177.5 406,-147.5 302,-147.5"/>
<text text-anchor="start" x="310" y="-165.5" font-family="Helvetica,sans-Serif" font-size="10.00" fill="#000000">sys::basic_fildesbuf</text>
<text text-anchor="middle" x="354" y="-154.5" font-family="Helvetica,sans-Serif" font-size="10.00" fill="#000000">&lt; Ch, Tr, fd_type &gt;</text>
</a>
</g>
</g>
<!-- Node2&#45;&gt;Node3 -->
<g id="edge3" class="edge">
<title>Node2&#45;&gt;Node3</title>
<path fill="none" stroke="#191970" d="M243.8881,-108.0824C247.3478,-109.8403 250.7542,-111.6553 254,-113.5 270.9356,-123.125 272.7476,-129.455 290,-138.5 296.0957,-141.6958 302.7145,-144.6755 309.3064,-147.3729"/>
<polygon fill="#191970" stroke="#191970" points="245.2008,-104.8283 234.6796,-103.5812 242.1267,-111.1172 245.2008,-104.8283"/>
</g>
<!-- Node4 -->
<g id="node5" class="node">
<title>Node4</title>
<g id="a_node5"><a xlink:href="classsys_1_1basic__fildesbuf.html" target="_top" xlink:title="Stream buffer that writes and reads from file descriptor. ">
<polygon fill="#ffffff" stroke="#000000" points="302,-98.5 302,-128.5 406,-128.5 406,-98.5 302,-98.5"/>
<text text-anchor="start" x="310" y="-116.5" font-family="Helvetica,sans-Serif" font-size="10.00" fill="#000000">sys::basic_fildesbuf</text>
<text text-anchor="middle" x="354" y="-105.5" font-family="Helvetica,sans-Serif" font-size="10.00" fill="#000000">&lt; Ch, Tr, Fd &gt;</text>
</a>
</g>
</g>
<!-- Node2&#45;&gt;Node4 -->
<g id="edge4" class="edge">
<title>Node2&#45;&gt;Node4</title>
<path fill="none" stroke="#191970" d="M264.09,-98.9984C276.7208,-101.0356 289.8031,-103.1457 301.9476,-105.1045"/>
<polygon fill="#191970" stroke="#191970" points="264.5134,-95.5215 254.0836,-97.3845 263.3987,-102.4322 264.5134,-95.5215"/>
</g>
<!-- Node5 -->
<g id="node6" class="node">
<title>Node5</title>
<g id="a_node6"><a xlink:href="classsys_1_1basic__shmembuf.html" target="_top" xlink:title="Shared memory stream buffer with synchronisation via process_semaphore. ">
<polygon fill="#ffffff" stroke="#000000" points="297.5,-49.5 297.5,-79.5 410.5,-79.5 410.5,-49.5 297.5,-49.5"/>
<text text-anchor="start" x="305.5" y="-67.5" font-family="Helvetica,sans-Serif" font-size="10.00" fill="#000000">sys::basic_shmembuf</text>
<text text-anchor="middle" x="354" y="-56.5" font-family="Helvetica,sans-Serif" font-size="10.00" fill="#000000">&lt; Ch, Tr &gt;</text>
</a>
</g>
</g>
<!-- Node2&#45;&gt;Node5 -->
<g id="edge5" class="edge">
<title>Node2&#45;&gt;Node5</title>
<path fill="none" stroke="#191970" d="M264.0837,-78.4225C275.1068,-76.7157 286.4739,-74.9556 297.2617,-73.2853"/>
<polygon fill="#191970" stroke="#191970" points="263.4303,-74.9819 254.0836,-79.9709 264.5015,-81.8995 263.4303,-74.9819"/>
</g>
<!-- Node6 -->
<g id="node7" class="node">
<title>Node6</title>
<g id="a_node7"><a xlink:href="classsys_1_1basic__websocketbuf.html" target="_top" xlink:title="Stream buffer that encodes/decodes its contents using WebSocket protocol. ">
<polygon fill="#ffffff" stroke="#000000" points="290,-.5 290,-30.5 418,-30.5 418,-.5 290,-.5"/>
<text text-anchor="start" x="298" y="-18.5" font-family="Helvetica,sans-Serif" font-size="10.00" fill="#000000">sys::basic_websocketbuf</text>
<text text-anchor="middle" x="354" y="-7.5" font-family="Helvetica,sans-Serif" font-size="10.00" fill="#000000">&lt; Ch, Tr &gt;</text>
</a>
</g>
</g>
<!-- Node2&#45;&gt;Node6 -->
<g id="edge6" class="edge">
<title>Node2&#45;&gt;Node6</title>
<path fill="none" stroke="#191970" d="M234.5157,-68.5715C251.1468,-59.5502 271.3601,-49.0236 290,-40.5 297.4853,-37.0771 305.585,-33.6832 313.4241,-30.5513"/>
<polygon fill="#191970" stroke="#191970" points="232.771,-65.5364 225.6775,-73.4062 236.1304,-71.6776 232.771,-65.5364"/>
</g>
</g>
</svg>
