<?xml version="1.0" encoding="UTF-8" standalone="no"?>
<!DOCTYPE svg PUBLIC "-//W3C//DTD SVG 1.1//EN"
 "http://www.w3.org/Graphics/SVG/1.1/DTD/svg11.dtd">
<!-- Generated by graphviz version 2.40.1 (20161225.0304)
 -->
<!-- Title: Graphical Class Hierarchy Pages: 1 -->
<svg width="189pt" height="66pt"
 viewBox="0.00 0.00 189.00 66.00" xmlns="http://www.w3.org/2000/svg" xmlns:xlink="http://www.w3.org/1999/xlink">
<g id="graph0" class="graph" transform="scale(1 1) rotate(0) translate(4 62)">
<title>Graphical Class Hierarchy</title>
<polygon fill="#ffffff" stroke="transparent" points="-4,4 -4,-62 185,-62 185,4 -4,4"/>
<!-- Node0 -->
<g id="node1" class="node">
<title>Node0</title>
<g id="a_node1"><a xlink:href="classsys_1_1fildes.html" target="_top" xlink:title="File descriptor wrapper. ">
<polygon fill="#ffffff" stroke="#000000" points="0,-19.5 0,-38.5 62,-38.5 62,-19.5 0,-19.5"/>
<text text-anchor="middle" x="31" y="-26.5" font-family="Helvetica,sans-Serif" font-size="10.00" fill="#000000">sys::fildes</text>
</a>
</g>
</g>
<!-- Node1 -->
<g id="node2" class="node">
<title>Node1</title>
<g id="a_node2"><a xlink:href="classsys_1_1file__mutex.html" target="_top" xlink:title="File&#45;based mutex. ">
<polygon fill="#ffffff" stroke="#000000" points="98,-38.5 98,-57.5 181,-57.5 181,-38.5 98,-38.5"/>
<text text-anchor="middle" x="139.5" y="-45.5" font-family="Helvetica,sans-Serif" font-size="10.00" fill="#000000">sys::file_mutex</text>
</a>
</g>
</g>
<!-- Node0&#45;&gt;Node1 -->
<g id="edge1" class="edge">
<title>Node0&#45;&gt;Node1</title>
<path fill="none" stroke="#191970" d="M72.1008,-36.1974C80.5388,-37.675 89.4284,-39.2317 97.8844,-40.7125"/>
<polygon fill="#191970" stroke="#191970" points="72.5456,-32.7221 62.0917,-34.4446 71.3381,-39.6172 72.5456,-32.7221"/>
</g>
<!-- Node2 -->
<g id="node3" class="node">
<title>Node2</title>
<g id="a_node3"><a xlink:href="classsys_1_1socket.html" target="_top" xlink:title="Socket wrapper. ">
<polygon fill="#ffffff" stroke="#000000" points="105.5,-.5 105.5,-19.5 173.5,-19.5 173.5,-.5 105.5,-.5"/>
<text text-anchor="middle" x="139.5" y="-7.5" font-family="Helvetica,sans-Serif" font-size="10.00" fill="#000000">sys::socket</text>
</a>
</g>
</g>
<!-- Node0&#45;&gt;Node2 -->
<g id="edge2" class="edge">
<title>Node0&#45;&gt;Node2</title>
<path fill="none" stroke="#191970" d="M72.2727,-21.7725C83.1951,-19.8598 94.8631,-17.8166 105.3607,-15.9783"/>
<polygon fill="#191970" stroke="#191970" points="71.3381,-18.3828 62.0917,-23.5554 72.5456,-25.2779 71.3381,-18.3828"/>
</g>
</g>
</svg>
