<?xml version="1.0" encoding="UTF-8" standalone="no"?>
<!DOCTYPE svg PUBLIC "-//W3C//DTD SVG 1.1//EN"
 "http://www.w3.org/Graphics/SVG/1.1/DTD/svg11.dtd">
<!-- Generated by graphviz version 2.40.1 (20161225.0304)
 -->
<!-- Title: Graphical Class Hierarchy Pages: 1 -->
<svg width="379pt" height="88pt"
 viewBox="0.00 0.00 379.00 88.00" xmlns="http://www.w3.org/2000/svg" xmlns:xlink="http://www.w3.org/1999/xlink">
<g id="graph0" class="graph" transform="scale(1 1) rotate(0) translate(4 84)">
<title>Graphical Class Hierarchy</title>
<polygon fill="#ffffff" stroke="transparent" points="-4,4 -4,-84 375,-84 375,4 -4,4"/>
<!-- Node157 -->
<g id="node1" class="node">
<title>Node157</title>
<g id="a_node1"><a xlink:href="classsys_1_1basic__odirectory.html" target="_top" xlink:title="Directory entry output stream. ">
<polygon fill="#ffffff" stroke="#000000" points="115,-49.5 115,-79.5 225,-79.5 225,-49.5 115,-49.5"/>
<text text-anchor="start" x="123" y="-67.5" font-family="Helvetica,sans-Serif" font-size="10.00" fill="#000000">sys::basic_odirectory</text>
<text text-anchor="middle" x="170" y="-56.5" font-family="Helvetica,sans-Serif" font-size="10.00" fill="#000000">&lt; Trans &gt;</text>
</a>
</g>
</g>
<!-- Node2 -->
<g id="node2" class="node">
<title>Node2</title>
<g id="a_node2"><a xlink:href="classsys_1_1basic__directory.html" target="_top" xlink:title="Directory entry input/output stream. ">
<polygon fill="#ffffff" stroke="#000000" points="264,-49.5 264,-79.5 368,-79.5 368,-49.5 264,-49.5"/>
<text text-anchor="start" x="272" y="-67.5" font-family="Helvetica,sans-Serif" font-size="10.00" fill="#000000">sys::basic_directory</text>
<text text-anchor="middle" x="316" y="-56.5" font-family="Helvetica,sans-Serif" font-size="10.00" fill="#000000">&lt; FilePred, Trans &gt;</text>
</a>
</g>
</g>
<!-- Node157&#45;&gt;Node2 -->
<g id="edge1" class="edge">
<title>Node157&#45;&gt;Node2</title>
<path fill="none" stroke="#191970" d="M235.3637,-64.5C244.8242,-64.5 254.4578,-64.5 263.6193,-64.5"/>
<polygon fill="#191970" stroke="#191970" points="235.1964,-61.0001 225.1963,-64.5 235.1963,-68.0001 235.1964,-61.0001"/>
</g>
<!-- Node0 -->
<g id="node3" class="node">
<title>Node0</title>
<g id="a_node3"><a xlink:href="classsys_1_1dirstream.html" target="_top" xlink:title="Base class for all directory streams. ">
<polygon fill="#ffffff" stroke="#000000" points="0,-6 0,-25 79,-25 79,-6 0,-6"/>
<text text-anchor="middle" x="39.5" y="-13" font-family="Helvetica,sans-Serif" font-size="10.00" fill="#000000">sys::dirstream</text>
</a>
</g>
</g>
<!-- Node1 -->
<g id="node4" class="node">
<title>Node1</title>
<g id="a_node4"><a xlink:href="classsys_1_1basic__idirectory.html" target="_top" xlink:title="Directory entry input stream. ">
<polygon fill="#ffffff" stroke="#000000" points="116.5,-.5 116.5,-30.5 223.5,-30.5 223.5,-.5 116.5,-.5"/>
<text text-anchor="start" x="124.5" y="-18.5" font-family="Helvetica,sans-Serif" font-size="10.00" fill="#000000">sys::basic_idirectory</text>
<text text-anchor="middle" x="170" y="-7.5" font-family="Helvetica,sans-Serif" font-size="10.00" fill="#000000">&lt; FilePred &gt;</text>
</a>
</g>
</g>
<!-- Node0&#45;&gt;Node1 -->
<g id="edge2" class="edge">
<title>Node0&#45;&gt;Node1</title>
<path fill="none" stroke="#191970" d="M89.153,-15.5C97.989,-15.5 107.2304,-15.5 116.1761,-15.5"/>
<polygon fill="#191970" stroke="#191970" points="89.0085,-12.0001 79.0084,-15.5 89.0084,-19.0001 89.0085,-12.0001"/>
</g>
<!-- Node1&#45;&gt;Node2 -->
<g id="edge3" class="edge">
<title>Node1&#45;&gt;Node2</title>
<path fill="none" stroke="#191970" d="M224.8407,-33.9055C240.1164,-39.0322 256.5249,-44.5392 271.1524,-49.4484"/>
<polygon fill="#191970" stroke="#191970" points="225.5901,-30.4651 214.9961,-30.6014 223.3628,-37.1014 225.5901,-30.4651"/>
</g>
<!-- Node3 -->
<g id="node5" class="node">
<title>Node3</title>
<g id="a_node5"><a xlink:href="classsys_1_1basic__idirtree.html" target="_top" xlink:title="Recursive directory entry input stream. ">
<polygon fill="#ffffff" stroke="#000000" points="261,-.5 261,-30.5 371,-30.5 371,-.5 261,-.5"/>
<text text-anchor="start" x="269" y="-18.5" font-family="Helvetica,sans-Serif" font-size="10.00" fill="#000000">sys::basic_idirtree</text>
<text text-anchor="middle" x="316" y="-7.5" font-family="Helvetica,sans-Serif" font-size="10.00" fill="#000000">&lt; FilePred, DirPred &gt;</text>
</a>
</g>
</g>
<!-- Node1&#45;&gt;Node3 -->
<g id="edge4" class="edge">
<title>Node1&#45;&gt;Node3</title>
<path fill="none" stroke="#191970" d="M233.5579,-15.5C242.5336,-15.5 251.7029,-15.5 260.5109,-15.5"/>
<polygon fill="#191970" stroke="#191970" points="233.536,-12.0001 223.536,-15.5 233.5359,-19.0001 233.536,-12.0001"/>
</g>
</g>
</svg>
