<?xml version="1.0" encoding="UTF-8" standalone="no"?>
<!DOCTYPE svg PUBLIC "-//W3C//DTD SVG 1.1//EN"
 "http://www.w3.org/Graphics/SVG/1.1/DTD/svg11.dtd">
<!-- Generated by graphviz version 2.40.1 (20161225.0304)
 -->
<!-- Title: Graphical Class Hierarchy Pages: 1 -->
<svg width="275pt" height="88pt"
 viewBox="0.00 0.00 275.00 88.00" xmlns="http://www.w3.org/2000/svg" xmlns:xlink="http://www.w3.org/1999/xlink">
<g id="graph0" class="graph" transform="scale(1 1) rotate(0) translate(4 84)">
<title>Graphical Class Hierarchy</title>
<!-- Node0 -->
<g id="node1" class="node">
<title>Node0</title>
<g id="a_node1"><a doxygen="/home/igankevich/repos/dev/specs/build/unistdx/build/std.tag.xml:http://en.cppreference.com/w/" xlink:href="http://en.cppreference.com/w/cpp/iterator/iterator.html" xlink:title="std::iterator\&lt; std\l::input_iterator_tag, T \&gt;">
<polygon fill="none" stroke="#000000" points="0,-24.5 0,-54.5 119,-54.5 119,-24.5 0,-24.5"/>
<text text-anchor="start" x="8" y="-42.5" font-family="Helvetica,sans-Serif" font-size="10.00" fill="#000000">std::iterator&lt; std</text>
<text text-anchor="middle" x="59.5" y="-31.5" font-family="Helvetica,sans-Serif" font-size="10.00" fill="#000000">::input_iterator_tag, T &gt;</text>
</a>
</g>
</g>
<!-- Node1 -->
<g id="node2" class="node">
<title>Node1</title>
<g id="a_node2"><a xlink:href="classsys_1_1netlink__attribute__iterator.html" target="_top" xlink:title="Iterator for netlink message attributes. ">
<polygon fill="none" stroke="#000000" points="157.5,-49.5 157.5,-79.5 264.5,-79.5 264.5,-49.5 157.5,-49.5"/>
<text text-anchor="start" x="165.5" y="-67.5" font-family="Helvetica,sans-Serif" font-size="10.00" fill="#000000">sys::netlink_attribute</text>
<text text-anchor="middle" x="211" y="-56.5" font-family="Helvetica,sans-Serif" font-size="10.00" fill="#000000">_iterator&lt; T &gt;</text>
</a>
</g>
</g>
<!-- Node0&#45;&gt;Node1 -->
<g id="edge1" class="edge">
<title>Node0&#45;&gt;Node1</title>
<path fill="none" stroke="#191970" d="M129.4966,-51.0506C138.891,-52.6008 148.4042,-54.1707 157.4535,-55.6639"/>
<polygon fill="#191970" stroke="#191970" points="129.8133,-47.5556 119.3768,-49.3807 128.6735,-54.4622 129.8133,-47.5556"/>
</g>
<!-- Node2 -->
<g id="node3" class="node">
<title>Node2</title>
<g id="a_node3"><a xlink:href="classsys_1_1netlink__message__iterator.html" target="_top" xlink:title="Iterator for netlink multipart messages. ">
<polygon fill="none" stroke="#000000" points="155,-.5 155,-30.5 267,-30.5 267,-.5 155,-.5"/>
<text text-anchor="start" x="163" y="-18.5" font-family="Helvetica,sans-Serif" font-size="10.00" fill="#000000">sys::netlink_message</text>
<text text-anchor="middle" x="211" y="-7.5" font-family="Helvetica,sans-Serif" font-size="10.00" fill="#000000">_iterator&lt; T &gt;</text>
</a>
</g>
</g>
<!-- Node0&#45;&gt;Node2 -->
<g id="edge2" class="edge">
<title>Node0&#45;&gt;Node2</title>
<path fill="none" stroke="#191970" d="M129.5203,-28.4077C137.8971,-27.0807 146.3678,-25.7388 154.5197,-24.4474"/>
<polygon fill="#191970" stroke="#191970" points="128.706,-24.9929 119.3768,-30.0146 129.8013,-31.9067 128.706,-24.9929"/>
</g>
</g>
</svg>
