<?xml version="1.0" encoding="UTF-8" standalone="no"?>
<!DOCTYPE svg PUBLIC "-//W3C//DTD SVG 1.1//EN"
 "http://www.w3.org/Graphics/SVG/1.1/DTD/svg11.dtd">
<!-- Generated by graphviz version 2.40.1 (20161225.0304)
 -->
<!-- Title: Graphical Class Hierarchy Pages: 1 -->
<svg width="256pt" height="39pt"
 viewBox="0.00 0.00 256.00 39.00" xmlns="http://www.w3.org/2000/svg" xmlns:xlink="http://www.w3.org/1999/xlink">
<g id="graph0" class="graph" transform="scale(1 1) rotate(0) translate(4 35)">
<title>Graphical Class Hierarchy</title>
<polygon fill="#ffffff" stroke="transparent" points="-4,4 -4,-35 252,-35 252,4 -4,4"/>
<!-- Node0 -->
<g id="node1" class="node">
<title>Node0</title>
<g id="a_node1"><a doxygen="/home/igankevich/repos/dev/specs/build/unistdx/build/std.tag.xml:http://en.cppreference.com/w/" xlink:href="http://en.cppreference.com/w/cpp/utility/hash.html" xlink:title="std::hash\&lt; sys::ipv4\l_addr::rep_type \&gt;">
<polygon fill="#ffffff" stroke="#000000" points="0,-.5 0,-30.5 106,-30.5 106,-.5 0,-.5"/>
<text text-anchor="start" x="8" y="-18.5" font-family="Helvetica,sans-Serif" font-size="10.00" fill="#000000">std::hash&lt; sys::ipv4</text>
<text text-anchor="middle" x="53" y="-7.5" font-family="Helvetica,sans-Serif" font-size="10.00" fill="#000000">_addr::rep_type &gt;</text>
</a>
</g>
</g>
<!-- Node1 -->
<g id="node2" class="node">
<title>Node1</title>
<g id="a_node2"><a xlink:href="structstd_1_1hash_3_01sys_1_1ipv4__addr_01_4.html" target="_top" xlink:title="Specialisation of std::hash for sys::ipv4_addr. ">
<polygon fill="#ffffff" stroke="#000000" points="142,-.5 142,-30.5 248,-30.5 248,-.5 142,-.5"/>
<text text-anchor="start" x="150" y="-18.5" font-family="Helvetica,sans-Serif" font-size="10.00" fill="#000000">std::hash&lt; sys::ipv4</text>
<text text-anchor="middle" x="195" y="-7.5" font-family="Helvetica,sans-Serif" font-size="10.00" fill="#000000">_addr &gt;</text>
</a>
</g>
</g>
<!-- Node0&#45;&gt;Node1 -->
<g id="edge1" class="edge">
<title>Node0&#45;&gt;Node1</title>
<path fill="none" stroke="#191970" d="M116.5173,-15.5C124.9959,-15.5 133.6185,-15.5 141.8941,-15.5"/>
<polygon fill="#191970" stroke="#191970" points="116.2796,-12.0001 106.2796,-15.5 116.2795,-19.0001 116.2796,-12.0001"/>
</g>
</g>
</svg>
