<?xml version="1.0" encoding="UTF-8" standalone="no"?>
<!DOCTYPE svg PUBLIC "-//W3C//DTD SVG 1.1//EN"
 "http://www.w3.org/Graphics/SVG/1.1/DTD/svg11.dtd">
<!-- Generated by graphviz version 2.40.1 (20161225.0304)
 -->
<!-- Title: Graphical Class Hierarchy Pages: 1 -->
<svg width="236pt" height="88pt"
 viewBox="0.00 0.00 236.00 88.00" xmlns="http://www.w3.org/2000/svg" xmlns:xlink="http://www.w3.org/1999/xlink">
<g id="graph0" class="graph" transform="scale(1 1) rotate(0) translate(4 84)">
<title>Graphical Class Hierarchy</title>
<!-- Node0 -->
<g id="node1" class="node">
<title>Node0</title>
<g id="a_node1"><a doxygen="/home/igankevich/repos/dev/specs/build/unistdx/build/std.tag.xml:http://en.cppreference.com/w/" xlink:href="http://en.cppreference.com/w/cpp/iterator/iterator.html" xlink:title="std::iterator">
<polygon fill="none" stroke="#000000" points="0,-30 0,-49 66,-49 66,-30 0,-30"/>
<text text-anchor="middle" x="33" y="-37" font-family="Helvetica,sans-Serif" font-size="10.00" fill="#000000">std::iterator</text>
</a>
</g>
</g>
<!-- Node1 -->
<g id="node2" class="node">
<title>Node1</title>
<g id="a_node2"><a xlink:href="classsys_1_1intersperse__iterator.html" target="_top" xlink:title="Iterator that intersperses output values by specified delimiter. ">
<polygon fill="none" stroke="#000000" points="104,-49.5 104,-79.5 226,-79.5 226,-49.5 104,-49.5"/>
<text text-anchor="start" x="112" y="-67.5" font-family="Helvetica,sans-Serif" font-size="10.00" fill="#000000">sys::intersperse_iterator</text>
<text text-anchor="middle" x="165" y="-56.5" font-family="Helvetica,sans-Serif" font-size="10.00" fill="#000000">&lt; T, Delim, Ch, Tr &gt;</text>
</a>
</g>
</g>
<!-- Node0&#45;&gt;Node1 -->
<g id="edge1" class="edge">
<title>Node0&#45;&gt;Node1</title>
<path fill="none" stroke="#191970" d="M76.3478,-47.7098C85.1782,-49.3822 94.6244,-51.1713 103.9386,-52.9353"/>
<polygon fill="#191970" stroke="#191970" points="76.7858,-44.2306 66.3092,-45.8086 75.4832,-51.1084 76.7858,-44.2306"/>
</g>
<!-- Node2 -->
<g id="node3" class="node">
<title>Node2</title>
<g id="a_node3"><a xlink:href="classsys_1_1queue__push__iterator.html" target="_top" xlink:title="Output iterator that inserts element to the container on assignment. ">
<polygon fill="none" stroke="#000000" points="102,-.5 102,-30.5 228,-30.5 228,-.5 102,-.5"/>
<text text-anchor="start" x="110" y="-18.5" font-family="Helvetica,sans-Serif" font-size="10.00" fill="#000000">sys::queue_push_iterator</text>
<text text-anchor="middle" x="165" y="-7.5" font-family="Helvetica,sans-Serif" font-size="10.00" fill="#000000">&lt; Container, Traits &gt;</text>
</a>
</g>
</g>
<!-- Node0&#45;&gt;Node2 -->
<g id="edge2" class="edge">
<title>Node0&#45;&gt;Node2</title>
<path fill="none" stroke="#191970" d="M76.3401,-31.62C84.5175,-30.1332 93.2232,-28.5503 101.8633,-26.9794"/>
<polygon fill="#191970" stroke="#191970" points="75.5217,-28.2113 66.3092,-33.4438 76.774,-35.0984 75.5217,-28.2113"/>
</g>
</g>
</svg>
