<?xml version="1.0" encoding="UTF-8" standalone="no"?>
<!DOCTYPE svg PUBLIC "-//W3C//DTD SVG 1.1//EN"
 "http://www.w3.org/Graphics/SVG/1.1/DTD/svg11.dtd">
<!-- Generated by graphviz version 2.40.1 (20161225.0304)
 -->
<!-- Title: Graphical Class Hierarchy Pages: 1 -->
<svg width="285pt" height="66pt"
 viewBox="0.00 0.00 285.00 66.00" xmlns="http://www.w3.org/2000/svg" xmlns:xlink="http://www.w3.org/1999/xlink">
<g id="graph0" class="graph" transform="scale(1 1) rotate(0) translate(4 62)">
<title>Graphical Class Hierarchy</title>
<!-- Node0 -->
<g id="node1" class="node">
<title>Node0</title>
<g id="a_node1"><a xlink:href="classsys_1_1posix__semaphore.html" target="_top" xlink:title="Semaphore, implemented using POSIX system calls. ">
<polygon fill="none" stroke="#000000" points="0,-19.5 0,-38.5 115,-38.5 115,-19.5 0,-19.5"/>
<text text-anchor="middle" x="57.5" y="-26.5" font-family="Helvetica,sans-Serif" font-size="10.00" fill="#000000">sys::posix_semaphore</text>
</a>
</g>
</g>
<!-- Node1 -->
<g id="node2" class="node">
<title>Node1</title>
<g id="a_node2"><a xlink:href="classsys_1_1process__semaphore.html" target="_top" xlink:title="Process semaphore. ">
<polygon fill="none" stroke="#000000" points="151,-38.5 151,-57.5 277,-57.5 277,-38.5 151,-38.5"/>
<text text-anchor="middle" x="214" y="-45.5" font-family="Helvetica,sans-Serif" font-size="10.00" fill="#000000">sys::process_semaphore</text>
</a>
</g>
</g>
<!-- Node0&#45;&gt;Node1 -->
<g id="edge1" class="edge">
<title>Node0&#45;&gt;Node1</title>
<path fill="none" stroke="#191970" d="M125.5066,-37.2564C133.9372,-38.2799 142.5292,-39.323 150.882,-40.3371"/>
<polygon fill="#191970" stroke="#191970" points="125.6791,-33.7517 115.3302,-36.0209 124.8354,-40.7007 125.6791,-33.7517"/>
</g>
<!-- Node2 -->
<g id="node3" class="node">
<title>Node2</title>
<g id="a_node3"><a xlink:href="classsys_1_1thread__semaphore.html" target="_top" xlink:title="Thread semaphore. ">
<polygon fill="none" stroke="#000000" points="154.5,-.5 154.5,-19.5 273.5,-19.5 273.5,-.5 154.5,-.5"/>
<text text-anchor="middle" x="214" y="-7.5" font-family="Helvetica,sans-Serif" font-size="10.00" fill="#000000">sys::thread_semaphore</text>
</a>
</g>
</g>
<!-- Node0&#45;&gt;Node2 -->
<g id="edge2" class="edge">
<title>Node0&#45;&gt;Node2</title>
<path fill="none" stroke="#191970" d="M125.2914,-20.7697C134.9497,-19.5972 144.8243,-18.3983 154.3126,-17.2464"/>
<polygon fill="#191970" stroke="#191970" points="124.8354,-17.2993 115.3302,-21.9791 125.6791,-24.2483 124.8354,-17.2993"/>
</g>
</g>
</svg>
