<?xml version="1.0" encoding="UTF-8" standalone="no"?>
<!DOCTYPE svg PUBLIC "-//W3C//DTD SVG 1.1//EN"
 "http://www.w3.org/Graphics/SVG/1.1/DTD/svg11.dtd">
<!-- Generated by graphviz version 2.40.1 (20161225.0304)
 -->
<!-- Title: Graphical Class Hierarchy Pages: 1 -->
<svg width="222pt" height="66pt"
 viewBox="0.00 0.00 222.00 66.00" xmlns="http://www.w3.org/2000/svg" xmlns:xlink="http://www.w3.org/1999/xlink">
<g id="graph0" class="graph" transform="scale(1 1) rotate(0) translate(4 62)">
<title>Graphical Class Hierarchy</title>
<!-- Node0 -->
<g id="node1" class="node">
<title>Node0</title>
<g id="a_node1"><a doxygen="/home/igankevich/repos/dev/specs/build/unistdx/build/std.tag.xml:http://en.cppreference.com/w/" xlink:href="http://en.cppreference.com/w/cpp/error/exception.html" xlink:title="std::exception">
<polygon fill="none" stroke="#000000" points="0,-19.5 0,-38.5 78,-38.5 78,-19.5 0,-19.5"/>
<text text-anchor="middle" x="39" y="-26.5" font-family="Helvetica,sans-Serif" font-size="10.00" fill="#000000">std::exception</text>
</a>
</g>
</g>
<!-- Node1 -->
<g id="node2" class="node">
<title>Node1</title>
<g id="a_node2"><a xlink:href="classsys_1_1bad__argument.html" target="_top" xlink:title="Invalid command line argument error. ">
<polygon fill="none" stroke="#000000" points="114,-38.5 114,-57.5 214,-57.5 214,-38.5 114,-38.5"/>
<text text-anchor="middle" x="164" y="-45.5" font-family="Helvetica,sans-Serif" font-size="10.00" fill="#000000">sys::bad_argument</text>
</a>
</g>
</g>
<!-- Node0&#45;&gt;Node1 -->
<g id="edge1" class="edge">
<title>Node0&#45;&gt;Node1</title>
<path fill="none" stroke="#191970" d="M88.272,-36.4893C96.6953,-37.7697 105.4545,-39.1011 113.899,-40.3847"/>
<polygon fill="#191970" stroke="#191970" points="88.6203,-33.0022 78.2078,-34.9596 87.5683,-39.9227 88.6203,-33.0022"/>
</g>
<!-- Node2 -->
<g id="node3" class="node">
<title>Node2</title>
<g id="a_node3"><a xlink:href="classsys_1_1bad__file__lock.html" target="_top" xlink:title="An exception indicating file lock error. ">
<polygon fill="none" stroke="#000000" points="116.5,-.5 116.5,-19.5 211.5,-19.5 211.5,-.5 116.5,-.5"/>
<text text-anchor="middle" x="164" y="-7.5" font-family="Helvetica,sans-Serif" font-size="10.00" fill="#000000">sys::bad_file_lock</text>
</a>
</g>
</g>
<!-- Node0&#45;&gt;Node2 -->
<g id="edge2" class="edge">
<title>Node0&#45;&gt;Node2</title>
<path fill="none" stroke="#191970" d="M88.3318,-21.5016C97.4867,-20.11 107.0365,-18.6584 116.1464,-17.2737"/>
<polygon fill="#191970" stroke="#191970" points="87.5683,-18.0773 78.2078,-23.0404 88.6203,-24.9978 87.5683,-18.0773"/>
</g>
</g>
</svg>
