<?xml version="1.0" encoding="UTF-8" standalone="no"?>
<!DOCTYPE svg PUBLIC "-//W3C//DTD SVG 1.1//EN"
 "http://www.w3.org/Graphics/SVG/1.1/DTD/svg11.dtd">
<!-- Generated by graphviz version 2.40.1 (20161225.0304)
 -->
<!-- Title: Graphical Class Hierarchy Pages: 1 -->
<svg width="295pt" height="28pt"
 viewBox="0.00 0.00 295.00 28.00" xmlns="http://www.w3.org/2000/svg" xmlns:xlink="http://www.w3.org/1999/xlink">
<g id="graph0" class="graph" transform="scale(1 1) rotate(0) translate(4 24)">
<title>Graphical Class Hierarchy</title>
<polygon fill="#ffffff" stroke="transparent" points="-4,4 -4,-24 291,-24 291,4 -4,4"/>
<!-- Node119 -->
<g id="node1" class="node">
<title>Node119</title>
<polygon fill="#ffffff" stroke="#bfbfbf" points="0,-.5 0,-19.5 65,-19.5 65,-.5 0,-.5"/>
<text text-anchor="middle" x="32.5" y="-7.5" font-family="Helvetica,sans-Serif" font-size="10.00" fill="#000000">dirent_type</text>
</g>
<!-- Node0 -->
<g id="node2" class="node">
<title>Node0</title>
<g id="a_node2"><a xlink:href="classsys_1_1direntry.html" target="_top" xlink:title="Directory entry. ">
<polygon fill="#ffffff" stroke="#000000" points="101,-.5 101,-19.5 172,-19.5 172,-.5 101,-.5"/>
<text text-anchor="middle" x="136.5" y="-7.5" font-family="Helvetica,sans-Serif" font-size="10.00" fill="#000000">sys::direntry</text>
</a>
</g>
</g>
<!-- Node119&#45;&gt;Node0 -->
<g id="edge1" class="edge">
<title>Node119&#45;&gt;Node0</title>
<path fill="none" stroke="#191970" d="M75.231,-10C83.7095,-10 92.5277,-10 100.7444,-10"/>
<polygon fill="#191970" stroke="#191970" points="75.1209,-6.5001 65.1209,-10 75.1209,-13.5001 75.1209,-6.5001"/>
</g>
<!-- Node1 -->
<g id="node3" class="node">
<title>Node1</title>
<g id="a_node3"><a xlink:href="classsys_1_1pathentry.html" target="_top" xlink:title="Directory entry with a path to directory. ">
<polygon fill="#ffffff" stroke="#000000" points="208,-.5 208,-19.5 287,-19.5 287,-.5 208,-.5"/>
<text text-anchor="middle" x="247.5" y="-7.5" font-family="Helvetica,sans-Serif" font-size="10.00" fill="#000000">sys::pathentry</text>
</a>
</g>
</g>
<!-- Node0&#45;&gt;Node1 -->
<g id="edge2" class="edge">
<title>Node0&#45;&gt;Node1</title>
<path fill="none" stroke="#191970" d="M182.3903,-10C190.89,-10 199.6999,-10 207.9895,-10"/>
<polygon fill="#191970" stroke="#191970" points="182.2321,-6.5001 172.2321,-10 182.2321,-13.5001 182.2321,-6.5001"/>
</g>
</g>
</svg>
