<?xml version="1.0" encoding="UTF-8" standalone="no"?>
<!DOCTYPE svg PUBLIC "-//W3C//DTD SVG 1.1//EN"
 "http://www.w3.org/Graphics/SVG/1.1/DTD/svg11.dtd">
<!-- Generated by graphviz version 2.40.1 (20161225.0304)
 -->
<!-- Title: Graphical Class Hierarchy Pages: 1 -->
<svg width="248pt" height="50pt"
 viewBox="0.00 0.00 248.00 50.00" xmlns="http://www.w3.org/2000/svg" xmlns:xlink="http://www.w3.org/1999/xlink">
<g id="graph0" class="graph" transform="scale(1 1) rotate(0) translate(4 46)">
<title>Graphical Class Hierarchy</title>
<polygon fill="#ffffff" stroke="transparent" points="-4,4 -4,-46 244,-46 244,4 -4,4"/>
<!-- Node0 -->
<g id="node1" class="node">
<title>Node0</title>
<g id="a_node1"><a doxygen="/home/igankevich/repos/dev/specs/build/unistdx/build/std.tag.xml:http://en.cppreference.com/w/" xlink:href="http://en.cppreference.com/w/cpp/iterator/iterator.html" xlink:title="std::iterator\&lt; std\l::input_iterator_tag,\l ifaddrs_type \&gt;">
<polygon fill="#ffffff" stroke="#000000" points="0,-.5 0,-41.5 101,-41.5 101,-.5 0,-.5"/>
<text text-anchor="start" x="8" y="-29.5" font-family="Helvetica,sans-Serif" font-size="10.00" fill="#000000">std::iterator&lt; std</text>
<text text-anchor="start" x="8" y="-18.5" font-family="Helvetica,sans-Serif" font-size="10.00" fill="#000000">::input_iterator_tag,</text>
<text text-anchor="middle" x="50.5" y="-7.5" font-family="Helvetica,sans-Serif" font-size="10.00" fill="#000000"> ifaddrs_type &gt;</text>
</a>
</g>
</g>
<!-- Node1 -->
<g id="node2" class="node">
<title>Node1</title>
<g id="a_node2"><a xlink:href="classsys_1_1ifaddrs__iterator.html" target="_top" xlink:title="Iterator for interface addresses of the computer. ">
<polygon fill="#ffffff" stroke="#000000" points="137,-11.5 137,-30.5 240,-30.5 240,-11.5 137,-11.5"/>
<text text-anchor="middle" x="188.5" y="-18.5" font-family="Helvetica,sans-Serif" font-size="10.00" fill="#000000">sys::ifaddrs_iterator</text>
</a>
</g>
</g>
<!-- Node0&#45;&gt;Node1 -->
<g id="edge1" class="edge">
<title>Node0&#45;&gt;Node1</title>
<path fill="none" stroke="#191970" d="M111.1155,-21C119.7426,-21 128.5472,-21 136.979,-21"/>
<polygon fill="#191970" stroke="#191970" points="111.1025,-17.5001 101.1025,-21 111.1025,-24.5001 111.1025,-17.5001"/>
</g>
</g>
</svg>
