<?xml version="1.0" encoding="UTF-8" standalone="no"?>
<!DOCTYPE svg PUBLIC "-//W3C//DTD SVG 1.1//EN"
 "http://www.w3.org/Graphics/SVG/1.1/DTD/svg11.dtd">
<!-- Generated by graphviz version 2.40.1 (20161225.0304)
 -->
<!-- Title: Graphical Class Hierarchy Pages: 1 -->
<svg width="234pt" height="137pt"
 viewBox="0.00 0.00 234.00 137.00" xmlns="http://www.w3.org/2000/svg" xmlns:xlink="http://www.w3.org/1999/xlink">
<g id="graph0" class="graph" transform="scale(1 1) rotate(0) translate(4 133)">
<title>Graphical Class Hierarchy</title>
<!-- Node0 -->
<g id="node1" class="node">
<title>Node0</title>
<g id="a_node1"><a doxygen="/home/igankevich/repos/dev/specs/build/unistdx/build/std.tag.xml:http://en.cppreference.com/w/" xlink:href="http://en.cppreference.com/w/cpp/types/integral_constant.html" xlink:title="std::true_type">
<polygon fill="none" stroke="#000000" points="0,-55 0,-74 77,-74 77,-55 0,-55"/>
<text text-anchor="middle" x="38.5" y="-62" font-family="Helvetica,sans-Serif" font-size="10.00" fill="#000000">std::true_type</text>
</a>
</g>
</g>
<!-- Node1 -->
<g id="node2" class="node">
<title>Node1</title>
<g id="a_node2"><a xlink:href="structstd_1_1is__arithmetic_3_01sys_1_1uint128__t_01_4.html" target="_top" xlink:title="Specialisation of std::is_arithmetic for sys::uint128_t. ">
<polygon fill="none" stroke="#000000" points="121.5,-98.5 121.5,-128.5 217.5,-128.5 217.5,-98.5 121.5,-98.5"/>
<text text-anchor="start" x="129.5" y="-116.5" font-family="Helvetica,sans-Serif" font-size="10.00" fill="#000000">std::is_arithmetic</text>
<text text-anchor="middle" x="169.5" y="-105.5" font-family="Helvetica,sans-Serif" font-size="10.00" fill="#000000">&lt; sys::uint128_t &gt;</text>
</a>
</g>
</g>
<!-- Node0&#45;&gt;Node1 -->
<g id="edge1" class="edge">
<title>Node0&#45;&gt;Node1</title>
<path fill="none" stroke="#191970" d="M73.7029,-77.6675C90.8451,-84.0795 111.5383,-91.8197 129.2991,-98.463"/>
<polygon fill="#191970" stroke="#191970" points="74.6615,-74.2893 64.0691,-74.064 72.2091,-80.8457 74.6615,-74.2893"/>
</g>
<!-- Node2 -->
<g id="node3" class="node">
<title>Node2</title>
<g id="a_node3"><a xlink:href="structstd_1_1is__integral_3_01sys_1_1uint128__t_01_4.html" target="_top" xlink:title="Specialisation of std::is_integral for sys::uint128_t. ">
<polygon fill="none" stroke="#000000" points="117,-49.5 117,-79.5 222,-79.5 222,-49.5 117,-49.5"/>
<text text-anchor="start" x="125" y="-67.5" font-family="Helvetica,sans-Serif" font-size="10.00" fill="#000000">std::is_integral&lt; sys</text>
<text text-anchor="middle" x="169.5" y="-56.5" font-family="Helvetica,sans-Serif" font-size="10.00" fill="#000000">::uint128_t &gt;</text>
</a>
</g>
</g>
<!-- Node0&#45;&gt;Node2 -->
<g id="edge2" class="edge">
<title>Node0&#45;&gt;Node2</title>
<path fill="none" stroke="#191970" d="M87.245,-64.5C96.8226,-64.5 106.9127,-64.5 116.6185,-64.5"/>
<polygon fill="#191970" stroke="#191970" points="87.0958,-61.0001 77.0958,-64.5 87.0958,-68.0001 87.0958,-61.0001"/>
</g>
<!-- Node3 -->
<g id="node4" class="node">
<title>Node3</title>
<g id="a_node4"><a xlink:href="structstd_1_1is__unsigned_3_01sys_1_1uint128__t_01_4.html" target="_top" xlink:title="Specialisation of std::is_unsigned for sys::uint128_t. ">
<polygon fill="none" stroke="#000000" points="113,-.5 113,-30.5 226,-30.5 226,-.5 113,-.5"/>
<text text-anchor="start" x="121" y="-18.5" font-family="Helvetica,sans-Serif" font-size="10.00" fill="#000000">std::is_unsigned&lt; sys</text>
<text text-anchor="middle" x="169.5" y="-7.5" font-family="Helvetica,sans-Serif" font-size="10.00" fill="#000000">::uint128_t &gt;</text>
</a>
</g>
</g>
<!-- Node0&#45;&gt;Node3 -->
<g id="edge3" class="edge">
<title>Node0&#45;&gt;Node3</title>
<path fill="none" stroke="#191970" d="M73.7029,-51.3325C90.8451,-44.9205 111.5383,-37.1803 129.2991,-30.537"/>
<polygon fill="#191970" stroke="#191970" points="72.2091,-48.1543 64.0691,-54.936 74.6615,-54.7107 72.2091,-48.1543"/>
</g>
</g>
</svg>
