<?xml version="1.0" encoding="UTF-8" standalone="no"?>
<!DOCTYPE svg PUBLIC "-//W3C//DTD SVG 1.1//EN"
 "http://www.w3.org/Graphics/SVG/1.1/DTD/svg11.dtd">
<!-- Generated by graphviz version 2.40.1 (20161225.0304)
 -->
<!-- Title: std::hash&lt; sys::basic_canonical_path&lt; Ch, Tr, Alloc &gt; &gt; Pages: 1 -->
<svg width="135pt" height="117pt"
 viewBox="0.00 0.00 135.00 117.00" xmlns="http://www.w3.org/2000/svg" xmlns:xlink="http://www.w3.org/1999/xlink">
<g id="graph0" class="graph" transform="scale(1 1) rotate(0) translate(4 113)">
<title>std::hash&lt; sys::basic_canonical_path&lt; Ch, Tr, Alloc &gt; &gt;</title>
<polygon fill="#ffffff" stroke="transparent" points="-4,4 -4,-113 131,-113 131,4 -4,4"/>
<!-- Node2 -->
<g id="node1" class="node">
<title>Node2</title>
<polygon fill="#bfbfbf" stroke="#000000" points="7.5,-.5 7.5,-41.5 119.5,-41.5 119.5,-.5 7.5,-.5"/>
<text text-anchor="start" x="15.5" y="-29.5" font-family="Helvetica,sans-Serif" font-size="10.00" fill="#000000">std::hash&lt; sys::basic</text>
<text text-anchor="start" x="15.5" y="-18.5" font-family="Helvetica,sans-Serif" font-size="10.00" fill="#000000">_canonical_path&lt; Ch,</text>
<text text-anchor="middle" x="63.5" y="-7.5" font-family="Helvetica,sans-Serif" font-size="10.00" fill="#000000"> Tr, Alloc &gt; &gt;</text>
</g>
<!-- Node3 -->
<g id="node2" class="node">
<title>Node3</title>
<g id="a_node2"><a doxygen="/home/igankevich/repos/dev/specs/build/unistdx/build/std.tag.xml:http://en.cppreference.com/w/" xlink:href="http://en.cppreference.com/w/cpp/utility/hash.html" xlink:title="std::hash\&lt; std::basic\l_string\&lt; Ch, Tr, Alloc \&gt; \&gt;">
<polygon fill="#ffffff" stroke="#000000" points="0,-78.5 0,-108.5 127,-108.5 127,-78.5 0,-78.5"/>
<text text-anchor="start" x="8" y="-96.5" font-family="Helvetica,sans-Serif" font-size="10.00" fill="#000000">std::hash&lt; std::basic</text>
<text text-anchor="middle" x="63.5" y="-85.5" font-family="Helvetica,sans-Serif" font-size="10.00" fill="#000000">_string&lt; Ch, Tr, Alloc &gt; &gt;</text>
</a>
</g>
</g>
<!-- Node3&#45;&gt;Node2 -->
<g id="edge1" class="edge">
<title>Node3&#45;&gt;Node2</title>
<path fill="none" stroke="#191970" d="M63.5,-68.4016C63.5,-59.6173 63.5,-49.8652 63.5,-41.5015"/>
<polygon fill="#191970" stroke="#191970" points="60.0001,-68.4779 63.5,-78.478 67.0001,-68.478 60.0001,-68.4779"/>
</g>
</g>
</svg>
