<?xml version="1.0" encoding="UTF-8" standalone="no"?>
<!DOCTYPE svg PUBLIC "-//W3C//DTD SVG 1.1//EN"
 "http://www.w3.org/Graphics/SVG/1.1/DTD/svg11.dtd">
<!-- Generated by graphviz version 2.40.1 (20161225.0304)
 -->
<!-- Title: std::hash&lt; sys::ipv4_addr &gt; Pages: 1 -->
<svg width="114pt" height="106pt"
 viewBox="0.00 0.00 114.00 106.00" xmlns="http://www.w3.org/2000/svg" xmlns:xlink="http://www.w3.org/1999/xlink">
<g id="graph0" class="graph" transform="scale(1 1) rotate(0) translate(4 102)">
<title>std::hash&lt; sys::ipv4_addr &gt;</title>
<polygon fill="#ffffff" stroke="transparent" points="-4,4 -4,-102 110,-102 110,4 -4,4"/>
<!-- Node2 -->
<g id="node1" class="node">
<title>Node2</title>
<polygon fill="#bfbfbf" stroke="#000000" points="0,-.5 0,-30.5 106,-30.5 106,-.5 0,-.5"/>
<text text-anchor="start" x="8" y="-18.5" font-family="Helvetica,sans-Serif" font-size="10.00" fill="#000000">std::hash&lt; sys::ipv4</text>
<text text-anchor="middle" x="53" y="-7.5" font-family="Helvetica,sans-Serif" font-size="10.00" fill="#000000">_addr &gt;</text>
</g>
<!-- Node3 -->
<g id="node2" class="node">
<title>Node3</title>
<g id="a_node2"><a doxygen="/home/igankevich/repos/dev/specs/build/unistdx/build/std.tag.xml:http://en.cppreference.com/w/" xlink:href="http://en.cppreference.com/w/cpp/utility/hash.html" xlink:title="std::hash\&lt; sys::ipv4\l_addr::rep_type \&gt;">
<polygon fill="#ffffff" stroke="#000000" points="0,-67.5 0,-97.5 106,-97.5 106,-67.5 0,-67.5"/>
<text text-anchor="start" x="8" y="-85.5" font-family="Helvetica,sans-Serif" font-size="10.00" fill="#000000">std::hash&lt; sys::ipv4</text>
<text text-anchor="middle" x="53" y="-74.5" font-family="Helvetica,sans-Serif" font-size="10.00" fill="#000000">_addr::rep_type &gt;</text>
</a>
</g>
</g>
<!-- Node3&#45;&gt;Node2 -->
<g id="edge1" class="edge">
<title>Node3&#45;&gt;Node2</title>
<path fill="none" stroke="#191970" d="M53,-57.0249C53,-48.128 53,-38.4287 53,-30.6432"/>
<polygon fill="#191970" stroke="#191970" points="49.5001,-57.2966 53,-67.2967 56.5001,-57.2967 49.5001,-57.2966"/>
</g>
</g>
</svg>
