<?xml version="1.0" encoding="UTF-8" standalone="no"?>
<!DOCTYPE svg PUBLIC "-//W3C//DTD SVG 1.1//EN"
 "http://www.w3.org/Graphics/SVG/1.1/DTD/svg11.dtd">
<!-- Generated by graphviz version 2.40.1 (20161225.0304)
 -->
<!-- Title: sys::container_traits&lt; Container &gt; Pages: 1 -->
<svg width="253pt" height="186pt"
 viewBox="0.00 0.00 253.00 186.00" xmlns="http://www.w3.org/2000/svg" xmlns:xlink="http://www.w3.org/1999/xlink">
<g id="graph0" class="graph" transform="scale(1 1) rotate(0) translate(4 182)">
<title>sys::container_traits&lt; Container &gt;</title>
<!-- Node0 -->
<g id="node1" class="node">
<title>Node0</title>
<polygon fill="#bfbfbf" stroke="#000000" points="0,-73.5 0,-103.5 105,-103.5 105,-73.5 0,-73.5"/>
<text text-anchor="start" x="8" y="-91.5" font-family="Helvetica,sans-Serif" font-size="10.00" fill="#000000">sys::container_traits</text>
<text text-anchor="middle" x="52.5" y="-80.5" font-family="Helvetica,sans-Serif" font-size="10.00" fill="#000000">&lt; Container &gt;</text>
</g>
<!-- Node1 -->
<g id="node2" class="node">
<title>Node1</title>
<g id="a_node2"><a xlink:href="structsys_1_1deque__traits.html" target="_top" xlink:title="Container traits for deque container. ">
<polygon fill="none" stroke="#000000" points="144,-147.5 144,-177.5 242,-177.5 242,-147.5 144,-147.5"/>
<text text-anchor="start" x="152" y="-165.5" font-family="Helvetica,sans-Serif" font-size="10.00" fill="#000000">sys::deque_traits&lt;</text>
<text text-anchor="middle" x="193" y="-154.5" font-family="Helvetica,sans-Serif" font-size="10.00" fill="#000000"> Container &gt;</text>
</a>
</g>
</g>
<!-- Node0&#45;&gt;Node1 -->
<g id="edge1" class="edge">
<title>Node0&#45;&gt;Node1</title>
<path fill="none" stroke="#191970" d="M86.4229,-108.5265C102.7509,-117.9432 122.7113,-129.1331 141,-138.5 146.8408,-141.4915 153.1263,-144.5357 159.2389,-147.4066"/>
<polygon fill="#191970" stroke="#191970" points="88.1654,-105.491 77.7592,-103.5002 84.6526,-111.5459 88.1654,-105.491"/>
</g>
<!-- Node2 -->
<g id="node3" class="node">
<title>Node2</title>
<g id="a_node3"><a xlink:href="structsys_1_1priority__queue__traits.html" target="_top" xlink:title="Container traits for priority queue container. ">
<polygon fill="none" stroke="#000000" points="141,-98.5 141,-128.5 245,-128.5 245,-98.5 141,-98.5"/>
<text text-anchor="start" x="149" y="-116.5" font-family="Helvetica,sans-Serif" font-size="10.00" fill="#000000">sys::priority_queue</text>
<text text-anchor="middle" x="193" y="-105.5" font-family="Helvetica,sans-Serif" font-size="10.00" fill="#000000">_traits&lt; Container &gt;</text>
</a>
</g>
</g>
<!-- Node0&#45;&gt;Node2 -->
<g id="edge2" class="edge">
<title>Node0&#45;&gt;Node2</title>
<path fill="none" stroke="#191970" d="M115.2043,-99.6573C123.7985,-101.1866 132.5451,-102.7429 140.9216,-104.2334"/>
<polygon fill="#191970" stroke="#191970" points="115.6753,-96.1863 105.2167,-97.8802 114.4489,-103.078 115.6753,-96.1863"/>
</g>
<!-- Node3 -->
<g id="node4" class="node">
<title>Node3</title>
<g id="a_node4"><a xlink:href="structsys_1_1queue__traits.html" target="_top" xlink:title="Container traits for queue&#45;like containers. ">
<polygon fill="none" stroke="#000000" points="144,-49.5 144,-79.5 242,-79.5 242,-49.5 144,-49.5"/>
<text text-anchor="start" x="152" y="-67.5" font-family="Helvetica,sans-Serif" font-size="10.00" fill="#000000">sys::queue_traits&lt;</text>
<text text-anchor="middle" x="193" y="-56.5" font-family="Helvetica,sans-Serif" font-size="10.00" fill="#000000"> Container &gt;</text>
</a>
</g>
</g>
<!-- Node0&#45;&gt;Node3 -->
<g id="edge3" class="edge">
<title>Node0&#45;&gt;Node3</title>
<path fill="none" stroke="#191970" d="M115.1034,-77.8062C124.6865,-76.1692 134.4617,-74.4994 143.7042,-72.9206"/>
<polygon fill="#191970" stroke="#191970" points="114.4846,-74.3611 105.2167,-79.495 115.6633,-81.2612 114.4846,-74.3611"/>
</g>
<!-- Node4 -->
<g id="node5" class="node">
<title>Node4</title>
<g id="a_node5"><a xlink:href="structsys_1_1vector__traits.html" target="_top" xlink:title="Container traits for vector&#45;like containers.Method pop is not supported. ">
<polygon fill="none" stroke="#000000" points="147,-.5 147,-30.5 239,-30.5 239,-.5 147,-.5"/>
<text text-anchor="start" x="155" y="-18.5" font-family="Helvetica,sans-Serif" font-size="10.00" fill="#000000">sys::vector_traits</text>
<text text-anchor="middle" x="193" y="-7.5" font-family="Helvetica,sans-Serif" font-size="10.00" fill="#000000">&lt; Container &gt;</text>
</a>
</g>
</g>
<!-- Node0&#45;&gt;Node4 -->
<g id="edge4" class="edge">
<title>Node0&#45;&gt;Node4</title>
<path fill="none" stroke="#191970" d="M88.4511,-68.4851C104.4453,-59.7147 123.5665,-49.4118 141,-40.5 147.4218,-37.2173 154.3446,-33.8035 160.9786,-30.5922"/>
<polygon fill="#191970" stroke="#191970" points="86.5044,-65.5614 79.4317,-73.4498 89.88,-71.6938 86.5044,-65.5614"/>
</g>
</g>
</svg>
