<?xml version="1.0" encoding="UTF-8" standalone="no"?>
<!DOCTYPE svg PUBLIC "-//W3C//DTD SVG 1.1//EN"
 "http://www.w3.org/Graphics/SVG/1.1/DTD/svg11.dtd">
<!-- Generated by graphviz version 2.40.1 (20161225.0304)
 -->
<!-- Title: sys::priority_queue_traits&lt; Container &gt; Pages: 1 -->
<svg width="113pt" height="106pt"
 viewBox="0.00 0.00 113.00 106.00" xmlns="http://www.w3.org/2000/svg" xmlns:xlink="http://www.w3.org/1999/xlink">
<g id="graph0" class="graph" transform="scale(1 1) rotate(0) translate(4 102)">
<title>sys::priority_queue_traits&lt; Container &gt;</title>
<polygon fill="#ffffff" stroke="transparent" points="-4,4 -4,-102 109,-102 109,4 -4,4"/>
<!-- Node0 -->
<g id="node1" class="node">
<title>Node0</title>
<polygon fill="#bfbfbf" stroke="#000000" points=".5,-.5 .5,-30.5 104.5,-30.5 104.5,-.5 .5,-.5"/>
<text text-anchor="start" x="8.5" y="-18.5" font-family="Helvetica,sans-Serif" font-size="10.00" fill="#000000">sys::priority_queue</text>
<text text-anchor="middle" x="52.5" y="-7.5" font-family="Helvetica,sans-Serif" font-size="10.00" fill="#000000">_traits&lt; Container &gt;</text>
</g>
<!-- Node1 -->
<g id="node2" class="node">
<title>Node1</title>
<g id="a_node2"><a xlink:href="structsys_1_1container__traits.html" target="_top" xlink:title="Container trais. ">
<polygon fill="#ffffff" stroke="#000000" points="0,-67.5 0,-97.5 105,-97.5 105,-67.5 0,-67.5"/>
<text text-anchor="start" x="8" y="-85.5" font-family="Helvetica,sans-Serif" font-size="10.00" fill="#000000">sys::container_traits</text>
<text text-anchor="middle" x="52.5" y="-74.5" font-family="Helvetica,sans-Serif" font-size="10.00" fill="#000000">&lt; Container &gt;</text>
</a>
</g>
</g>
<!-- Node1&#45;&gt;Node0 -->
<g id="edge1" class="edge">
<title>Node1&#45;&gt;Node0</title>
<path fill="none" stroke="#191970" d="M52.5,-57.0249C52.5,-48.128 52.5,-38.4287 52.5,-30.6432"/>
<polygon fill="#191970" stroke="#191970" points="49.0001,-57.2966 52.5,-67.2967 56.0001,-57.2967 49.0001,-57.2966"/>
</g>
</g>
</svg>
