<?xml version="1.0" encoding="UTF-8" standalone="no"?>
<!DOCTYPE svg PUBLIC "-//W3C//DTD SVG 1.1//EN"
 "http://www.w3.org/Graphics/SVG/1.1/DTD/svg11.dtd">
<!-- Generated by graphviz version 2.40.1 (20161225.0304)
 -->
<!-- Title: sys::websocket_frame Pages: 1 -->
<svg width="350pt" height="205pt"
 viewBox="0.00 0.00 349.50 205.00" xmlns="http://www.w3.org/2000/svg" xmlns:xlink="http://www.w3.org/1999/xlink">
<g id="graph0" class="graph" transform="scale(1 1) rotate(0) translate(4 201)">
<title>sys::websocket_frame</title>
<!-- Node1 -->
<g id="node1" class="node">
<title>Node1</title>
<polygon fill="#bfbfbf" stroke="#000000" points="110.5,-.5 110.5,-19.5 226.5,-19.5 226.5,-.5 110.5,-.5"/>
<text text-anchor="middle" x="168.5" y="-7.5" font-family="Helvetica,sans-Serif" font-size="10.00" fill="#000000">sys::websocket_frame</text>
</g>
<!-- Node2 -->
<g id="node2" class="node">
<title>Node2</title>
<g id="a_node2"><a doxygen="/home/igankevich/repos/dev/specs/build/unistdx/build/std.tag.xml:http://en.cppreference.com/w/" xlink:href="http://en.cppreference.com/w/cpp/types/integer.html" xlink:title="std::uint32_t">
<polygon fill="none" stroke="#000000" points="0,-177.5 0,-196.5 71,-196.5 71,-177.5 0,-177.5"/>
<text text-anchor="middle" x="35.5" y="-184.5" font-family="Helvetica,sans-Serif" font-size="10.00" fill="#000000">std::uint32_t</text>
</a>
</g>
</g>
<!-- Node2&#45;&gt;Node1 -->
<g id="edge1" class="edge">
<title>Node2&#45;&gt;Node1</title>
<path fill="none" stroke="#9a32cd" stroke-dasharray="5,2" d="M35.7005,-167.3159C37.1039,-135.7237 44.4819,-73.6422 79.5,-38 86.2545,-31.1251 105.9605,-24.5915 125.1177,-19.5674"/>
<polygon fill="#9a32cd" stroke="#9a32cd" points="32.1975,-167.3754 35.4137,-177.4703 39.1947,-167.5731 32.1975,-167.3754"/>
<text text-anchor="middle" x="97" y="-96" font-family="Helvetica,sans-Serif" font-size="10.00" fill="#000000"> extlen2</text>
</g>
<!-- Node3 -->
<g id="node3" class="node">
<title>Node3</title>
<g id="a_node3"><a doxygen="/home/igankevich/repos/dev/specs/build/unistdx/build/std.tag.xml:http://en.cppreference.com/w/" xlink:href="http://en.cppreference.com/w/cpp/types/integer.html" xlink:title="std::uint16_t">
<polygon fill="none" stroke="#000000" points="89,-177.5 89,-196.5 160,-196.5 160,-177.5 89,-177.5"/>
<text text-anchor="middle" x="124.5" y="-184.5" font-family="Helvetica,sans-Serif" font-size="10.00" fill="#000000">std::uint16_t</text>
</a>
</g>
</g>
<!-- Node3&#45;&gt;Node1 -->
<g id="edge2" class="edge">
<title>Node3&#45;&gt;Node1</title>
<path fill="none" stroke="#9a32cd" stroke-dasharray="5,2" d="M121.3482,-167.2865C117.5609,-137.496 114.1279,-80.0283 135.5,-38 139.2463,-30.6329 145.866,-24.4272 152.198,-19.7451"/>
<polygon fill="#9a32cd" stroke="#9a32cd" points="117.8932,-167.8512 122.766,-177.2589 124.8235,-166.8658 117.8932,-167.8512"/>
<text text-anchor="middle" x="163.5" y="-151" font-family="Helvetica,sans-Serif" font-size="10.00" fill="#000000"> rsv1</text>
<text text-anchor="middle" x="163.5" y="-140" font-family="Helvetica,sans-Serif" font-size="10.00" fill="#000000">rsv2</text>
<text text-anchor="middle" x="163.5" y="-129" font-family="Helvetica,sans-Serif" font-size="10.00" fill="#000000">rsv3</text>
<text text-anchor="middle" x="163.5" y="-118" font-family="Helvetica,sans-Serif" font-size="10.00" fill="#000000">extlen</text>
<text text-anchor="middle" x="163.5" y="-107" font-family="Helvetica,sans-Serif" font-size="10.00" fill="#000000">length64_tag</text>
<text text-anchor="middle" x="163.5" y="-96" font-family="Helvetica,sans-Serif" font-size="10.00" fill="#000000">fin</text>
<text text-anchor="middle" x="163.5" y="-85" font-family="Helvetica,sans-Serif" font-size="10.00" fill="#000000">maskbit</text>
<text text-anchor="middle" x="163.5" y="-74" font-family="Helvetica,sans-Serif" font-size="10.00" fill="#000000">length16_tag</text>
<text text-anchor="middle" x="163.5" y="-63" font-family="Helvetica,sans-Serif" font-size="10.00" fill="#000000">opcode</text>
<text text-anchor="middle" x="163.5" y="-52" font-family="Helvetica,sans-Serif" font-size="10.00" fill="#000000">len</text>
<text text-anchor="middle" x="163.5" y="-41" font-family="Helvetica,sans-Serif" font-size="10.00" fill="#000000">...</text>
</g>
<!-- Node4 -->
<g id="node4" class="node">
<title>Node4</title>
<g id="a_node4"><a doxygen="/home/igankevich/repos/dev/specs/build/unistdx/build/std.tag.xml:http://en.cppreference.com/w/" xlink:href="http://en.cppreference.com/w/cpp/types/integer.html" xlink:title="std::uint64_t">
<polygon fill="none" stroke="#000000" points="178,-177.5 178,-196.5 249,-196.5 249,-177.5 178,-177.5"/>
<text text-anchor="middle" x="213.5" y="-184.5" font-family="Helvetica,sans-Serif" font-size="10.00" fill="#000000">std::uint64_t</text>
</a>
</g>
</g>
<!-- Node4&#45;&gt;Node1 -->
<g id="edge3" class="edge">
<title>Node4&#45;&gt;Node1</title>
<path fill="none" stroke="#9a32cd" stroke-dasharray="5,2" d="M213.8789,-167.2575C213.7321,-137.8233 210.6723,-81.265 191.5,-38 188.4926,-31.2133 183.3709,-24.7341 178.7231,-19.7209"/>
<polygon fill="#9a32cd" stroke="#9a32cd" points="210.3778,-167.4287 213.8142,-177.4507 217.3777,-167.4731 210.3778,-167.4287"/>
<text text-anchor="middle" x="227.5" y="-96" font-family="Helvetica,sans-Serif" font-size="10.00" fill="#000000"> footer</text>
</g>
<!-- Node5 -->
<g id="node5" class="node">
<title>Node5</title>
<g id="a_node5"><a doxygen="/home/igankevich/repos/dev/specs/build/unistdx/build/std.tag.xml:http://en.cppreference.com/w/" xlink:href="http://en.cppreference.com/w/cpp/types/integer.html" xlink:title="std::uint8_t">
<polygon fill="none" stroke="#000000" points="267,-177.5 267,-196.5 332,-196.5 332,-177.5 267,-177.5"/>
<text text-anchor="middle" x="299.5" y="-184.5" font-family="Helvetica,sans-Serif" font-size="10.00" fill="#000000">std::uint8_t</text>
</a>
</g>
</g>
<!-- Node5&#45;&gt;Node1 -->
<g id="edge4" class="edge">
<title>Node5&#45;&gt;Node1</title>
<path fill="none" stroke="#9a32cd" stroke-dasharray="5,2" d="M297.6025,-166.9561C293.57,-135.3607 281.349,-73.8877 245.5,-38 237.1562,-29.6472 226.1287,-23.7673 215.0349,-19.635"/>
<polygon fill="#9a32cd" stroke="#9a32cd" points="294.1522,-167.5951 298.7463,-177.142 301.1084,-166.8139 294.1522,-167.5951"/>
<text text-anchor="middle" x="318.5" y="-112.5" font-family="Helvetica,sans-Serif" font-size="10.00" fill="#000000"> __pad0__</text>
<text text-anchor="middle" x="318.5" y="-101.5" font-family="Helvetica,sans-Serif" font-size="10.00" fill="#000000">__pad3__</text>
<text text-anchor="middle" x="318.5" y="-90.5" font-family="Helvetica,sans-Serif" font-size="10.00" fill="#000000">__pad1__</text>
<text text-anchor="middle" x="318.5" y="-79.5" font-family="Helvetica,sans-Serif" font-size="10.00" fill="#000000">__pad2__</text>
</g>
</g>
</svg>
